<svg width="172" height="60" viewBox="0 0 172 60" fill="none" xmlns="http://www.w3.org/2000/svg">
<path d="M67.9351 59.8259H68.6918V-0.000160217H67.9351V59.8259Z" fill="white"/>
<path d="M82.1053 12.6531L81.5108 10.9698H77.8938L77.2988 12.6531H75.7815L78.865 4.29494H80.5399L83.6104 12.6531H82.1053ZM78.3548 9.68033H81.0494L79.7023 5.90726L78.3548 9.68033Z" fill="white"/>
<path d="M85.8673 11.3396H89.7759V12.6531H84.1321V11.5186L87.9433 5.60882H84.2168V4.29531H89.6789V5.42938L85.8673 11.3396Z" fill="white"/>
<path d="M90.5763 7.82938H97.8828C97.7615 7.25653 97.4947 6.75463 97.07 6.33682C96.4991 5.76359 95.7831 5.47717 94.9336 5.47717C94.0842 5.47717 93.3679 5.76359 92.7855 6.33682L92.7733 6.34883L91.8021 5.40547C92.6641 4.55783 93.7075 4.14001 94.9336 4.14001C96.1594 4.14001 97.2035 4.55783 98.053 5.40547C98.9147 6.24147 99.3398 7.26854 99.3398 8.47393C99.3398 9.68045 98.9147 10.7068 98.053 11.5548C97.2035 12.39 96.1594 12.8082 94.9336 12.8082C93.7075 12.8082 92.6641 12.39 91.8021 11.5548C90.9522 10.7068 90.5278 9.68045 90.5278 8.47393C90.5278 8.2472 90.5519 8.04411 90.5763 7.82938ZM97.8828 9.11886H91.9841C92.0932 9.7041 92.3604 10.1936 92.7855 10.6234C93.3679 11.1847 94.0842 11.4711 94.9336 11.4711C95.7831 11.4711 96.4991 11.1847 97.07 10.6234C97.4947 10.2056 97.7615 9.7041 97.8828 9.11886Z" fill="white"/>
<path d="M105.456 12.6531L103.66 9.60863H102.009V12.6531H100.613V4.29494H104.012C104.776 4.29494 105.42 4.55809 105.942 5.08327C106.476 5.59643 106.743 6.22934 106.743 6.98126C106.743 8.04399 106.063 9.01138 105.055 9.40517L106.986 12.6531H105.456ZM102.009 5.58442V8.37885H104.012C104.753 8.37885 105.347 7.75757 105.347 6.98126C105.347 6.20569 104.753 5.58442 104.012 5.58442H102.009Z" fill="white"/>
<path d="M114.243 10.2652C114.243 10.9458 114.001 11.5186 113.503 11.9725C113.005 12.4263 112.411 12.6531 111.694 12.6531H108.053V4.29494H111.427C112.119 4.29494 112.714 4.52168 113.187 4.96389C113.673 5.40535 113.916 5.95493 113.916 6.61149C113.916 7.33976 113.625 7.90097 113.054 8.31916C113.794 8.70093 114.243 9.39316 114.243 10.2652ZM109.449 5.58442V7.78159H111.427C112.046 7.78159 112.52 7.30409 112.52 6.68319C112.52 6.06229 112.046 5.58442 111.427 5.58442H109.449ZM111.694 11.3636C112.337 11.3636 112.848 10.8504 112.848 10.1935C112.848 9.53656 112.337 9.0234 111.694 9.0234H109.449V11.3636H111.694Z" fill="white"/>
<path d="M120.991 12.6531L120.397 10.9698H116.78L116.185 12.6531H114.667L117.75 4.29494H119.425L122.496 12.6531H120.991ZM117.241 9.68033H119.935L118.588 5.90725L117.241 9.68033Z" fill="white"/>
<path d="M128.843 4.29494L125.882 9.33347V12.6531H124.485V9.33347L121.524 4.29494H123.114L125.19 7.99632L127.253 4.29494H128.843Z" fill="white"/>
<path d="M129.984 11.5664C129.146 10.7312 128.721 9.7041 128.721 8.47431C128.721 7.24452 129.146 6.21744 129.984 5.39383C130.821 4.55783 131.889 4.14001 133.164 4.14001C134.705 4.14001 136.089 4.90432 136.817 6.13411L135.603 6.82633C135.154 6.00272 134.232 5.47717 133.164 5.47717C132.253 5.47717 131.525 5.76359 130.955 6.32518C130.396 6.88602 130.117 7.60264 130.117 8.47431C130.117 9.3456 130.396 10.0622 130.955 10.6234C131.525 11.1847 132.253 11.4711 133.164 11.4711C134.232 11.4711 135.166 10.9459 135.603 10.1219L136.817 10.8021C136.465 11.4114 135.956 11.9009 135.3 12.2707C134.657 12.6292 133.941 12.8082 133.164 12.8082C131.889 12.8082 130.821 12.3904 129.984 11.5664Z" fill="white"/>
<path d="M143.443 12.6531L142.849 10.9698H139.232L138.637 12.6531H137.12L140.202 4.29494H141.878L144.949 12.6531H143.443ZM139.693 9.68033H142.388L141.04 5.90725L139.693 9.68033Z" fill="white"/>
<path d="M150.956 4.29494H152.352V12.6531H151.259L147.253 6.98125V12.6531H145.858V4.29494H146.95L150.956 9.96676V4.29494Z" fill="white"/>
<path d="M81.414 26.9794L79.6173 23.9346H77.9668V26.9794H76.5708V18.6212H79.9695C80.7339 18.6212 81.3777 18.8844 81.8994 19.4096C82.4336 19.9227 82.7004 20.5556 82.7004 21.3075C82.7004 22.3703 82.0207 23.3377 81.0136 23.7315L82.9431 26.9794H81.414ZM77.9668 19.9107V22.7051H79.9695C80.7102 22.7051 81.3048 22.0839 81.3048 21.3075C81.3048 20.532 80.7102 19.9107 79.9695 19.9107H77.9668Z" fill="white"/>
<path d="M85.4061 25.6657H89.1689V26.9792H84.0105V18.6211H89.1082V19.935H85.4061V22.1078H88.8048V23.4093H85.4061V25.6657Z" fill="white"/>
<path d="M89.9939 25.0806L91.1952 24.3884C91.5349 25.3314 92.2394 25.7972 93.3071 25.7972C94.3631 25.7972 94.8851 25.3554 94.8851 24.6988C94.8851 24.3527 94.7397 24.1016 94.4604 23.9225C94.181 23.7435 93.6716 23.5408 92.9553 23.3257C92.1417 23.0865 91.7413 22.9315 91.1712 22.5614C90.6247 22.1796 90.3458 21.63 90.3458 20.8781C90.3458 20.1374 90.6125 19.5526 91.1468 19.1227C91.6807 18.6809 92.3241 18.4662 93.0766 18.4662C94.436 18.4662 95.4919 19.1584 96.0384 20.3049L94.8611 20.9734C94.5089 20.1971 93.9143 19.8033 93.0766 19.8033C92.2634 19.8033 91.7413 20.2091 91.7413 20.8421C91.7413 21.463 92.1539 21.7494 93.4525 22.1435C93.7807 22.2509 94.0112 22.3226 94.157 22.3823C94.3146 22.43 94.5211 22.5137 94.7882 22.621C95.0672 22.7284 95.2736 22.8478 95.4072 22.9551C95.856 23.302 96.3418 23.8749 96.2811 24.6748C96.2811 25.4267 96.0021 26.036 95.4434 26.4778C94.8973 26.9197 94.1688 27.1344 93.2705 27.1344C91.6322 27.1344 90.4427 26.3585 89.9939 25.0806Z" fill="white"/>
<path d="M100.552 18.6212C101.354 18.6212 102.021 18.884 102.555 19.4096C103.101 19.9347 103.368 20.5917 103.368 21.3672C103.368 22.1435 103.101 22.7881 102.555 23.3257C102.021 23.8508 101.354 24.114 100.552 24.114H98.8165V26.9794H97.4209V18.6212H100.552ZM100.552 22.8245C101.378 22.8245 101.972 22.2153 101.972 21.3672C101.972 20.52 101.378 19.9107 100.552 19.9107H98.8165V22.8245H100.552Z" fill="white"/>
<path d="M104.497 18.6212H105.893V24.126C105.893 25.1403 106.5 25.7972 107.713 25.7972C108.927 25.7972 109.534 25.1403 109.534 24.126V18.6212H110.93V24.209C110.93 25.1046 110.627 25.8093 110.032 26.3464C109.437 26.872 108.66 27.1344 107.713 27.1344C106.767 27.1344 105.99 26.872 105.395 26.3464C104.8 25.8093 104.497 25.1046 104.497 24.209V18.6212Z" fill="white"/>
<path d="M118.721 24.5914C118.721 25.2716 118.478 25.8448 117.981 26.2987C117.483 26.7525 116.888 26.9792 116.172 26.9792H112.531V18.6211H115.905C116.597 18.6211 117.192 18.8478 117.665 19.2901C118.151 19.7315 118.394 20.2807 118.394 20.9377C118.394 21.6656 118.102 22.2271 117.532 22.645C118.272 23.0271 118.721 23.7193 118.721 24.5914ZM113.926 19.9106V22.1078H115.905C116.524 22.1078 116.998 21.6303 116.998 21.0094C116.998 20.3881 116.524 19.9106 115.905 19.9106H113.926ZM116.172 25.6898C116.816 25.6898 117.325 25.1762 117.325 24.5197C117.325 23.8627 116.816 23.3496 116.172 23.3496H113.926V25.6898H116.172Z" fill="white"/>
<path d="M121.33 25.6657H124.79V26.9792H119.935V18.6211H121.33V25.6657Z" fill="white"/>
<path d="M126.524 16.257C127.252 16.2213 127.677 17.2004 127.118 17.6899C126.645 18.2154 125.626 17.8093 125.674 17.093C125.674 16.6512 126.075 16.257 126.524 16.257ZM125.82 18.6212H127.216V26.9794H125.82V18.6212Z" fill="white"/>
<path d="M135.324 26.9794H133.661L130.311 23.0036V26.9794H128.915V18.6212H130.311V22.3703L133.539 18.6212H135.203L131.767 22.6931L135.324 26.9794Z" fill="white"/>
<path d="M141.95 26.9794L141.356 25.2961H137.739L137.144 26.9794H135.626L138.709 18.6212H140.385L143.455 26.9794H141.95ZM138.2 24.0066H140.894L139.547 20.2335L138.2 24.0066Z" fill="white"/>
<path d="M143.697 25.0806L144.899 24.3884C145.239 25.3314 145.943 25.7972 147.011 25.7972C148.067 25.7972 148.589 25.3554 148.589 24.6988C148.589 24.3527 148.443 24.1016 148.165 23.9225C147.885 23.7435 147.375 23.5408 146.659 23.3257C145.846 23.0865 145.445 22.9315 144.875 22.5614C144.329 22.1796 144.049 21.63 144.049 20.8781C144.049 20.1374 144.317 19.5526 144.851 19.1227C145.384 18.6809 146.028 18.4662 146.781 18.4662C148.14 18.4662 149.196 19.1584 149.742 20.3049L148.565 20.9734C148.213 20.1971 147.618 19.8033 146.781 19.8033C145.967 19.8033 145.445 20.2091 145.445 20.8421C145.445 21.463 145.858 21.7494 147.157 22.1435C147.484 22.2509 147.715 22.3226 147.861 22.3823C148.018 22.43 148.225 22.5137 148.492 22.621C148.771 22.7284 148.977 22.8478 149.111 22.9551C149.56 23.302 150.046 23.8749 149.985 24.6748C149.985 25.4267 149.706 26.036 149.147 26.4778C148.601 26.9197 147.873 27.1344 146.975 27.1344C145.336 27.1344 144.146 26.3585 143.697 25.0806Z" fill="white"/>
<path d="M151.125 18.6212H152.52V26.9794H151.125V18.6212Z" fill="white"/>
<path d="M159.317 18.6212H160.713V26.9794H159.621L155.615 21.3075V26.9794H154.22V18.6212H155.312L159.317 24.2931V18.6212Z" fill="white"/>
<path d="M162.412 18.6212H163.807V26.9794H162.412V18.6212Z" fill="white"/>
<path d="M170.604 18.6212H172V26.9794H170.907L166.902 21.3075V26.9794H165.506V18.6212H166.599L170.604 24.2931V18.6212Z" fill="white"/>
<path d="M77.2749 30.5832C78.0034 30.5475 78.4281 31.5265 77.8694 32.0161C77.3962 32.5416 76.3765 32.1354 76.425 31.4192C76.425 30.9773 76.8261 30.5832 77.2749 30.5832ZM76.5712 32.9474H77.9671V41.3055H76.5712V32.9474Z" fill="white"/>
<path d="M86.9359 40.0159L87.8342 40.9236L86.8511 41.7949L85.9162 40.8519C85.2003 41.2577 84.4477 41.4604 83.6463 41.4604C82.4209 41.4604 81.389 41.0426 80.5273 40.207C79.6652 39.359 79.2405 38.3327 79.2405 37.1265C79.2405 35.9208 79.6652 34.8937 80.5273 34.0577C81.389 33.2104 82.4209 32.7922 83.6463 32.7922C84.8728 32.7922 85.9043 33.2104 86.766 34.0577C87.6281 34.8937 88.0529 35.9208 88.0529 37.1265C88.0529 38.2366 87.6766 39.204 86.9359 40.0159ZM84.9213 39.8489L83.3673 38.2846L84.3508 37.413L85.9768 39.0485C86.4264 38.4997 86.6569 37.8548 86.6569 37.1265C86.6569 36.2789 86.3657 35.5623 85.783 34.989C85.2003 34.4162 84.4839 34.1294 83.6463 34.1294C82.809 34.1294 82.0927 34.4162 81.5104 34.989C80.9276 35.5623 80.6364 36.2789 80.6364 37.1265C80.6364 37.9742 80.9276 38.6904 81.5104 39.2636C82.0927 39.8369 82.809 40.1233 83.6463 40.1233C84.0958 40.1233 84.5206 40.0279 84.9213 39.8489Z" fill="white"/>
<path d="M94.4244 32.9473V34.2608H92.0332V41.3054H90.6372V34.2608H88.2341V32.9473H94.4244Z" fill="white"/>
<path d="M96.1589 30.5832C96.8874 30.5475 97.3122 31.5265 96.7535 32.0161C96.2803 32.5416 95.2606 32.1354 95.309 31.4192C95.309 30.9773 95.7101 30.5832 96.1589 30.5832ZM95.4552 32.9474H96.8508V41.3055H95.4552V32.9474Z" fill="white"/>
<path d="M97.9785 39.4067L99.1802 38.7141C99.5199 39.6574 100.224 40.1233 101.293 40.1233C102.348 40.1233 102.87 39.6815 102.87 39.0249C102.87 38.6784 102.725 38.4276 102.446 38.2486C102.166 38.0695 101.657 37.8668 100.94 37.6517C100.127 37.4126 99.7263 37.2575 99.1562 36.8874C98.6101 36.5056 98.3304 35.9561 98.3304 35.2041C98.3304 34.4635 98.5979 33.8782 99.1318 33.4488C99.6657 33.007 100.309 32.7922 101.062 32.7922C102.421 32.7922 103.477 33.4845 104.023 34.6309L102.846 35.2995C102.494 34.5232 101.899 34.1294 101.062 34.1294C100.248 34.1294 99.7263 34.5352 99.7263 35.1681C99.7263 35.789 100.139 36.0754 101.438 36.4696C101.766 36.577 101.996 36.6487 102.142 36.7083C102.3 36.756 102.506 36.8397 102.773 36.9471C103.052 37.0545 103.259 37.1738 103.392 37.2812C103.841 37.6281 104.327 38.2009 104.266 39.0009C104.266 39.7528 103.987 40.362 103.428 40.8039C102.882 41.2453 102.154 41.4604 101.256 41.4604C99.6172 41.4604 98.4277 40.6845 97.9785 39.4067Z" fill="white"/>
<path d="M110.894 41.3052L110.299 39.6219H106.682L106.087 41.3052H104.57L107.653 32.947H109.328L112.399 41.3052H110.894ZM107.143 38.3324H109.838L108.49 34.5594L107.143 38.3324Z" fill="white"/>
<path d="M116.646 32.9473C117.811 32.9473 118.782 33.3531 119.547 34.1534C120.324 34.9534 120.712 35.944 120.712 37.1262C120.712 38.2963 120.324 39.2873 119.547 40.0997C118.782 40.8992 117.811 41.3054 116.646 41.3054H113.308V32.9473H116.646ZM116.646 39.9915C117.448 39.9915 118.103 39.7171 118.6 39.1799C119.11 38.6428 119.365 37.9502 119.365 37.1262C119.365 36.2905 119.11 35.61 118.6 35.0728C118.103 34.5352 117.448 34.2608 116.646 34.2608H114.704V39.9915H116.646Z" fill="white"/>
<path d="M122.689 30.5832C123.417 30.5475 123.842 31.5265 123.284 32.0161C122.81 32.5416 121.791 32.1354 121.839 31.4192C121.839 30.9773 122.24 30.5832 122.689 30.5832ZM121.985 32.9474H123.38V41.3055H121.985V32.9474Z" fill="white"/>
<path d="M131.61 32.9473L128.649 37.9858V41.3054H127.253V37.9858L124.291 32.9473H125.881L127.957 36.6487L130.02 32.9473H131.61Z" fill="white"/>
<path d="M139.11 32.9473L136.149 37.9858V41.3054H134.753V37.9858L131.791 32.9473H133.381L135.457 36.6487L137.52 32.9473H139.11Z" fill="white"/>
<path d="M144.463 41.3052L143.868 39.6219H140.251L139.656 41.3052H138.139L141.221 32.947H142.897L145.968 41.3052H144.463ZM140.712 38.3324H143.407L142.059 34.5594L140.712 38.3324Z" fill="white"/>
<path d="M151.793 32.9473V34.2608H149.402V41.3054H148.006V34.2608H145.603V32.9473H151.793Z" fill="white"/>
<path d="M81.6689 47.2737H83.0645V55.6318H81.9723L77.9668 49.96V55.6318H76.5708V47.2737H77.6634L81.6689 52.9455V47.2737Z" fill="white"/>
<path d="M90.2977 55.6317L89.7031 53.9484H86.0858L85.4908 55.6317H83.9739L87.0566 47.2736H88.7319L91.8024 55.6317H90.2977ZM86.5471 52.659H89.2418L87.8943 48.8859L86.5471 52.659Z" fill="white"/>
<path d="M94.0589 54.3182H97.9674V55.6317H92.3232V54.4973L96.1345 48.5874H92.4083V47.2736H97.8701V48.4084L94.0589 54.3182Z" fill="white"/>
<path d="M99.8489 44.9095C100.577 44.8738 101.002 45.8528 100.443 46.3424C99.9702 46.8679 98.9505 46.4617 98.999 45.7455C98.999 45.3036 99.4001 44.9095 99.8489 44.9095ZM99.1451 47.2737H100.541V55.6318H99.1451V47.2737Z" fill="white"/>
<path d="M107.082 55.6317L105.286 52.5873H103.635V55.6317H102.239V47.2736H105.638C106.402 47.2736 107.046 47.5367 107.568 48.0619C108.102 48.5751 108.369 49.208 108.369 49.9599C108.369 51.0226 107.689 51.99 106.681 52.3838L108.612 55.6317H107.082ZM103.635 48.5631V51.3575H105.638C106.378 51.3575 106.973 50.7362 106.973 49.9599C106.973 49.1843 106.378 48.5631 105.638 48.5631H103.635Z" fill="white"/>
<path d="M111.074 54.3182H114.534V55.6317H109.679V47.2736H111.074V54.3182Z" fill="white"/>
<path d="M116.269 44.9095C116.998 44.8738 117.422 45.8528 116.864 46.3424C116.39 46.8679 115.371 46.4617 115.419 45.7455C115.419 45.3036 115.82 44.9095 116.269 44.9095ZM115.565 47.2737H116.961V55.6318H115.565V47.2737Z" fill="white"/>
<path d="M125.19 47.2737L122.229 52.3122V55.6318H120.832V52.3122L117.871 47.2737H119.461L121.537 50.9751L123.6 47.2737H125.19Z" fill="white"/>
<path d="M126.804 44.9095C127.532 44.8738 127.957 45.8528 127.398 46.3424C126.925 46.8679 125.905 46.4617 125.954 45.7455C125.954 45.3036 126.355 44.9095 126.804 44.9095ZM126.1 47.2737H127.496V55.6318H126.1V47.2737Z" fill="white"/>
<path d="M27.7042 9.90186L26.4601 9.89999L30.3866 6.10476L34.3009 9.91087L33.1553 9.90937L33.153 11.611L38.261 11.6182L30.4027 3.86629L22.55 11.5694L27.7019 11.5765L27.7042 9.90186Z" fill="#8B7736"/>
<path d="M42.8473 13.8918L41.9688 13.025L47.4737 13.0727L47.5054 18.4866L46.6963 17.6889L45.4713 18.8905L49.0784 22.4485L49.0941 11.5009L38.0042 11.4859L41.6418 15.0743L42.8473 13.8918Z" fill="#8B7736"/>
<path d="M50.6862 27.246L50.6881 26.0222L54.5463 29.8846L50.677 33.735L50.6785 32.6081L48.9487 32.6059L48.9414 37.6305L56.8219 29.9004L48.991 22.1759L48.9838 27.2437L50.6862 27.246Z" fill="#8B7736"/>
<path d="M46.6305 42.1414L47.5117 41.2773L47.4632 46.6923L41.9595 46.7235L42.7705 45.9277L41.5489 44.7226L37.9319 48.2709L49.0611 48.2863L49.0767 37.3773L45.4284 40.9556L46.6305 42.1414Z" fill="#8B7736"/>
<path d="M33.0548 49.8529L34.2989 49.8547L30.3724 53.65L26.4581 49.8438L27.6038 49.8453L27.606 48.1433L22.498 48.1366L30.3564 55.8884L38.209 48.1854L33.0571 48.1782L33.0548 49.8529Z" fill="#8B7736"/>
<path d="M17.9123 45.8631L18.7908 46.7299L13.2859 46.6823L13.2542 41.2683L14.0633 42.066L15.2883 40.8644L11.6812 37.3064L11.6655 48.254L22.7554 48.269L19.1178 44.6807L17.9123 45.8631Z" fill="#8B7736"/>
<path d="M10.0732 32.5093L10.0713 33.7331L6.2131 29.8706L10.0824 26.0202L10.0808 27.1472L11.8107 27.1494L11.818 22.1248L3.9375 29.8549L11.7684 37.5793L11.7756 32.5115L10.0732 32.5093Z" fill="#8B7736"/>
<path d="M14.1291 17.6133L13.2479 18.4775L13.2964 13.0624L18.8001 13.0313L17.9891 13.8271L19.2107 15.0321L22.8277 11.4839L11.6985 11.4685L11.6829 22.3774L15.3312 18.7992L14.1291 17.6133Z" fill="#8B7736"/>
<path d="M8.94402 28.6344L7.70947 29.8469L8.94058 31.0613L10.1759 29.8503L8.94402 28.6344Z" fill="#8B7736"/>
<path d="M16.116 14.0883L14.3712 14.0871L14.3689 15.8019L16.1129 15.8049L16.116 14.0883Z" fill="#8B7736"/>
<path d="M31.6432 8.79116L30.4106 7.57676L29.176 8.78778L30.4068 10.0029L31.6432 8.79116Z" fill="#8B7736"/>
<path d="M46.4312 15.8461L46.4323 14.1298L44.6891 14.1275L44.686 15.8431L46.4312 15.8461Z" fill="#8B7736"/>
<path d="M51.8156 31.1207L53.0502 29.9082L51.819 28.6938L50.5837 29.9048L51.8156 31.1207Z" fill="#8B7736"/>
<path d="M44.6438 45.6668L46.3886 45.668L46.3909 43.9532L44.6469 43.9502L44.6438 45.6668Z" fill="#8B7736"/>
<path d="M29.1165 50.9637L30.3491 52.1781L31.5836 50.9671L30.3529 49.7519L29.1165 50.9637Z" fill="#8B7736"/>
<path d="M14.328 43.9088L14.3269 45.6251L16.0701 45.6273L16.0732 43.9118L14.328 43.9088Z" fill="#8B7736"/>
<path d="M54.2161 39.5859L59.1718 34.7103V35.7393H60.7475V31.3337L52.8457 39.0288L52.8953 49.9363L56.0502 46.8423L54.9481 45.7581L54.2054 46.4887L54.2161 39.5859Z" fill="#8B7736"/>
<path d="M40.2298 53.3438L47.2272 53.3528L46.5899 53.9775L47.6905 55.0631L50.8351 51.9593L39.6505 52.0089L31.7998 59.7311L36.2957 59.7495L36.4579 58.1015L35.3298 58.1638L40.2298 53.3438Z" fill="#8B7736"/>
<path d="M20.51 53.3247L25.4188 58.1534L24.3087 58.1088L24.6956 59.7312H28.9595L21.0764 51.9767L9.9834 52.03L13.1333 55.1289L14.224 54.0556L13.4703 53.3142L20.51 53.3247Z" fill="#8B7736"/>
<path d="M6.52419 39.567L6.51465 46.472L5.86589 45.8342L4.77522 46.9067L7.92512 50.0056L7.88123 38.9968L0 31.2442V35.5083L1.56808 35.7392L1.62418 34.747L6.52419 39.567Z" fill="#8B7736"/>
<path d="M6.54327 20.169L1.63448 24.9977L1.68715 23.8985L0.0118303 24.0581L0 28.5106L7.91367 20.7261L7.9297 9.75408L4.78095 12.8541L5.87811 13.9333L6.55396 13.2663L6.54327 20.169Z" fill="#8B7736"/>
<path d="M20.5298 6.41119L13.5324 6.40218L14.2354 5.71296L13.1447 4.63671L9.99023 7.73108L21.1095 7.74609L28.9518 0.0317569H24.348L24.2274 1.72666L25.4299 1.59114L20.5298 6.41119Z" fill="#8B7736"/>
<path d="M40.2497 6.43014L35.3409 1.60145L36.3888 1.48696L36.2961 0.00528097L31.8113 0.0345616L39.6834 7.77818L50.8374 7.79395L47.692 4.69094L46.5899 5.7747L47.2669 6.44065L40.2497 6.43014Z" fill="#8B7736"/>
<path d="M54.2355 20.1879L54.2446 13.3047L54.9468 13.9977L56.0394 12.9233L52.8937 9.82032L52.8784 20.7582L60.7474 28.4988V23.8567H59.1721V25.0437L54.2355 20.1879Z" fill="#8B7736"/>
<path d="M30.5147 17.8402C24.8271 17.8402 20.2163 22.3757 20.2163 27.9706C20.2163 33.5654 24.8271 38.1013 30.5147 38.1013C36.2024 38.1013 40.8131 33.5654 40.8131 27.9706C40.8131 22.3757 36.2024 17.8402 30.5147 17.8402Z" fill="#AB8A03"/>
<path d="M28.4957 41.0338L28.5976 40.8525C28.6613 40.7155 28.6842 40.5882 28.6571 40.443L28.6411 40.2733L28.7449 40.3593C28.8602 40.4546 28.9716 40.5394 29.0861 40.619L29.162 40.6723L28.4957 41.0338ZM41.4819 31.8724C41.4865 31.8592 41.4796 31.845 41.4662 31.8401C41.4529 31.8356 41.4388 31.8423 41.4338 31.8555C41.3151 32.1836 41.1842 32.5267 41.0457 32.8131C40.9633 32.9111 40.8068 33.0879 40.6893 33.1288C40.8091 32.991 40.8747 32.8123 40.9102 32.6243C41.143 32.2279 41.2968 31.7594 41.3739 31.4906C41.3773 31.4771 41.3697 31.4632 41.3559 31.4598C41.3422 31.456 41.3285 31.4636 41.3247 31.4771C41.2563 31.7169 41.1254 32.1182 40.9323 32.4812C40.9495 32.333 40.9514 32.1836 40.9499 32.0465C41.1014 31.7492 41.2212 31.4009 41.3136 30.9864C41.3166 30.9729 41.3079 30.9594 41.2941 30.9564C41.2808 30.9538 41.267 30.962 41.264 30.9755C41.1815 31.3457 41.077 31.6621 40.9476 31.9362C40.9449 31.8389 40.9419 31.7507 40.943 31.6783C40.9434 31.6332 40.9442 31.5912 40.9446 31.5506C41.064 31.1625 41.1842 30.6737 41.2617 30.245C41.264 30.2311 41.2548 30.2184 41.2407 30.2161C41.2273 30.2135 41.214 30.2225 41.2117 30.236C41.1262 30.709 40.9884 31.2552 40.8583 31.6565C40.8133 31.7233 40.7717 31.774 40.7389 31.8134C40.7194 31.8374 40.7022 31.8573 40.69 31.8757C40.6423 31.9459 40.582 32.0327 40.5179 32.1288C40.6534 31.7109 40.7915 31.2417 40.8709 30.8753C40.874 30.8618 40.8652 30.8483 40.8514 30.8457C40.8373 30.843 40.8243 30.8513 40.8213 30.8648C40.7301 31.286 40.5606 31.8435 40.408 32.3018C40.3034 32.4737 40.2069 32.6603 40.1634 32.8289C40.1634 32.8289 40.1149 32.6168 40.1901 32.2834C40.324 31.9418 40.4725 31.4996 40.6209 30.9598C40.6248 30.9463 40.6167 30.9327 40.603 30.929C40.5896 30.9256 40.5755 30.9335 40.5721 30.9466C40.3851 31.6261 40.1954 32.1532 40.0386 32.5158C40.0359 32.5199 40.0329 32.5248 40.0306 32.5278C39.9619 32.6292 39.7394 32.9385 39.665 33.2715C39.5879 32.9479 39.8417 32.3273 39.9195 32.1051C39.9184 32.1051 39.9199 32.1047 39.9199 32.1047C38.353 35.5475 34.8905 37.9721 30.8385 38.0953C30.7309 38.0986 30.6232 38.1009 30.5149 38.1009C25.819 38.1009 21.8574 35.0091 20.6187 30.7818C20.4889 30.5956 20.3088 30.4215 20.1268 30.4215C20.0642 30.4215 19.9783 30.4507 19.8837 30.5532C19.5341 30.9342 19.9802 31.3645 20.0329 31.4095C20.097 31.4639 20.1172 31.5585 20.1073 31.6148C20.0966 31.6726 20.0481 31.7184 19.9623 31.75C19.7272 31.8371 19.7058 32.0447 19.7058 32.0447C19.6967 32.1325 19.7074 32.217 19.736 32.2823L19.7833 32.3908L19.6642 32.3743C19.6329 32.3698 19.6016 32.3679 19.5711 32.3679C19.4402 32.3679 19.3418 32.4088 19.3055 32.4467C19.2769 32.4771 19.2639 32.5124 19.2696 32.5571C19.3044 32.8424 19.6879 33.1183 19.6879 33.1183C19.6726 33.1885 19.6951 33.2943 19.8405 33.336C19.8921 33.3507 19.9462 33.3582 20.0012 33.3582C20.0249 33.3582 20.0478 33.3567 20.0688 33.3544C20.0688 33.3544 20.1332 33.3507 20.1748 33.3432C19.9836 33.5173 20.1107 34.3364 20.9339 34.4194C20.9339 34.4194 20.982 34.4243 21.0518 34.4202C20.6671 34.9303 21.3247 35.1942 21.3208 35.4014C21.3193 35.4863 21.2144 35.573 21.1216 35.6252C20.9927 35.698 20.8381 35.7528 20.8381 35.9439C20.8381 36.1684 20.9686 36.3868 21.4933 36.3868C21.6735 36.3868 21.8731 36.4041 21.8731 36.5317C21.8731 36.5873 21.799 36.644 21.7254 36.695C21.6319 36.7604 21.5223 36.8276 21.5223 36.9405C21.5223 36.9691 21.5166 37.2153 21.904 37.3407L22.0627 37.3925L21.9124 37.4642C21.8162 37.5085 21.7658 37.5791 21.7631 37.6632C21.7601 37.7777 21.8566 37.8862 22.0681 37.9691C22.2112 38.0251 22.3783 38.0577 22.5497 38.0716L22.56 38.0964L22.5783 38.1204C22.6073 38.1583 22.6512 38.182 22.6993 38.1857L22.7641 38.191L22.7615 38.2548C22.7584 38.3254 22.7943 38.3971 22.8672 38.468C22.9668 38.5641 23.058 38.64 23.1461 38.6993L23.3129 38.8115L23.111 38.8209C22.7977 38.8352 22.5279 39.0202 22.484 39.2515C22.4611 39.3712 22.4848 39.4801 22.552 39.5657C22.6565 39.6982 22.8378 39.7432 22.9195 39.7489C22.9321 39.7496 22.945 39.75 22.9576 39.75C23.0519 39.75 23.1419 39.7275 23.2209 39.7083C23.3889 39.6674 23.443 39.6674 23.5159 39.8836C23.5743 40.0563 23.6239 40.1798 23.7899 40.1798L23.8922 40.1787C23.8922 40.1787 23.6816 40.7812 23.9353 41.0046C23.9598 41.0263 24.0143 41.0331 24.0475 41.0331C24.1861 41.0331 24.3723 40.86 24.5181 40.6866C24.7146 40.4524 24.8856 40.4336 24.9047 40.4321L24.926 40.4306L24.9447 40.4415C25.002 40.4756 25.0726 40.5004 25.1596 40.5165C25.2397 40.5319 25.3118 40.5976 25.3355 40.6768C25.3496 40.7238 25.3584 40.8169 25.2599 40.9092C25.1634 40.9997 25.1027 41.1506 25.0978 41.3128C25.0932 41.4562 25.1393 41.5845 25.2271 41.6735C25.3141 41.7617 25.4351 41.8083 25.5774 41.8083C25.7984 41.8083 25.9068 41.7351 25.9999 41.6333C26.1274 41.4937 26.1552 41.3101 26.1453 41.2219C26.1373 41.1472 26.1506 41.0901 26.185 41.0526C26.2113 41.0237 26.2487 41.0079 26.2907 41.0079C26.33 41.0079 26.3735 41.0222 26.4067 41.0462C26.5204 41.1277 26.6143 41.1656 26.7021 41.1656C26.7738 41.1656 26.8444 41.1401 26.9185 41.0868C26.9753 41.0466 27.012 41.0012 27.0307 40.9479L27.0662 40.848L27.1425 40.9227C27.2184 40.9967 27.3024 41.0327 27.4024 41.0335C27.4718 41.0335 27.5726 41.0199 27.6596 40.9561L27.7615 40.8814L27.768 41.0061V41.0203C27.7756 41.0954 27.8095 41.157 27.866 41.1915C28.0046 41.2771 28.2499 41.1682 28.2499 41.1682C28.2499 41.1682 27.879 41.38 27.8328 41.4201C27.805 41.4445 27.7954 41.4727 27.7996 41.5087C27.8137 41.6281 28.0317 41.6716 28.1751 41.6716C28.2263 41.6716 28.2755 41.6668 28.3209 41.6566C28.3721 41.6457 28.4927 41.6044 28.5197 41.5819C28.5197 41.5819 29.1517 41.1247 29.6203 40.9614C29.254 41.184 28.8155 41.4471 28.6464 41.5913C28.5755 41.6521 28.5652 41.7197 28.5751 41.764C28.6068 41.9066 28.9002 41.931 28.9846 41.931C29.1334 41.931 29.4436 41.8608 29.5455 41.7655L29.5482 41.7636C29.5551 41.7568 29.5616 41.7501 29.5669 41.7426L29.5715 41.7373C29.6818 41.6221 29.8386 41.4573 30.1512 41.2549L30.1855 41.2328L30.2214 41.2523C30.4378 41.3717 30.8831 41.6318 31.1228 41.7719C31.1503 41.788 31.1751 41.8023 31.1961 41.8147L31.1972 41.8113L31.2758 41.8608C31.3056 41.8796 31.3449 41.892 31.3926 41.8984C31.4605 41.907 31.5284 41.9115 31.5956 41.9115C32.0081 41.9115 32.3039 41.7501 32.3108 41.6052C32.3127 41.5744 32.3035 41.5173 32.2257 41.4821L32.2192 41.4791C32.0257 41.395 31.3315 41.0736 30.8495 40.845L31.2487 40.8837L31.2804 40.8923C31.5262 40.9212 32.1135 41.2508 32.4436 41.446L32.4546 41.4528C32.5168 41.4847 32.5962 41.502 32.684 41.502C32.842 41.502 33.1053 41.4381 33.1301 41.3034C33.1354 41.2748 33.1385 41.1795 33.0305 41.1284L31.4849 40.5222L31.5208 40.4006L31.5185 40.396C32.1921 40.6843 33.327 41.0943 34.1383 41.3244L34.0605 41.389C33.9567 41.4727 33.6476 41.6731 32.9797 41.7722L32.9794 41.773C33.0889 41.8064 33.3442 41.83 33.6094 41.83C34.2925 41.83 34.8821 41.5676 35.0233 41.4997C35.0451 41.2726 35.1054 41.0016 35.1561 40.8172L35.1695 40.7692L35.5897 40.7583L35.503 40.869C35.4244 40.9704 35.3691 41.0954 35.3351 41.187C35.8633 40.9663 36.2697 40.681 36.2697 40.681C36.4491 40.4749 36.5223 40.2481 36.5594 40.11C36.5567 40.0999 36.5387 40.0781 36.5223 40.0574C36.1029 40.1066 34.9978 40.1783 34.6356 40.1258C34.6539 40.1119 34.7302 40.0713 34.7695 40.0477C35.1229 40.0398 35.8724 39.9996 36.654 39.7106C36.7498 39.6753 36.8482 39.6479 36.9467 39.6212C37.2951 39.527 37.6607 39.3772 38.1499 39.1013C38.1622 39.0946 38.1664 39.0792 38.1595 39.0672C38.1522 39.0551 38.137 39.051 38.1248 39.0578C37.4481 39.4395 37.023 39.5766 36.5345 39.6606C36.1308 39.7031 35.6217 39.4733 35.6217 39.4733C36.2216 39.551 37.1169 39.2128 37.8 38.8367C38.1561 38.688 38.5518 38.4793 38.8941 38.194C38.9048 38.185 38.9063 38.1692 38.8972 38.1587C38.888 38.1482 38.872 38.1471 38.8613 38.1557C38.5961 38.3768 38.2984 38.551 38.0122 38.6869C37.3386 38.8656 36.8555 38.765 36.8555 38.765C37.2715 38.7319 37.8111 38.4579 38.2427 38.1955C38.6545 37.9898 39.1517 37.7011 39.6383 37.3317C39.649 37.3234 39.6512 37.3077 39.6425 37.2968C39.6341 37.2859 39.618 37.2837 39.607 37.2923C39.2254 37.5821 38.8372 37.8216 38.4892 38.0104C38.0217 38.1095 37.5829 38.0104 37.5829 38.0104C38.2011 37.9736 38.7022 37.6639 39.1643 37.2814C39.4524 37.0997 39.7982 36.8516 40.1809 36.4995C40.1912 36.4901 40.1916 36.4743 40.1821 36.4642C40.1725 36.454 40.1565 36.4537 40.1462 36.463C39.8192 36.7641 39.5184 36.989 39.2586 37.1609C38.6773 37.3388 38.2652 37.2713 38.2652 37.2713C38.8479 37.2153 39.2853 36.8703 39.6096 36.5486C39.8665 36.3467 40.1599 36.0884 40.453 35.7734C40.4622 35.7633 40.4618 35.7475 40.4515 35.7385C40.4408 35.7292 40.4248 35.7299 40.4156 35.74C40.2042 35.9672 39.9924 36.1642 39.7947 36.3324C39.5295 36.4923 39.2128 36.4713 39.2128 36.4713C39.4906 36.3857 39.9134 36.0002 40.1947 35.6417C40.5076 35.32 40.8827 34.8811 41.2136 34.3653C41.2212 34.3537 41.2178 34.3383 41.2056 34.3308C41.1941 34.3237 41.1785 34.3271 41.1709 34.3387C40.864 34.8158 40.5198 35.2276 40.2229 35.54C40.0722 35.588 39.7799 35.6015 39.7799 35.6015C40.0458 35.4893 40.1993 35.1672 40.5114 34.7355C40.7438 34.4821 41.0377 34.1071 41.2869 33.6697C41.2937 33.6577 41.2892 33.6423 41.2769 33.6356C41.2647 33.6288 41.2495 33.633 41.2426 33.645C41.0533 33.9776 40.8388 34.2723 40.6454 34.505C40.4515 34.6773 40.2897 34.6829 40.2897 34.6829C40.4817 34.5016 40.6942 34.1521 40.8385 33.8713C41.0205 33.6405 41.1911 33.3507 41.3727 32.9347C41.3781 32.922 41.372 32.9073 41.3594 32.9021C41.3464 32.8964 41.3315 32.9024 41.3258 32.9152C41.1396 33.342 40.9652 33.6352 40.7778 33.8672C40.658 33.9839 40.4954 34.0376 40.4954 34.0376C40.8133 33.7373 40.9213 33.3244 41.0285 32.9595C41.1915 32.6483 41.3449 32.2504 41.4819 31.8724Z" fill="#040505"/>
<path d="M30.5264 18.5696C30.8393 18.5696 31.1519 18.5846 31.4633 18.615C31.7747 18.6451 32.0838 18.6901 32.391 18.7502C32.6978 18.8102 33.0012 18.8849 33.3008 18.9743C33.6004 19.0636 33.8946 19.1672 34.1839 19.2851C34.4731 19.403 34.7555 19.5344 35.0314 19.6796C35.3077 19.8249 35.5756 19.983 35.8359 20.1541C36.0962 20.3249 36.3473 20.5081 36.5896 20.7037C36.8312 20.8989 37.0628 21.1054 37.2842 21.3231C37.5055 21.5408 37.7154 21.7687 37.9142 22.0067C38.1127 22.2447 38.2989 22.4917 38.4729 22.7477C38.6469 23.0038 38.8076 23.2677 38.9549 23.5391C39.1026 23.8105 39.2361 24.0886 39.356 24.3732C39.4758 24.6577 39.5811 24.9472 39.672 25.2419C39.7628 25.5362 39.8387 25.8346 39.8998 26.1368C39.9608 26.4386 40.007 26.7427 40.0376 27.0494C40.0681 27.3557 40.0837 27.6628 40.0837 27.9706C40.0837 28.2784 40.0681 28.5859 40.0376 28.8922C40.007 29.1985 39.9608 29.5029 39.8998 29.8048C39.8387 30.1066 39.7628 30.405 39.672 30.6997C39.5811 30.9944 39.4758 31.2838 39.356 31.5684C39.2361 31.8529 39.1026 32.1307 38.9549 32.4025C38.8076 32.6739 38.6469 32.9378 38.4729 33.1934C38.2989 33.4498 38.1127 33.6965 37.9142 33.9348C37.7154 34.1725 37.5055 34.4007 37.2842 34.6184C37.0628 34.8362 36.8312 35.0426 36.5896 35.2378C36.3473 35.433 36.0962 35.6162 35.8359 35.7874C35.5756 35.9586 35.3077 36.1166 35.0314 36.2619C34.7555 36.4068 34.4731 36.5386 34.1839 36.6561C33.8946 36.7739 33.6004 36.8776 33.3008 36.9669C33.0012 37.0562 32.6978 37.1313 32.391 37.1914C32.0838 37.2511 31.7747 37.2965 31.4633 37.3265C31.1519 37.3566 30.8393 37.3719 30.5264 37.3719C30.2135 37.3719 29.9013 37.3566 29.5895 37.3265C29.2781 37.2965 28.969 37.2511 28.6618 37.1914C28.355 37.1313 28.052 37.0562 27.752 36.9669C27.4525 36.8776 27.1582 36.7739 26.869 36.6561C26.5801 36.5386 26.2973 36.4068 26.0214 36.2619C25.7455 36.1166 25.4772 35.9586 25.2169 35.7874C24.9567 35.6162 24.7056 35.433 24.4636 35.2378C24.2217 35.0426 23.99 34.8362 23.7687 34.6184C23.5473 34.4007 23.3374 34.1725 23.1386 33.9348C22.9402 33.6965 22.7539 33.4498 22.5799 33.1934C22.4063 32.9378 22.2452 32.6739 22.0979 32.4025C21.9502 32.1307 21.8167 31.8529 21.6969 31.5684C21.577 31.2838 21.4717 30.9944 21.3809 30.6997C21.29 30.405 21.2141 30.1066 21.153 29.8048C21.092 29.5029 21.0462 29.1985 21.0153 28.8922C20.9847 28.5859 20.9695 28.2784 20.9695 27.9706C20.9695 27.6628 20.9847 27.3557 21.0153 27.0494C21.0462 26.7427 21.092 26.4386 21.153 26.1368C21.2141 25.8346 21.29 25.5362 21.3809 25.2419C21.4717 24.9472 21.577 24.6577 21.6969 24.3732C21.8167 24.0886 21.9502 23.8105 22.0979 23.5391C22.2452 23.2677 22.4063 23.0038 22.5799 22.7477C22.7539 22.4917 22.9402 22.2447 23.1386 22.0067C23.3374 21.7687 23.5473 21.5408 23.7687 21.3231C23.99 21.1054 24.2217 20.8989 24.4636 20.7037C24.7056 20.5081 24.9567 20.3249 25.2169 20.1541C25.4772 19.983 25.7455 19.8249 26.0214 19.6796C26.2973 19.5344 26.5801 19.403 26.869 19.2851C27.1582 19.1672 27.4525 19.0636 27.752 18.9743C28.0516 18.8849 28.355 18.8102 28.6618 18.7502C28.969 18.6901 29.2781 18.6451 29.5895 18.615C29.9013 18.5846 30.2135 18.5696 30.5264 18.5696Z" fill="#00B3E3"/>
<path d="M30.5259 20.0096C30.7907 20.0096 31.0552 20.0223 31.3193 20.0479C31.583 20.0734 31.8448 20.1117 32.1047 20.1627C32.3649 20.2134 32.6218 20.2769 32.8752 20.3523C33.1289 20.4281 33.3781 20.5156 33.6231 20.6155C33.8677 20.7153 34.107 20.8268 34.341 20.9496C34.5745 21.0727 34.802 21.2063 35.0222 21.3512C35.2423 21.4961 35.4553 21.6512 35.6602 21.8167C35.8648 21.9819 36.0613 22.1568 36.2487 22.3415C36.4361 22.5258 36.6139 22.7188 36.7818 22.92C36.9501 23.1216 37.1077 23.3311 37.255 23.5477C37.4023 23.7646 37.5386 23.988 37.6633 24.2177C37.7881 24.4479 37.9015 24.6832 38.003 24.9239C38.1045 25.1649 38.1934 25.41 38.2705 25.6596C38.3476 25.9093 38.4117 26.1619 38.4636 26.4175C38.5151 26.6732 38.5541 26.9307 38.58 27.1901C38.606 27.4499 38.6189 27.71 38.6189 27.9705C38.6189 28.2314 38.606 28.4916 38.58 28.751C38.5541 29.0104 38.5151 29.2679 38.4636 29.5239C38.4117 29.7796 38.3476 30.0322 38.2705 30.2818C38.1934 30.5311 38.1045 30.7762 38.003 31.0172C37.9015 31.2582 37.7881 31.4936 37.6633 31.7234C37.5386 31.9535 37.4023 32.1768 37.255 32.3934C37.1077 32.6104 36.9501 32.8195 36.7818 33.0211C36.6139 33.2227 36.4361 33.4156 36.2487 33.5999C36.0613 33.7843 35.8648 33.9592 35.6602 34.1247C35.4553 34.2899 35.2423 34.4453 35.0222 34.5899C34.802 34.7348 34.5745 34.8688 34.341 34.9915C34.107 35.1147 33.8677 35.2258 33.6231 35.3256C33.3781 35.4255 33.1289 35.5133 32.8752 35.5888C32.6218 35.6646 32.3649 35.7281 32.1047 35.7787C31.8448 35.8294 31.583 35.8677 31.3193 35.8932C31.0552 35.9191 30.7907 35.9315 30.5259 35.9315C30.2611 35.9315 29.9962 35.9191 29.7325 35.8932C29.4688 35.8677 29.207 35.8294 28.9467 35.7787C28.6869 35.7281 28.43 35.6646 28.1766 35.5888C27.9229 35.5133 27.6737 35.4255 27.4287 35.3256C27.184 35.2258 26.9444 35.1147 26.7108 34.9915C26.4769 34.8688 26.2498 34.7348 26.0296 34.5899C25.8091 34.4453 25.5965 34.2899 25.3916 34.1247C25.1866 33.9592 24.9905 33.7843 24.8031 33.5999C24.6157 33.4156 24.4379 33.2227 24.2696 33.0211C24.1017 32.8195 23.9441 32.6104 23.7968 32.3934C23.6495 32.1768 23.5132 31.9535 23.3884 31.7234C23.2633 31.4936 23.1503 31.2582 23.0488 31.0172C22.9473 30.7762 22.8584 30.5311 22.7813 30.2818C22.7042 30.0322 22.6401 29.7796 22.5882 29.5239C22.5367 29.2679 22.4977 29.0104 22.4718 28.751C22.4458 28.4916 22.4329 28.2314 22.4329 27.9705C22.4329 27.71 22.4458 27.4499 22.4718 27.1901C22.4977 26.9307 22.5367 26.6732 22.5882 26.4175C22.6401 26.1619 22.7042 25.9093 22.7813 25.6596C22.8584 25.41 22.9473 25.1649 23.0488 24.9239C23.1503 24.6832 23.2633 24.4479 23.3884 24.2177C23.5132 23.988 23.6495 23.7646 23.7968 23.5477C23.9441 23.3311 24.1017 23.1216 24.2696 22.92C24.4379 22.7188 24.6157 22.5258 24.8031 22.3415C24.9905 22.1568 25.1866 21.9819 25.3916 21.8167C25.5965 21.6512 25.8091 21.4961 26.0296 21.3512C26.2498 21.2063 26.4769 21.0727 26.7108 20.9496C26.9444 20.8268 27.184 20.7153 27.4287 20.6155C27.6737 20.5156 27.9229 20.4281 28.1766 20.3523C28.43 20.2769 28.6869 20.2134 28.9467 20.1627C29.207 20.1117 29.4688 20.0734 29.7325 20.0479C29.9962 20.0223 30.2611 20.0096 30.5259 20.0096Z" fill="#F43040"/>
<path d="M30.5261 21.4498C30.9615 21.4498 31.3924 21.4914 31.8194 21.5752C32.2465 21.6585 32.6609 21.7824 33.0631 21.946C33.4654 22.1101 33.8474 22.3109 34.2091 22.5486C34.5709 22.7866 34.906 23.0568 35.2139 23.3598C35.5215 23.6627 35.7963 23.9919 36.0382 24.3478C36.2798 24.7041 36.484 25.0798 36.6507 25.4755C36.8171 25.8708 36.9431 26.2788 37.0282 26.6985C37.1129 27.1186 37.1552 27.5428 37.1552 27.9707C37.1552 28.3991 37.1129 28.8229 37.0282 29.2429C36.9431 29.663 36.8171 30.0707 36.6507 30.4664C36.484 30.8616 36.2798 31.2378 36.0382 31.5937C35.7963 31.9495 35.5215 32.2791 35.2139 32.5821C34.906 32.8846 34.5709 33.1549 34.2091 33.3929C33.8474 33.6305 33.4654 33.8318 33.0631 33.9954C32.6609 34.1595 32.2465 34.283 31.8194 34.3667C31.3924 34.45 30.9615 34.4917 30.5261 34.4917C30.0907 34.4917 29.6598 34.45 29.2328 34.3667C28.8058 34.283 28.3913 34.1595 27.9895 33.9954C27.5869 33.8318 27.2049 33.6305 26.8431 33.3929C26.4813 33.1549 26.1462 32.8846 25.8387 32.5821C25.5307 32.2791 25.2559 31.9495 25.014 31.5937C24.7724 31.2378 24.5682 30.8616 24.4015 30.4664C24.2351 30.0707 24.1092 29.663 24.0244 29.2429C23.9393 28.8229 23.897 28.3991 23.897 27.9707C23.897 27.5428 23.9393 27.1186 24.0244 26.6985C24.1092 26.2788 24.2351 25.8708 24.4015 25.4755C24.5682 25.0798 24.7724 24.7041 25.014 24.3478C25.2559 23.9919 25.5307 23.6627 25.8387 23.3598C26.1462 23.0568 26.4813 22.7866 26.8431 22.5486C27.2049 22.3109 27.5869 22.1101 27.9895 21.946C28.3913 21.7824 28.8058 21.6585 29.2328 21.5752C29.6598 21.4914 30.0907 21.4498 30.5261 21.4498Z" fill="#489D2F"/>
<path d="M21.8726 37.6682C21.8688 37.8187 22.2409 37.961 22.5587 37.9689C22.5992 37.7692 22.5992 37.6186 22.5587 37.4347C22.2832 37.4148 21.8764 37.5176 21.8726 37.6682Z" fill="#AB8A03"/>
<path d="M28.0024 40.6457C27.8658 40.7764 27.7822 41.0406 27.9108 41.1228C28.068 41.2231 28.3306 40.9374 28.3306 40.9374C28.247 40.791 28.0024 40.6457 28.0024 40.6457Z" fill="#B19530"/>
<path d="M30.3495 38.2859C30.3335 38.2937 30.5426 38.4225 30.6002 38.7461C30.7853 38.6391 31.0456 38.3512 30.9612 38.2187C30.8968 38.1169 30.575 38.1395 30.3495 38.2859Z" fill="#AB8A03"/>
<path d="M30.0429 38.4621C30.0084 38.4621 29.98 38.4897 29.98 38.524C29.98 38.5582 30.0084 38.5858 30.0429 38.5858C30.0777 38.5858 30.1057 38.5582 30.1057 38.524C30.1057 38.4897 30.0777 38.4621 30.0429 38.4621Z" fill="#AB8A03"/>
<path d="M30.2795 38.3338C30.2795 38.2995 30.2515 38.2719 30.2167 38.2719C30.1818 38.2719 30.1538 38.2995 30.1538 38.3338C30.1538 38.3681 30.1818 38.3956 30.2167 38.3956C30.2515 38.3956 30.2795 38.3681 30.2795 38.3338Z" fill="#AB8A03"/>
<path d="M30.2555 38.4858C30.2207 38.4858 30.1926 38.5134 30.1926 38.5477C30.1926 38.5819 30.2207 38.6095 30.2555 38.6095C30.2903 38.6095 30.3184 38.5819 30.3184 38.5477C30.3184 38.5134 30.2903 38.4858 30.2555 38.4858Z" fill="#AB8A03"/>
<path d="M30.4115 38.6413C30.3767 38.6413 30.3486 38.6689 30.3486 38.7032C30.3486 38.7374 30.3767 38.765 30.4115 38.765C30.446 38.765 30.4744 38.7374 30.4744 38.7032C30.4744 38.6689 30.446 38.6413 30.4115 38.6413Z" fill="#AB8A03"/>
<path d="M30.1962 38.6739C30.1617 38.6739 30.1333 38.7015 30.1333 38.7358C30.1333 38.77 30.1617 38.7976 30.1962 38.7976C30.231 38.7976 30.259 38.77 30.259 38.7358C30.259 38.7015 30.231 38.6739 30.1962 38.6739Z" fill="#AB8A03"/>
<path d="M28.2776 40.526C28.2776 40.4921 28.2496 40.4642 28.2147 40.4642C28.1799 40.4642 28.1519 40.4921 28.1519 40.526C28.1519 40.5603 28.1799 40.5879 28.2147 40.5879C28.2496 40.5879 28.2776 40.5603 28.2776 40.526Z" fill="#B19530"/>
<path d="M28.4186 40.4642C28.3841 40.4642 28.3557 40.4918 28.3557 40.526C28.3557 40.5603 28.3841 40.5879 28.4186 40.5879C28.4534 40.5879 28.4815 40.5603 28.4815 40.526C28.4815 40.4918 28.4534 40.4642 28.4186 40.4642Z" fill="#B19530"/>
<path d="M28.3942 40.6731C28.3593 40.6731 28.3313 40.7006 28.3313 40.7349C28.3313 40.7692 28.3593 40.7968 28.3942 40.7968C28.429 40.7968 28.457 40.7692 28.457 40.7349C28.457 40.7006 28.429 40.6731 28.3942 40.6731Z" fill="#B19530"/>
<path d="M23.9931 40.2378C23.8454 40.5257 23.8744 40.8703 23.979 40.9536C24.1057 41.0539 24.4972 40.615 24.5457 40.49C24.3404 40.2614 23.9931 40.2378 23.9931 40.2378Z" fill="#AB8A03"/>
<path d="M24.2185 40.1051C24.2185 40.1391 24.2465 40.167 24.2814 40.167C24.3162 40.167 24.3442 40.1391 24.3442 40.1051C24.3442 40.0709 24.3162 40.0433 24.2814 40.0433C24.2465 40.0433 24.2185 40.0709 24.2185 40.1051Z" fill="#AB8A03"/>
<path d="M24.4102 40.0514C24.4102 40.0857 24.4382 40.1133 24.473 40.1133C24.5079 40.1133 24.5359 40.0857 24.5359 40.0514C24.5359 40.0172 24.5079 39.9896 24.473 39.9896C24.4382 39.9896 24.4102 40.0172 24.4102 40.0514Z" fill="#AB8A03"/>
<path d="M24.5309 40.19C24.496 40.19 24.468 40.2176 24.468 40.2519C24.468 40.2862 24.496 40.3137 24.5309 40.3137C24.5657 40.3137 24.5938 40.2862 24.5938 40.2519C24.5938 40.2176 24.5657 40.19 24.5309 40.19Z" fill="#AB8A03"/>
<path d="M24.7252 40.2032C24.6904 40.2032 24.6624 40.2308 24.6624 40.2651C24.6624 40.2993 24.6904 40.3269 24.7252 40.3269C24.7601 40.3269 24.7881 40.2993 24.7881 40.2651C24.7881 40.2308 24.7601 40.2032 24.7252 40.2032Z" fill="#AB8A03"/>
<path d="M24.7241 40.0038C24.7241 39.9699 24.6961 39.942 24.6613 39.942C24.6264 39.942 24.5984 39.9699 24.5984 40.0038C24.5984 40.0377 24.6264 40.0657 24.6613 40.0657C24.6961 40.0657 24.7241 40.0377 24.7241 40.0038Z" fill="#AB8A03"/>
<path d="M24.3873 39.7934C24.3525 39.7934 24.3245 39.821 24.3245 39.8553C24.3245 39.8895 24.3525 39.9171 24.3873 39.9171C24.4222 39.9171 24.4502 39.8895 24.4502 39.8553C24.4502 39.821 24.4222 39.7934 24.3873 39.7934Z" fill="#AB8A03"/>
<path d="M22.712 37.9605C22.6772 37.9605 22.6492 37.9881 22.6492 38.0224C22.6492 38.0567 22.6772 38.0842 22.712 38.0842C22.7469 38.0842 22.7749 38.0567 22.7749 38.0224C22.7749 37.9881 22.7469 37.9605 22.712 37.9605Z" fill="#AB8A03"/>
<path d="M22.8903 37.8563C22.8554 37.8563 22.8274 37.8839 22.8274 37.9181C22.8274 37.9524 22.8554 37.98 22.8903 37.98C22.9247 37.98 22.9531 37.9524 22.9531 37.9181C22.9531 37.8839 22.9247 37.8563 22.8903 37.8563Z" fill="#AB8A03"/>
<path d="M23.0714 37.7402C23.0366 37.7402 23.0085 37.7678 23.0085 37.802C23.0085 37.8363 23.0366 37.8639 23.0714 37.8639C23.1063 37.8639 23.1343 37.8363 23.1343 37.802C23.1343 37.7678 23.1063 37.7402 23.0714 37.7402Z" fill="#AB8A03"/>
<path d="M22.7362 37.7138C22.7014 37.7138 22.6733 37.7414 22.6733 37.7757C22.6733 37.81 22.7014 37.8375 22.7362 37.8375C22.7711 37.8375 22.7991 37.81 22.7991 37.7757C22.7991 37.7414 22.7711 37.7138 22.7362 37.7138Z" fill="#AB8A03"/>
<path d="M22.9222 37.586C22.8878 37.586 22.8594 37.6136 22.8594 37.6479C22.8594 37.6821 22.8878 37.7097 22.9222 37.7097C22.9571 37.7097 22.9851 37.6821 22.9851 37.6479C22.9851 37.6136 22.9571 37.586 22.9222 37.586Z" fill="#AB8A03"/>
<path d="M22.755 37.4331C22.7202 37.4331 22.6921 37.4606 22.6921 37.4949C22.6921 37.5292 22.7202 37.5568 22.755 37.5568C22.7899 37.5568 22.8179 37.5292 22.8179 37.4949C22.8179 37.4606 22.7899 37.4331 22.755 37.4331Z" fill="#AB8A03"/>
<path d="M20.0469 32.624C19.8305 32.4461 19.4253 32.4491 19.3737 32.5298C19.3127 32.6259 19.5367 32.8853 19.7451 33.0339C19.887 32.9119 19.9958 32.722 20.0469 32.624Z" fill="#AB8A03"/>
<path d="M19.8522 33.1021C19.8173 33.1021 19.7893 33.1297 19.7893 33.164C19.7893 33.1983 19.8173 33.2258 19.8522 33.2258C19.8866 33.2258 19.915 33.1983 19.915 33.164C19.915 33.1297 19.8866 33.1021 19.8522 33.1021Z" fill="#AB8A03"/>
<path d="M20.0472 33.1021C20.0128 33.1021 19.9844 33.1297 19.9844 33.164C19.9844 33.1983 20.0128 33.2258 20.0472 33.2258C20.0821 33.2258 20.1101 33.1983 20.1101 33.164C20.1101 33.1297 20.0821 33.1021 20.0472 33.1021Z" fill="#AB8A03"/>
<path d="M20.0333 33.0116C20.0682 33.0116 20.0962 32.984 20.0962 32.9498C20.0962 32.9155 20.0682 32.8879 20.0333 32.8879C19.9985 32.8879 19.9705 32.9155 19.9705 32.9498C19.9705 32.984 19.9985 33.0116 20.0333 33.0116Z" fill="#AB8A03"/>
<path d="M20.2599 32.8954C20.225 32.8954 20.197 32.9229 20.197 32.9572C20.197 32.9915 20.225 33.019 20.2599 33.019C20.2944 33.019 20.3228 32.9915 20.3228 32.9572C20.3228 32.9229 20.2944 32.8954 20.2599 32.8954Z" fill="#AB8A03"/>
<path d="M20.259 32.724C20.259 32.6898 20.231 32.6622 20.1962 32.6622C20.1613 32.6622 20.1333 32.6898 20.1333 32.724C20.1333 32.7583 20.1613 32.7859 20.1962 32.7859C20.231 32.7859 20.259 32.7583 20.259 32.724Z" fill="#AB8A03"/>
<path d="M38.6698 24.281C38.774 24.281 38.8633 24.3174 38.9369 24.3899C39.0106 24.4623 39.0476 24.5502 39.0476 24.6527C39.0476 24.7551 39.0106 24.843 38.9369 24.9154C38.8633 24.9879 38.774 25.0243 38.6698 25.0243C38.5656 25.0243 38.4763 24.9879 38.4027 24.9154C38.329 24.843 38.292 24.7551 38.292 24.6527C38.292 24.5502 38.329 24.4623 38.4027 24.3899C38.4763 24.3174 38.5656 24.281 38.6698 24.281Z" fill="#AB8A03"/>
<path d="M34.0437 20.3033C34.2364 20.2248 34.328 20.0075 34.2482 19.8179C34.1685 19.6283 33.9471 19.5382 33.7544 19.6167C33.5617 19.6951 33.4701 19.9125 33.5503 20.1021C33.63 20.292 33.851 20.3817 34.0437 20.3033Z" fill="#AB8A03"/>
<path d="M27.2969 20.3033C27.4896 20.2248 27.5812 20.0075 27.5014 19.8179C27.4217 19.6283 27.2007 19.5382 27.0076 19.6167C26.8149 19.6951 26.7233 19.9125 26.8034 20.1021C26.8832 20.292 27.1041 20.3817 27.2969 20.3033Z" fill="#AB8A03"/>
<path d="M22.3827 24.281C22.4869 24.281 22.5762 24.3174 22.6498 24.3899C22.7235 24.4623 22.7605 24.5502 22.7605 24.6527C22.7605 24.7551 22.7235 24.843 22.6498 24.9154C22.5762 24.9879 22.4869 25.0243 22.3827 25.0243C22.2785 25.0243 22.1892 24.9879 22.1156 24.9154C22.0419 24.843 22.0049 24.7551 22.0049 24.6527C22.0049 24.5502 22.0419 24.4623 22.1156 24.3899C22.1892 24.3174 22.2785 24.281 22.3827 24.281Z" fill="#AB8A03"/>
<path d="M22.3827 30.9172C22.4869 30.9172 22.5762 30.9537 22.6498 31.0261C22.7235 31.0986 22.7605 31.1864 22.7605 31.2889C22.7605 31.3914 22.7235 31.4792 22.6498 31.5517C22.5762 31.6241 22.4869 31.6605 22.3827 31.6605C22.2785 31.6605 22.1892 31.6241 22.1156 31.5517C22.0419 31.4792 22.0049 31.3914 22.0049 31.2889C22.0049 31.1864 22.0419 31.0986 22.1156 31.0261C22.1892 30.9537 22.2785 30.9172 22.3827 30.9172Z" fill="#AB8A03"/>
<path d="M27.0078 35.6379C26.815 35.7164 26.7235 35.9341 26.8032 36.1233C26.8834 36.3133 27.1043 36.403 27.297 36.3245C27.4898 36.2461 27.5813 36.0287 27.5012 35.8391C27.4214 35.6492 27.2005 35.5595 27.0078 35.6379Z" fill="#AB8A03"/>
<path d="M33.7546 35.6379C33.5619 35.7164 33.4703 35.9341 33.55 36.1233C33.6302 36.3133 33.8511 36.403 34.0439 36.3245C34.2366 36.2461 34.3282 36.0287 34.2484 35.8391C34.1683 35.6492 33.9473 35.5595 33.7546 35.6379Z" fill="#AB8A03"/>
<path d="M38.6698 30.9172C38.774 30.9172 38.8633 30.9537 38.9369 31.0261C39.0106 31.0986 39.0476 31.1864 39.0476 31.2889C39.0476 31.3914 39.0106 31.4792 38.9369 31.5517C38.8633 31.6241 38.774 31.6605 38.6698 31.6605C38.5656 31.6605 38.4763 31.6241 38.4027 31.5517C38.329 31.4792 38.292 31.3914 38.292 31.2889C38.292 31.1864 38.329 31.0986 38.4027 31.0261C38.4763 30.9537 38.5656 30.9172 38.6698 30.9172Z" fill="#AB8A03"/>
<path d="M40.072 27.918L35.2823 25.9972L37.235 21.2856L32.4678 23.259L30.462 18.5696L28.5093 23.2808L23.7196 21.3599L25.7254 26.0497L20.9578 28.0228L25.7475 29.9437L23.7947 34.6549L28.5623 32.6818L30.5685 37.3716L32.5213 32.66L37.3106 34.5813L35.3044 29.8911L40.072 27.918Z" fill="#AB8A03"/>
<path d="M32.329 32.211L36.6596 33.9479L34.8458 29.7071L39.1569 27.9229L34.8259 26.1859L36.5917 21.9256L32.2805 23.7098L30.4667 19.4694L28.7013 23.7297L24.3699 21.9924L26.1837 26.2336L21.8726 28.0178L26.204 29.7544L24.4382 34.0151L28.749 32.2309L30.5632 36.4713L32.329 32.211Z" fill="white"/>
<path d="M30.997 29.7021C30.997 27.9705 30.2723 27.5256 30.2723 25.8142C30.2723 25.1618 30.4776 24.2777 30.6654 23.8584C30.515 25.5923 32.0033 26.693 32.0033 29.005C32.0033 30.4683 31.4217 31.3118 30.9871 31.3118C30.7123 31.3118 30.7241 31.1335 30.5825 31.1335C30.4406 31.1335 30.3135 31.3441 30.0208 31.3441C29.7281 31.3441 28.7794 30.882 28.6264 28.8312C28.4611 29.2509 28.5981 29.8448 28.6866 30.1613C28.099 29.1203 28.1272 27.8729 28.9885 26.5901C28.8237 27.9243 28.9282 28.9934 29.3427 29.9672C29.4297 30.1721 29.5842 30.284 29.725 30.1733C29.8659 30.0625 29.725 29.8527 29.6205 29.6188C29.5159 29.3853 28.3565 26.8833 30.0952 24.8243C29.8941 26.6258 30.6306 27.7542 30.6306 28.5974C30.6306 29.4409 30.1143 30.5723 30.6127 30.5723C30.9264 30.5723 30.997 29.9844 30.997 29.7021Z" fill="#F43040"/>
<path d="M31.618 30.9553C32.5538 30.3033 33.0155 29.1835 33.0155 28.2829C33.0155 26.8335 31.5302 25.6578 31.283 24.8203C31.283 26.1567 32.2126 27.0013 32.2126 28.8009C32.2126 30.4639 31.618 30.9553 31.618 30.9553Z" fill="#F43040"/>
<path d="M39.2159 35.4075C39.0728 35.5738 38.9003 35.7439 38.7652 35.8715C38.4576 36.081 38.0542 36.0753 37.8306 36.2368C37.4707 36.4965 37.6986 36.6411 37.9569 36.5817C38.1401 36.5393 38.3382 36.3952 38.7198 35.9601C38.8568 35.8332 39.059 35.6384 39.2258 35.4473C39.2685 35.5674 39.4094 35.638 39.5632 35.5997C39.8265 35.5344 39.9566 35.4496 40.4497 34.7187C40.2623 34.8196 39.6158 34.8407 39.3517 35.0978C39.2373 35.2093 39.2018 35.3185 39.2159 35.4075Z" fill="#FBC700"/>
<path d="M38.0308 37.3521C37.9323 37.3435 37.8415 37.3359 37.7541 37.3367C37.5572 37.4467 37.3954 37.5263 37.2568 37.5822C37.2404 37.6295 37.2397 37.6787 37.2527 37.7249C37.4885 37.6389 37.7701 37.5154 38.0308 37.3521Z" fill="#FBC700"/>
<path d="M39.1529 35.783C39.054 35.8093 38.9727 35.8394 38.9262 35.8728C38.7777 35.9801 38.714 36.0871 38.7075 36.1787C38.8571 36.0601 39.0182 35.9219 39.1529 35.783Z" fill="#FBC700"/>
<path d="M38.8219 34.9565C38.8833 34.8863 38.9169 34.7823 38.9356 34.6599C38.8276 34.7785 38.6948 34.9321 38.5742 35.0743C38.6467 35.092 38.7387 35.0514 38.8219 34.9565Z" fill="#F9D907"/>
<path d="M35.8087 38.9119C36.0083 38.868 36.2041 38.8056 36.4365 38.7185C36.3583 38.6803 36.2915 38.6397 36.2259 38.6037C35.753 38.7865 35.4844 38.7876 35.2829 38.7876C35.2573 38.7876 35.234 38.7869 35.2115 38.7854C35.21 38.7872 35.2081 38.7891 35.2065 38.791C35.3832 38.8496 35.5973 38.9355 35.8087 38.9119Z" fill="#FBC700"/>
<path d="M27.5521 40.466C27.369 40.466 27.1999 40.3373 27.0782 40.2307C27.0782 40.2307 26.9725 40.1297 26.8916 40.195C26.8294 40.2453 26.869 40.3812 26.9122 40.4563C26.9473 40.5175 27.0164 40.6079 27.0389 40.6973C27.1068 40.7953 27.2659 40.936 27.38 40.9165C27.5853 40.8816 27.7155 40.7814 27.6636 40.4311C27.6201 40.4694 27.5521 40.466 27.5521 40.466Z" fill="#035745"/>
<path d="M21.8164 33.9583C22.0538 34.1366 22.066 34.2432 22.0137 34.3344C21.9614 34.4256 21.8618 34.6629 22.079 34.7661C22.258 34.851 22.4259 34.5176 22.4797 34.3059C22.2732 34.0529 22.0786 33.7894 21.8969 33.5172C21.7515 33.5566 21.6115 33.8044 21.8164 33.9583Z" fill="#035745"/>
<path d="M23.7314 35.9751C23.7558 36.0348 23.7813 36.0663 23.7936 36.0663L23.7947 36.0659C23.8497 35.8985 23.8111 35.7018 23.6401 35.546C23.5447 35.4589 23.4283 35.4878 23.3467 35.5077C23.5783 35.6038 23.6898 35.8737 23.7314 35.9751Z" fill="#035745"/>
<path d="M29.2173 40.1739C29.1784 39.7295 28.7056 40.1627 28.7056 40.1627C28.8429 40.2805 29.091 40.5088 29.2791 40.6289C29.3223 40.6079 29.32 40.609 29.3635 40.5884C29.362 40.585 29.3295 40.5291 29.3276 40.5257C29.2589 40.4074 29.2269 40.2847 29.2173 40.1739Z" fill="#035745"/>
<path d="M21.3801 33.2418C21.1794 32.696 20.9065 32.4595 20.5932 32.1881L20.5516 32.1521C20.5409 32.143 20.5401 32.1269 20.5493 32.1168C20.5585 32.1063 20.5745 32.1055 20.5852 32.1145L20.6268 32.1506C20.8599 32.3525 21.084 32.5466 21.2687 32.8758C21.0294 32.2012 20.7256 31.711 20.3657 31.1651C20.3581 31.1535 20.3615 31.1381 20.3734 31.1302C20.3852 31.1227 20.4009 31.1261 20.4085 31.1377C20.8378 31.7891 21.1874 32.3627 21.4446 33.261C21.6526 33.559 21.4763 32.83 21.4763 32.83L21.4751 32.8274C21.174 32.2861 20.9221 31.7151 20.7245 31.1197L20.7214 31.1126C20.6092 30.8096 20.1975 30.2574 19.9383 30.593C19.7662 30.8157 19.7597 30.9906 20.1448 31.4182C20.2383 31.5221 20.2394 31.7346 20.0688 31.8089C19.6685 31.9828 19.7662 32.2174 19.9353 32.3364C20.0498 32.4167 20.5211 32.7313 20.4974 32.9903C20.4741 33.252 20.1734 33.2857 20.1829 33.6101C20.1891 33.815 20.3967 34.3147 20.9065 34.3147C21.3057 34.3151 21.5709 33.8105 21.3801 33.2418Z" fill="#035745"/>
<path d="M22.7361 37.0849C22.7399 36.9434 22.851 36.8481 22.9735 36.7546C23.0154 36.723 23.0246 36.7028 23.0246 36.6975C23.025 36.6844 23.0116 36.6307 22.8303 36.4869C22.7506 36.4235 22.6891 36.3499 22.646 36.2711C22.527 36.1697 22.4048 36.0548 22.2812 35.9268C22.2056 35.9377 22.1301 35.9441 22.0484 35.9441C21.8851 35.9441 21.6973 35.9216 21.4336 35.8735C21.4199 35.8709 21.4107 35.8578 21.4134 35.8442C21.4157 35.8307 21.4294 35.8217 21.4428 35.824C21.8114 35.8915 22.0282 35.9077 22.2385 35.8825C21.9137 35.5402 21.587 35.1205 21.3123 34.6862C21.3046 34.6741 21.3081 34.6588 21.3203 34.6516C21.3321 34.6441 21.3478 34.6479 21.3554 34.6595C21.6244 35.0852 21.9438 35.4963 22.2614 35.8334C22.243 35.5443 22.2507 35.3014 22.2865 35.0143C22.2884 35.0004 22.301 34.9906 22.3148 34.9925C22.3289 34.994 22.3388 35.0067 22.3369 35.0203C22.2988 35.3243 22.293 35.577 22.3159 35.8904C22.4121 35.9899 22.5075 36.0819 22.6014 36.1656C22.5823 36.1036 22.5739 36.0402 22.5789 35.9768C22.5922 35.8078 22.6899 35.6592 22.8475 35.5691C22.9593 35.5049 23.0681 35.4726 23.17 35.4726C23.1967 35.4726 23.2215 35.4752 23.2459 35.4794C23.2475 35.3735 23.2364 35.1896 23.1872 35.0469C23.0532 34.9523 22.9937 34.8401 22.8594 34.7027C22.7968 34.6636 22.493 34.673 22.401 34.7695C22.2919 34.8844 22.016 35.0353 21.8752 34.7335C21.7133 34.3877 21.5683 34.1981 21.2211 34.3971C20.8738 34.5961 21.052 34.9561 21.2191 35.1122C21.392 35.274 21.6176 35.4538 21.3184 35.6231C21.0753 35.7609 20.9131 35.7774 20.9131 35.9614C20.9131 36.0984 20.9745 36.2936 21.5359 36.2943C21.7561 36.2943 22.024 36.3266 22.0099 36.5376C21.9915 36.8079 21.608 36.7696 21.6053 36.9396C21.6023 37.1195 21.7954 37.2918 22.2663 37.3244C22.4579 37.3379 22.6235 37.2711 22.7536 37.1874C22.7418 37.1555 22.7349 37.1213 22.7361 37.0849Z" fill="#035745"/>
<path d="M23.6314 35.9815C23.5288 35.7322 23.2781 35.3993 22.8903 35.6493C22.6144 35.8272 22.6007 36.1827 22.8903 36.4132C23.1319 36.6054 23.2014 36.6902 23.0083 36.837C22.8152 36.9834 22.748 37.1249 22.9857 37.3265C23.2231 37.5285 23.3811 37.6708 23.2773 37.8108C23.104 38.0447 22.6373 38.1513 22.9151 38.4208C23.0705 38.5717 23.1922 38.658 23.2926 38.7095C23.2929 38.6952 23.2929 38.6798 23.2926 38.661C23.2888 38.4955 23.3468 38.4016 23.3964 38.3517C23.4521 38.2958 23.5273 38.2646 23.6078 38.2646C23.6692 38.2646 23.7303 38.2823 23.7841 38.3157C23.8585 38.3619 23.9367 38.3863 24.0115 38.3863C24.0688 38.3863 24.1253 38.3716 24.1798 38.3435C24.2104 38.3277 24.2439 38.2924 24.2668 38.226H24.2661C24.152 38.2196 23.8394 38.1043 23.6463 38.0094C23.6337 38.0034 23.6284 37.9883 23.6349 37.976C23.641 37.9636 23.6566 37.9587 23.6688 37.9647C23.8539 38.0555 24.1627 38.1704 24.2688 38.176C24.273 38.176 24.2768 38.1775 24.2802 38.1798C24.2806 38.1783 24.281 38.1768 24.2813 38.1753C24.2955 38.1096 24.3039 38.0368 24.3359 37.9617C24.3348 37.9602 24.3329 37.9591 24.3321 37.9572C24.2268 37.703 24.0966 37.4575 23.957 37.2278C23.8749 37.1809 23.7146 37.1531 23.5292 37.1212C23.4009 37.0994 23.2559 37.0746 23.1182 37.0393C23.1044 37.036 23.096 37.0221 23.0998 37.0089C23.1033 36.9954 23.117 36.9875 23.1308 36.9909C23.2666 37.0255 23.4109 37.0502 23.538 37.072C23.6849 37.0972 23.8165 37.1201 23.9108 37.1527C23.6017 36.6583 23.2563 36.2424 23.0361 35.9777C23.0273 35.9672 23.0289 35.9515 23.0399 35.9428C23.0506 35.9338 23.0666 35.9353 23.0754 35.9462C23.2968 36.212 23.6437 36.6302 23.9547 37.1279C23.9604 36.7631 24.0047 36.4308 24.0638 36.3186C24.0703 36.3062 24.0856 36.3017 24.0982 36.3081C24.1104 36.3145 24.1153 36.3295 24.1089 36.3415C24.0585 36.4372 24.0051 36.7736 24.0047 37.209C24.1379 37.4286 24.2619 37.6629 24.3645 37.905C24.3993 37.8472 24.4519 37.7879 24.5351 37.7297C24.5725 37.7038 24.6149 37.6869 24.6607 37.6775V37.2845C24.6607 37.2706 24.6721 37.2593 24.6859 37.2593C24.7 37.2593 24.7114 37.2706 24.7114 37.2845V37.6704C24.7214 37.6696 24.7305 37.6685 24.7408 37.6685C25.0164 37.6685 25.3629 37.9392 25.5663 38.1963C25.6208 38.1809 25.6796 38.1794 25.7273 38.1787C25.8723 38.1768 25.9055 38.1644 25.9261 38.1047C25.9536 38.0255 25.9265 37.9898 25.6151 37.8502C25.5747 37.8322 25.5327 37.813 25.4892 37.7928C25.2884 37.6989 25.2198 37.5668 25.1976 37.4726C25.1598 37.3104 25.2266 37.1595 25.2938 37.0574C25.2079 36.861 25.066 36.7131 24.7706 36.7706C24.6336 36.7972 24.4485 36.8486 24.3882 36.5521C24.3279 36.2551 24.2352 35.9796 24.0138 36.1125C23.8486 36.2112 23.7341 36.2307 23.6314 35.9815Z" fill="#035745"/>
<path d="M28.2038 38.6656L28.2042 38.6641C28.2484 38.4245 28.1763 37.8104 27.6749 37.9966C27.2753 38.1453 27.2154 38.1156 27.1883 37.8581C27.1616 37.6009 26.8548 37.4733 26.604 37.4763C26.3537 37.4793 26.3625 37.5416 26.269 37.396C26.1755 37.2503 25.5931 36.9545 25.5931 36.9545C25.4783 36.9755 25.418 37.0487 25.418 37.0487C25.2771 37.2229 25.1661 37.5386 25.4962 37.6929C25.8263 37.8472 26.082 37.8502 26.0156 38.101C25.9347 38.4058 25.584 38.1591 25.5023 38.3878C25.4527 38.527 25.6645 38.9129 26.0308 38.7827C26.3526 38.6682 26.7952 38.6412 26.817 38.8927C26.8517 39.2906 26.0549 39.2579 26.459 39.7189C26.6514 39.9378 27.096 39.8938 27.407 39.8507C27.5451 39.8319 27.6733 39.7332 27.7638 39.6149C27.7417 39.497 27.7123 39.3897 27.6756 39.2917C27.3692 39.199 27.1852 39.1896 27.0231 39.259C27.0101 39.2647 26.9952 39.2587 26.9895 39.2459C26.9838 39.2335 26.9899 39.2185 27.0025 39.2129C27.1936 39.1314 27.4016 39.1599 27.6508 39.232C27.4722 38.8048 27.1627 38.5563 26.8437 38.3341C26.7555 38.351 26.4926 38.3968 26.2594 38.3968C26.2259 38.3968 26.1934 38.396 26.1617 38.3938C26.1476 38.393 26.1369 38.381 26.1381 38.3675C26.1392 38.3536 26.1518 38.3427 26.1652 38.3438C26.3762 38.3585 26.6525 38.3168 26.7857 38.2935C26.7624 38.2778 26.7395 38.262 26.7162 38.2462C26.3625 38.0045 25.9965 37.7541 25.808 37.2935C25.8026 37.2807 25.8087 37.2661 25.8217 37.2608C25.8351 37.2556 25.85 37.262 25.8549 37.2747C26.0381 37.7218 26.3816 37.9568 26.7452 38.2053C26.7777 38.2275 26.8101 38.2496 26.8426 38.2721C26.8334 38.0094 26.7742 37.7755 26.7212 37.6846C26.7139 37.6726 26.7181 37.6572 26.7304 37.6505C26.7426 37.6437 26.7582 37.6479 26.7651 37.6595C26.825 37.762 26.8891 38.0161 26.8945 38.3033C26.8945 38.3048 26.8937 38.3055 26.8933 38.3074C27.1902 38.5154 27.4776 38.7489 27.6604 39.1277C27.6535 39.0665 27.6428 38.9936 27.6314 38.9152C27.605 38.735 27.5749 38.5312 27.5749 38.372C27.5749 38.3581 27.5863 38.3468 27.6005 38.3468C27.6146 38.3468 27.6256 38.3581 27.6256 38.372C27.6256 38.5274 27.6554 38.7297 27.6817 38.9081C27.7039 39.0601 27.723 39.1919 27.7184 39.2613C27.7531 39.3514 27.7817 39.4497 27.8042 39.5564C27.8222 39.5282 27.8382 39.5001 27.8508 39.4715C27.9244 39.309 28.0069 39.1295 28.0805 38.9835C28.1317 38.8818 28.1832 38.7774 28.2038 38.6656Z" fill="#035745"/>
<path d="M27.5912 39.8993C27.4554 39.9691 27.1837 39.9856 27.0169 39.9856C26.7505 39.9856 26.5559 39.9233 26.4219 39.7949C26.4143 39.7874 26.4074 39.7803 26.4002 39.7732C26.338 39.8329 26.2804 39.8986 26.2273 39.9684C26.2342 40.2634 26.2975 40.5172 26.4059 40.6835C26.4135 40.6951 26.4105 40.7105 26.3987 40.718C26.3941 40.7207 26.3895 40.7222 26.3849 40.7222C26.3765 40.7222 26.3681 40.718 26.3636 40.7105C26.2563 40.5469 26.1934 40.3137 26.1788 40.0341C25.8755 40.4703 25.7324 41.0454 25.7137 41.3675C25.7129 41.381 25.7018 41.3911 25.6885 41.3911H25.6869C25.6728 41.3904 25.6621 41.3784 25.6629 41.3648C25.6812 41.0491 25.8171 40.4958 26.1029 40.0574C25.9732 40.1467 25.761 40.2965 25.6327 40.4072C25.6224 40.4162 25.606 40.4151 25.5969 40.4046C25.5877 40.3945 25.5889 40.3787 25.5992 40.3693C25.79 40.2049 26.1613 39.9564 26.185 39.941C26.2407 39.8674 26.301 39.7983 26.3662 39.736C26.2914 39.6474 26.2578 39.5622 26.2659 39.4762C26.2804 39.3227 26.4174 39.233 26.538 39.1542C26.5773 39.1283 26.6124 39.1046 26.6418 39.0821C26.6036 39.0389 26.5731 39.004 26.5536 38.9837C26.4677 38.8925 26.3094 38.8366 26.1426 38.846C26.1289 38.8501 26.1144 38.8538 26.1006 38.8587C26.0464 38.8782 25.9922 38.8895 25.9392 38.8933C25.7797 38.9736 25.8392 39.141 25.9541 39.2093C26.0789 39.2837 26.1392 39.4699 25.9621 39.5847C25.785 39.6992 25.632 39.7548 25.3141 39.8103C24.9962 39.8655 24.8653 39.9883 24.8562 40.1426C24.8363 40.4808 25.2546 40.3535 25.3725 40.4812C25.49 40.6088 25.5114 40.8138 25.324 40.9891C25.137 41.1644 25.134 41.4583 25.3362 41.6216C25.5385 41.7849 25.9247 41.6899 25.9823 41.4166C26.0396 41.1434 25.9609 40.9771 26.1636 40.9061C26.3655 40.8344 26.5876 41.179 26.8692 41.0011C27.1505 40.8228 26.7761 40.5495 26.7643 40.3122C26.752 40.0746 26.9845 40.0161 27.1295 40.1426C27.2741 40.2694 27.4874 40.4669 27.6527 40.3288C27.7855 40.2173 27.7572 40.0311 27.5912 39.8993Z" fill="#035745"/>
<path d="M30.9333 40.6368C31.1176 40.419 31.0966 40.0279 30.6658 39.8218C30.2811 39.6382 31.0138 39.3785 30.752 39.1014C30.4906 38.8244 30.3376 38.9588 29.8827 38.9314C29.4278 38.9036 29.7419 38.5552 29.4763 38.2384C29.348 38.0856 29.1553 38.0987 28.9435 38.1986C28.705 38.3431 28.252 38.8574 28.0185 39.3259C28.1471 39.2989 28.2658 39.2745 28.3764 39.2538C28.7008 39.1014 29.0801 38.8413 29.2603 38.6472C29.2698 38.637 29.2858 38.6363 29.2961 38.6453C29.3064 38.6547 29.3072 38.6705 29.2977 38.681C29.1404 38.8499 28.8363 39.0676 28.5459 39.2242C28.9225 39.1637 29.2007 39.1622 29.4652 39.2681C29.6823 39.3278 30.2712 39.4115 30.5055 39.312C30.5185 39.3067 30.5334 39.3124 30.5391 39.3251C30.5444 39.3379 30.5387 39.3525 30.5257 39.3578C30.3269 39.4423 29.9109 39.4025 29.6434 39.3563C29.906 39.5136 30.175 39.7895 30.5356 40.234C30.5444 40.2449 30.5425 40.2606 30.5314 40.2693C30.5269 40.2726 30.5211 40.2745 30.5158 40.2745C30.5082 40.2745 30.5009 40.2715 30.496 40.2651C30.1399 39.8267 29.8754 39.5556 29.6163 39.4021C29.8163 39.6022 29.8094 39.7587 29.7995 39.9611C29.7987 39.9746 29.7877 39.9851 29.7743 39.9851H29.7728C29.759 39.9843 29.748 39.9727 29.7487 39.9588C29.7602 39.7219 29.7674 39.5646 29.4377 39.3146C29.1626 39.2069 28.871 39.2174 28.4642 39.2887C28.6004 39.3582 28.7077 39.4524 28.7813 39.5714C28.789 39.5834 28.7848 39.5984 28.7729 39.6059C28.7687 39.6082 28.7642 39.6093 28.76 39.6093C28.7512 39.6093 28.7428 39.6052 28.7382 39.5977C28.6585 39.4693 28.5379 39.3706 28.3803 39.3041C28.2608 39.3263 28.1322 39.3529 27.991 39.383C27.9257 39.5241 27.8819 39.6592 27.8723 39.7771C27.8883 39.8995 27.9414 40.0095 28.0513 40.0913C28.5627 40.4712 28.6073 39.9385 29.0343 39.8901C29.3847 39.8507 29.2366 40.1961 29.4026 40.481C29.569 40.7663 29.769 40.5377 29.898 40.4427C30.0266 40.3477 30.1002 40.2873 30.2361 40.5455C30.396 40.8496 30.7864 40.8102 30.9333 40.6368Z" fill="#035745"/>
<path d="M25.3545 39.7032C25.648 39.6522 25.901 39.5606 25.901 39.3976C25.9006 39.2873 25.7133 39.2272 25.7621 39.0174C25.7698 38.9836 25.7526 38.9303 25.7396 38.8942C25.7346 38.8961 25.7293 38.8976 25.7236 38.8961C25.54 38.8575 25.3782 38.8398 25.2313 38.8364C24.9634 39.0117 24.7295 39.3229 24.7272 39.3259C24.7218 39.3327 24.7142 39.3365 24.7066 39.3365C24.7012 39.3365 24.6959 39.3346 24.6913 39.3316C24.6802 39.3233 24.6779 39.3076 24.6859 39.2967C24.6951 39.2843 24.8955 39.0185 25.1439 38.8361C24.8153 38.8421 24.5646 38.922 24.3219 39.0027C24.2326 39.2092 23.9773 39.5212 23.9174 39.5685C23.9128 39.5722 23.9071 39.5737 23.9017 39.5737C23.8941 39.5737 23.8868 39.5707 23.8815 39.5647C23.8731 39.5538 23.8746 39.538 23.8857 39.529C23.9376 39.4885 24.1574 39.2197 24.2555 39.0249C24.0151 39.1045 23.7643 39.1822 23.4411 39.1822C23.3694 39.1822 23.2942 39.1784 23.2144 39.1698C23.2007 39.1683 23.1908 39.1563 23.1919 39.1424C23.1934 39.1285 23.206 39.1187 23.2201 39.1202C23.606 39.1612 23.8807 39.0932 24.1509 39.0065C24.075 38.9813 23.9883 38.9337 23.8945 38.8815C23.8136 38.8368 23.73 38.7903 23.6479 38.7565C23.6353 38.7508 23.6292 38.7362 23.6346 38.7234C23.6403 38.7107 23.6552 38.705 23.6678 38.7103C23.7529 38.7456 23.8376 38.7925 23.9193 38.8379C24.0471 38.9089 24.1681 38.9761 24.2501 38.9738C24.2616 38.9701 24.2727 38.9667 24.2837 38.9629C24.5352 38.8789 24.7932 38.7936 25.1332 38.7861C24.9439 38.6735 24.6043 38.4599 24.6001 38.4573C24.5883 38.4498 24.5848 38.4344 24.5925 38.4228C24.6001 38.4111 24.6157 38.4077 24.6276 38.4152C24.6321 38.4182 25.0821 38.7009 25.2328 38.7861C25.3603 38.7891 25.4996 38.8038 25.6534 38.8323C25.5931 38.8 25.5473 38.7542 25.4992 38.6882C25.4152 38.5729 25.3839 38.4318 25.4194 38.3289C25.4278 38.3049 25.4782 38.2516 25.4915 38.2343C25.2668 37.9565 24.8176 37.66 24.6138 37.8019C24.2898 38.0275 24.4509 38.294 24.2356 38.4059C23.9906 38.5331 23.8136 38.4344 23.7407 38.389C23.6258 38.3176 23.3804 38.3612 23.3865 38.6183C23.3923 38.8759 23.4377 38.874 23.2175 38.8988C23.0125 38.9216 22.6115 38.9472 22.5512 39.2636C22.4909 39.5805 22.8126 39.6751 22.9244 39.6826C23.19 39.7002 23.4438 39.4934 23.5312 39.719C23.6189 39.945 23.6247 40.1188 23.7937 40.1131C24.141 40.1011 24.1803 39.719 24.4429 39.7032C24.5604 39.6961 24.7436 39.8271 24.8352 39.9408C24.9081 39.8309 25.0691 39.7531 25.3545 39.7032Z" fill="#035745"/>
<path d="M32.726 41.0872C32.1676 40.9003 31.4471 40.5977 31.4471 40.5977C31.3636 40.6972 31.2266 40.7347 31.2266 40.7347C31.5918 40.91 32.2974 41.2239 32.2974 41.2239C32.373 41.1109 32.6233 41.0696 32.726 41.0872Z" fill="#035745"/>
<path d="M32.1042 41.5208C31.4459 41.4581 31.0757 41.7903 31.402 41.8327C32.0504 41.9161 32.4786 41.5564 32.1042 41.5208Z" fill="#035745"/>
<path d="M32.9576 41.204C32.6599 41.0932 32.2974 41.2952 32.4867 41.3939C32.7393 41.5245 33.2553 41.3151 32.9576 41.204Z" fill="#035745"/>
<path d="M31.8811 41.4057C31.6434 41.3029 31.1755 41.0998 30.737 40.8941C30.5565 40.9857 30.4497 41.0521 30.281 41.1715C30.6592 41.3652 31.0206 41.5739 31.1564 41.6512C31.374 41.435 31.6697 41.3761 31.8811 41.4057Z" fill="#035745"/>
<path d="M31.7203 39.7192H31.7199C31.4974 39.7849 31.2516 39.8686 30.9937 39.9651C31.0394 40.021 31.0742 40.0747 31.0936 40.1257C31.3909 40.0026 31.6653 39.8986 31.9015 39.8209C31.8302 39.8063 31.768 39.7714 31.7203 39.7192Z" fill="#FBC700"/>
<path d="M30.9174 39.1075C31.0567 38.9041 31.3761 38.5482 31.7417 38.2028C31.3566 38.317 30.9681 38.5981 30.6602 38.8583C30.7216 38.8917 30.7846 38.9405 30.851 39.0107C30.8815 39.043 30.9025 39.0753 30.9174 39.1075Z" fill="#FBC700"/>
<path d="M40.4557 33.9545C40.6812 33.7526 40.8625 33.3948 40.9469 33.0074C40.6812 33.328 40.3874 33.3329 40.1939 33.539C39.8226 33.9346 40.2302 34.1565 40.4557 33.9545Z" fill="#FBC700"/>
<path d="M40.1097 33.3646C40.1639 33.1923 40.0456 32.8282 40.0918 32.5511C39.8483 32.8203 39.675 33.3132 39.7796 33.5429C39.8846 33.7727 40.0555 33.5369 40.1097 33.3646Z" fill="#FBC700"/>
<path d="M39.5729 34.1535C39.7782 33.9399 39.4641 33.4778 39.603 32.8794C39.603 32.8794 39.1894 33.539 39.1443 33.7853C38.997 34.5871 39.3676 34.3675 39.5729 34.1535Z" fill="#FBC700"/>
<path d="M39.9367 34.7652C40.1469 34.7475 40.4057 34.5069 40.6774 34.008C40.4633 34.2512 39.8966 34.1563 39.7325 34.3376C39.5363 34.5542 39.7268 34.7828 39.9367 34.7652Z" fill="#FBC700"/>
<path d="M37.1817 36.5232C37.2119 36.2232 37.1214 36.2649 37.405 35.757C37.2813 35.8463 36.7803 36.2322 36.7803 36.6151C36.7803 37.1351 37.1516 36.8231 37.1817 36.5232Z" fill="#FBC700"/>
<path d="M36.4297 37.2C36.6865 36.9534 36.5083 36.6951 36.7617 36.2173C36.7617 36.2173 36.327 36.5262 36.1671 36.8937C36.0072 37.2616 36.1732 37.4467 36.4297 37.2Z" fill="#FBC700"/>
<path d="M35.8047 37.6456C36.1245 37.322 35.9043 37.0784 36.1039 36.6895C35.9345 36.8648 35.6811 37.0401 35.53 37.3127C35.3521 37.634 35.4849 37.9692 35.8047 37.6456Z" fill="#FBC700"/>
<path d="M35.0381 38.148C35.4083 37.8191 35.1694 37.4824 35.6216 36.9677C35.34 37.1063 34.837 37.538 34.676 37.8544C34.5149 38.1712 34.6664 38.4783 35.0381 38.148Z" fill="#FBC700"/>
<path d="M34.2116 38.5483C34.4711 38.293 34.5012 37.8535 34.8214 37.3125C34.6401 37.4248 34.0433 37.7645 33.804 38.1553C33.5231 38.614 33.9521 38.8036 34.2116 38.5483Z" fill="#FBC700"/>
<path d="M33.1906 39.0383C33.7096 38.5432 33.4764 38.3829 33.879 37.7278C33.5692 37.9099 33.0658 38.2901 32.772 38.7462C32.6304 38.9662 32.7258 39.4816 33.1906 39.0383Z" fill="#FBC700"/>
<path d="M31.814 39.268C31.6369 39.6442 31.959 39.8304 32.2246 39.5849C32.4902 39.3393 32.5948 38.7136 33.15 37.9455C32.768 38.1632 32.0765 38.7102 31.814 39.268Z" fill="#FBC700"/>
<path d="M31.4198 39.6957C31.8674 39.2441 31.7499 38.8758 32.457 38.1355C31.9205 38.3255 31.1076 38.9498 30.8844 39.4092C30.6752 39.8402 31.1229 39.9952 31.4198 39.6957Z" fill="#FBC700"/>
<path d="M30.0466 40.4659C30.0394 40.4659 30.0172 40.4697 29.9722 40.5027C29.9531 40.5166 29.9298 40.5387 29.9054 40.562C29.8295 40.6341 29.7348 40.7242 29.6085 40.7242C29.536 40.7242 29.47 40.6945 29.4112 40.636C28.93 40.8623 28.4858 41.1153 28.1519 41.3098C28.3282 41.3218 28.5182 41.3909 28.5545 41.4355C28.9002 41.2058 29.51 40.8796 30.1348 40.553C30.092 40.4862 30.0603 40.4659 30.0466 40.4659Z" fill="#FBC700"/>
<path d="M28.8042 41.5533C29.045 41.494 29.3366 41.5278 29.5297 41.6051C29.7651 41.4005 30.2021 41.0893 30.5742 40.8611C30.4719 40.8487 30.3337 40.8003 30.262 40.7316C29.7857 40.9467 29.2515 41.2609 28.8042 41.5533Z" fill="#FBC700"/>
<path d="M28.7599 41.6602C28.4401 41.8059 28.935 41.9482 29.3426 41.8059C29.7502 41.6632 29.0312 41.5367 28.7599 41.6602Z" fill="#FBC700"/>
<path d="M28.0193 41.4108C27.6499 41.4956 28.0315 41.6514 28.3063 41.5921C28.5807 41.5328 28.2517 41.3575 28.0193 41.4108Z" fill="#FBC700"/>
<path d="M33.6101 41.7149C33.8795 41.719 34.3115 41.6991 34.7916 41.4855C34.7916 41.4855 34.4917 41.4326 34.3085 41.3665C34.165 41.499 33.8986 41.6443 33.6101 41.7149Z" fill="#FBC700"/>
<path d="M34.4461 40.2339C34.2568 40.3683 33.9214 40.5429 33.9214 40.5429C35.0739 40.6863 36.197 40.63 36.197 40.63C36.3741 40.428 36.4828 40.133 36.4828 40.133C35.3254 40.2696 34.4461 40.2339 34.4461 40.2339Z" fill="#FBC700"/>
<path d="M35.5225 40.9942C35.5409 40.998 36.0087 40.733 36.0087 40.733H35.732C35.732 40.733 35.5042 40.9901 35.5225 40.9942Z" fill="#FBC700"/>
<path d="M35.6295 39.7196L35.507 39.7568C35.2795 39.8258 35.0727 39.8885 34.883 39.9418C35.2738 39.9726 35.755 39.8934 36.3485 39.7297C36.0828 39.7151 35.8432 39.6408 35.6157 39.5473C35.4871 39.4944 35.3433 39.4899 35.2105 39.5308C35.199 39.5345 35.1879 39.5379 35.1769 39.5413C34.9532 39.6269 34.6163 39.7001 34.2942 39.7733C34.4293 39.8502 34.5812 39.8998 34.751 39.9261C34.9708 39.8675 35.2169 39.7928 35.4917 39.7091L35.6146 39.6719C35.628 39.6678 35.6421 39.6753 35.6463 39.6884C35.6505 39.7016 35.6428 39.7155 35.6295 39.7196Z" fill="#FBC700"/>
<path d="M36.8087 38.2272C36.9442 38.1735 37.0804 38.1097 37.2335 38.0286C37.1102 38.0083 36.9873 37.9933 36.8591 37.9948C36.7053 38.0778 36.5748 38.1367 36.4519 38.1724C36.432 38.1998 36.416 38.2294 36.4038 38.2598C36.5099 38.2767 36.6206 38.282 36.7106 38.2523C36.7137 38.2516 36.7545 38.2411 36.8087 38.2272Z" fill="#FBC700"/>
<path d="M37.3139 38.0423C37.228 38.0888 37.1479 38.1298 37.0708 38.1665C36.7937 38.3287 36.614 38.4387 36.4094 38.5281C36.4609 38.6238 36.5739 38.694 36.7647 38.6936C37.1643 38.6932 37.5558 38.5153 38.25 38.1012C37.8832 38.156 37.594 38.0922 37.3139 38.0423Z" fill="#FBC700"/>
<path d="M38.112 37.3589C37.8338 37.5417 37.5255 37.6784 37.2698 37.7715C37.3011 37.8331 37.3583 37.8856 37.4392 37.9156C37.5236 37.8676 37.6132 37.815 37.7117 37.7561C37.7239 37.749 37.7396 37.7527 37.7468 37.7644C37.7541 37.7764 37.7502 37.7914 37.738 37.7989C37.656 37.8477 37.5797 37.8927 37.5071 37.9344C37.5548 37.943 37.6079 37.9445 37.6667 37.9378C38.3227 37.8586 38.6367 37.6134 39.1038 37.2568C38.6738 37.3878 38.3662 37.3792 38.112 37.3589Z" fill="#FBC700"/>
<path d="M38.7294 36.5707C38.6958 36.5898 38.6622 36.6082 38.6282 36.6255C38.4245 36.7907 38.2443 36.9101 38.0955 36.9866C38.0947 37.0246 38.1039 37.0598 38.1226 37.0899C38.2829 37.0054 38.455 36.8939 38.6324 36.7456C38.6431 36.737 38.6592 36.7381 38.6683 36.7486C38.6775 36.7591 38.6759 36.7749 38.6653 36.7839C38.4886 36.9311 38.3168 37.0433 38.1566 37.1289C38.2165 37.18 38.3218 37.2017 38.4767 37.1676C39.0942 37.0306 39.5483 36.4964 39.5483 36.4964C39.2835 36.5775 38.9595 36.5715 38.7294 36.5707Z" fill="#FBC700"/>
<path d="M38.7109 36.2397C38.7285 36.3204 38.7941 36.3831 38.8834 36.4143C39.0254 36.3178 39.1845 36.1939 39.3959 36.0179C39.4066 36.0089 39.4227 36.0104 39.4314 36.0205C39.4406 36.031 39.4395 36.0472 39.4288 36.0558C39.2341 36.2183 39.083 36.337 38.9491 36.4304C38.9991 36.4379 39.0536 36.4368 39.1097 36.4252C39.373 36.3692 39.5993 36.2026 40.1184 35.6383C40.1184 35.6383 39.607 35.6789 39.2425 35.7611C39.0887 35.9293 38.8895 36.0997 38.7109 36.2397Z" fill="#FBC700"/>
<path d="M38.6643 34.5642C38.6754 34.5725 38.6773 34.5886 38.6689 34.5995C38.5926 34.696 38.5132 34.7857 38.4437 34.8608C38.4506 34.9565 38.4819 35.0196 38.5266 35.0522C38.6685 34.8848 38.8284 34.6998 38.9463 34.5736C38.9662 34.366 38.954 34.1194 38.9585 33.8912C38.8128 34.027 38.4628 34.4741 38.4434 34.7865C38.5025 34.7211 38.5666 34.6472 38.6284 34.5687C38.6372 34.5579 38.6533 34.5556 38.6643 34.5642Z" fill="#FBC700"/>
<path d="M37.3136 36.728C36.9472 36.9326 37.1063 37.1053 37.4116 37.0933C37.7166 37.0813 38.0272 36.9863 38.5584 36.5707C38.1879 36.7145 37.628 36.5523 37.3136 36.728Z" fill="#FBC700"/>
<path d="M36.4908 37.2803C36.2855 37.4556 36.361 37.6455 36.6297 37.6455C36.8984 37.6455 37.1609 37.599 37.7917 37.2386C37.1918 37.296 36.8026 37.0141 36.4908 37.2803Z" fill="#FBC700"/>
<path d="M37.0818 37.7911C36.6414 37.8418 36.0598 37.6034 35.8381 37.7554C35.6988 37.8504 35.6778 38.0494 35.9255 38.1147C36.3018 38.2142 36.5834 38.085 37.0818 37.7911Z" fill="#FBC700"/>
<path d="M32.3899 39.66C31.9712 39.6994 31.8865 40.2418 32.5105 40.3131C33.1344 40.3845 33.8587 40.2816 34.6559 39.9805C33.6866 40.0676 32.9157 39.61 32.3899 39.66Z" fill="#FBC700"/>
<path d="M37.3449 36.4135C37.4293 36.4848 37.5823 36.3936 37.7555 36.1639C37.9284 35.9345 37.6911 35.7048 38.3471 34.9326C38.1902 35.0674 37.82 35.4634 37.5903 35.76C37.361 36.0573 37.2602 36.3422 37.3449 36.4135Z" fill="#FBC700"/>
<path d="M38.0368 35.6411C37.8036 35.95 38.1333 36.1599 38.3669 35.9316C38.442 35.8581 38.5165 35.7608 38.5935 35.6426C38.8 35.4669 39.1606 35.1103 39.4251 34.831C39.4312 34.8242 39.4308 34.8137 39.4239 34.8073C39.4171 34.8009 39.4064 34.8013 39.4003 34.8081C39.1698 35.0517 38.8664 35.3539 38.6561 35.5427C38.7325 35.417 38.813 35.2706 38.9015 35.102C39.0679 34.9372 39.2461 34.7232 39.4262 34.4687C39.432 34.4612 39.4301 34.4507 39.4224 34.4455C39.4148 34.4406 39.4041 34.4421 39.3988 34.4496C39.2209 34.7007 39.0454 34.9121 38.8813 35.0746C38.7321 35.1411 38.239 35.3734 38.0368 35.6411Z" fill="#FBC700"/>
<path d="M31.3279 40.2181C32.2495 40.6303 34.2209 41.3109 34.906 41.4059C34.9754 41.0665 35.0422 40.7557 35.0422 40.7557C33.6569 40.6412 32.7414 40.526 31.5492 40.1412C31.4527 40.1727 31.3279 40.2181 31.3279 40.2181Z" fill="#FBC700"/>
<path d="M34.5888 39.2758C34.5255 39.2758 34.461 39.2735 34.3938 39.269C34.6567 39.3373 34.9464 39.4109 35.2349 39.3944C35.1341 39.3471 35.1174 39.3249 35.0265 39.2555C34.8903 39.2739 34.7178 39.2758 34.5888 39.2758Z" fill="#FBC700"/>
<path d="M35.0816 38.253C34.7527 38.4805 34.9274 38.6866 35.2014 38.7102C35.4751 38.7343 36.0265 38.6468 36.5699 38.3367C36.3123 38.3713 35.5022 37.9621 35.0816 38.253Z" fill="#FBC700"/>
<path d="M34.2667 38.6403C33.9988 38.7026 33.6981 39.1215 34.1694 39.1809C34.6403 39.2402 35.0837 39.2191 35.6604 38.9905C35.1864 38.9372 34.6674 38.5472 34.2667 38.6403Z" fill="#FBC700"/>
<path d="M36.5015 38.7481C36.3298 38.8134 36.1783 38.8656 36.0325 38.9073C35.6017 39.0856 35.3647 39.178 35.1453 39.2253C35.1937 39.2958 35.2823 39.3503 35.417 39.375C35.4307 39.3773 35.4437 39.3792 35.4574 39.381C35.8127 39.3169 36.1016 39.217 36.4222 39.0578C36.4348 39.0514 36.45 39.0563 36.4561 39.0687C36.4626 39.0811 36.4577 39.0957 36.4451 39.1021C36.1642 39.2418 35.9077 39.3364 35.6112 39.4013C36.1463 39.4516 36.6771 39.2943 37.6468 38.8247C37.037 38.908 36.7202 38.842 36.5015 38.7481Z" fill="#FBC700"/>
<path d="M33.2794 39.1491C32.8608 39.2362 32.8368 39.6082 33.1909 39.7035C33.5451 39.7985 34.0965 39.7944 35.1696 39.4659C34.4995 39.4618 33.7305 39.0552 33.2794 39.1491Z" fill="#FBC700"/>
<path d="M34.157 39.8025C34.157 39.8025 33.9223 39.8419 33.7869 39.8419C33.9781 39.8749 34.2074 39.9233 34.4226 39.9173C34.4226 39.9173 34.2799 39.8738 34.157 39.8025Z" fill="#FBC700"/>
<path d="M40.6022 33.1287C40.8278 32.8595 40.8598 32.6298 40.8598 31.7506C40.7152 31.9833 40.3084 32.5273 40.2401 32.7841C40.1092 33.2747 40.3771 33.3978 40.6022 33.1287Z" fill="#FBC700"/>
</svg>
