<svg width="35" height="39" viewBox="0 0 35 39" fill="none" xmlns="http://www.w3.org/2000/svg">
<path fill-rule="evenodd" clip-rule="evenodd" d="M5.20374 0.088643C4.21658 0.326556 3.2725 1.09097 2.8414 2.00155L2.60658 2.49757H1.46306H0.319549L0.159813 2.69838L0 2.89918V20.7625V38.6259L0.189262 38.8129L0.378447 39H10.6151H20.8518L24.5723 35.3222L28.293 31.6444V17.258V2.87167L28.1037 2.68466L27.9145 2.49757H18.7033H9.49202L9.23669 1.98364C8.93811 1.38276 8.30703 0.725111 7.73909 0.423033C6.98975 0.0243256 6.0079 -0.105148 5.20374 0.088643ZM6.97926 1.44182C7.38515 1.62777 7.7902 1.96444 7.9642 2.2605L8.10343 2.49757H6.05616C4.93007 2.49757 4.00881 2.46945 4.00881 2.43509C4.00881 2.2999 4.57945 1.72401 4.89391 1.54181C5.50487 1.18791 6.33762 1.14798 6.97926 1.44182ZM29.7711 2.67391C29.5267 2.93118 29.5436 3.35443 29.8067 3.55889C29.9184 3.64576 30.0918 3.71686 30.1921 3.71686H30.3745V20.7488V37.7807H26.9018H23.4291L23.2399 37.9678C22.9319 38.2722 23.0097 38.6997 23.4118 38.9114C23.5333 38.9753 24.6431 39 27.397 39H31.2138L31.4302 38.8161L31.6465 38.6322L31.6684 20.965C31.6806 11.2479 31.6702 3.18617 31.6456 3.04976C31.5655 2.60594 31.3612 2.49757 30.6046 2.49757C30.0083 2.49757 29.9213 2.51602 29.7711 2.67391ZM33.1758 2.61013C32.696 2.94223 33.0042 3.71686 33.616 3.71686C33.7648 3.71686 33.7665 3.90448 33.7665 20.7488V37.7807H33.5524C33.1011 37.7807 32.8214 38.2033 32.9964 38.6208C33.1167 38.908 33.3708 39 34.0435 39C34.5544 39 34.6435 38.9783 34.8107 38.8129L35 38.6259V20.7625V2.89918L34.8402 2.69838C34.6895 2.50893 34.6425 2.49757 34.0094 2.49757C33.5423 2.49757 33.2889 2.53179 33.1758 2.61013ZM8.32599 6.04845C8.32599 8.6674 8.3263 8.66595 7.76692 8.97672C7.27484 9.25007 6.71144 9.08333 6.39529 8.57085C6.2603 8.35198 6.24503 8.18007 6.2448 6.87733C6.24457 5.67146 6.22368 5.39795 6.12107 5.25309C5.95108 5.01319 5.68326 4.92495 5.41043 5.01899C5.02582 5.15151 5.00007 5.28875 5.02589 7.07295C5.04833 8.62457 5.05904 8.72661 5.23443 9.06588C5.94584 10.4416 7.75828 10.7713 8.85963 9.72528C9.04349 9.55062 9.28487 9.21608 9.39596 8.98182L9.59802 8.55591L9.62384 6.13639L9.64959 3.71686H18.3546H27.0595V17.241V30.7652L23.708 30.7865L20.3566 30.8079L20.181 30.9814L20.0055 31.1549L19.9838 34.4678L19.9623 37.7807H10.5978H1.23348V20.7488V3.71686H4.77974H8.32599V6.04845ZM5.34413 12.5711C5.0871 12.6939 4.97039 13.0378 5.08934 13.3216C5.14269 13.449 5.24869 13.5862 5.32486 13.6265C5.41128 13.6722 8.73535 13.6989 14.1607 13.6973C21.1738 13.6954 22.8834 13.6758 22.9898 13.5959C23.3249 13.3443 23.3105 12.8443 22.9613 12.6025C22.8022 12.4923 21.948 12.481 14.1486 12.4857C8.26725 12.4892 5.45854 12.5164 5.34413 12.5711ZM5.34413 16.3052C5.0871 16.4279 4.97039 16.7719 5.08934 17.0557C5.14269 17.1831 5.24869 17.3202 5.32486 17.3605C5.41128 17.4063 8.73535 17.4329 14.1607 17.4314C21.1738 17.4295 22.8834 17.4098 22.9898 17.33C23.3249 17.0784 23.3105 16.5784 22.9613 16.3366C22.8022 16.2264 21.948 16.2151 14.1486 16.2197C8.26725 16.2232 5.45854 16.2505 5.34413 16.3052ZM5.34413 20.0392C5.0871 20.162 4.97039 20.5059 5.08934 20.7898C5.14269 20.9171 5.24869 21.0543 5.32486 21.0946C5.51535 21.1954 22.7801 21.1941 22.9706 21.0933C23.1647 20.9906 23.2933 20.5979 23.2067 20.3726C23.0336 19.9225 23.5885 19.9482 14.1486 19.9538C8.26725 19.9573 5.45854 19.9845 5.34413 20.0392ZM5.34413 23.7733C5.0871 23.8961 4.97039 24.24 5.08934 24.5239C5.14269 24.6512 5.24869 24.7884 5.32486 24.8287C5.51535 24.9294 22.7801 24.9281 22.9706 24.8274C23.1647 24.7247 23.2933 24.332 23.2067 24.1066C23.0336 23.6566 23.5885 23.6822 14.1486 23.6879C8.26725 23.6914 5.45854 23.7186 5.34413 23.7733ZM5.23635 27.6395C5.11239 27.7621 5.01101 27.918 5.01101 27.9862C5.01101 28.1746 5.22086 28.5354 5.3614 28.5887C5.57649 28.6703 22.8152 28.6436 22.9706 28.5614C23.1647 28.4587 23.2933 28.066 23.2067 27.8407C23.0336 27.3909 23.5894 27.4168 14.1234 27.4168H5.4617L5.23635 27.6395ZM26.0573 32.0848C26.0573 32.0956 24.9818 33.167 23.6674 34.4658L21.2775 36.8272V34.4463V32.0653H23.6674C24.9818 32.0653 26.0573 32.0741 26.0573 32.0848Z" fill="#084635"/>
</svg>
