<svg width="51" height="51" viewBox="0 0 51 51" fill="none" xmlns="http://www.w3.org/2000/svg">
<path d="M48.6094 20.1876H35.1191C31.5664 20.1776 28.1372 21.4909 25.5 23.8715C22.8628 21.4909 19.4336 20.1776 15.8809 20.1876H2.39062C2.17928 20.1876 1.9766 20.2715 1.82716 20.421C1.67772 20.5704 1.59376 20.7731 1.59375 20.9844V35.3282C1.59376 35.5395 1.67772 35.7422 1.82716 35.8916C1.9766 36.0411 2.17928 36.125 2.39062 36.1251H7.68926L10.8601 38.6618C10.5294 39.2756 10.4189 39.9841 10.547 40.6695C10.6751 41.3549 11.034 41.9757 11.5641 42.4287C12.0941 42.8816 12.7633 43.1394 13.4603 43.159C14.1572 43.1787 14.8399 42.9591 15.3947 42.5367C15.5402 43.0478 15.8166 43.5121 16.1967 43.8835C16.5767 44.2549 17.0472 44.5206 17.5615 44.6544C18.0758 44.7881 18.6161 44.7852 19.1289 44.6459C19.6418 44.5067 20.1093 44.2359 20.4854 43.8604L20.9799 43.3659C21.1301 43.873 21.4095 44.3324 21.7908 44.699C22.172 45.0655 22.642 45.3267 23.1546 45.4569C23.6672 45.5872 24.2048 45.5819 24.7148 45.4417C25.2247 45.3016 25.6895 45.0312 26.0635 44.6573L26.558 44.1628C26.7082 44.6699 26.9877 45.1293 27.3689 45.4958C27.7501 45.8624 28.2201 46.1236 28.7327 46.2538C29.2453 46.384 29.7829 46.3788 30.2929 46.2386C30.8028 46.0984 31.2676 45.8281 31.6416 45.4542L32.4385 44.6573C32.8546 44.2431 33.1413 43.7169 33.2639 43.1427L34.9105 42.5939C35.534 42.3866 36.1093 42.0554 36.6017 41.6202C37.0941 41.185 37.4934 40.6547 37.7757 40.0613L43.2865 36.1251H48.6094C48.8207 36.125 49.0234 36.0411 49.1728 35.8916C49.3223 35.7422 49.4062 35.5395 49.4062 35.3282V20.9844C49.4062 20.7731 49.3223 20.5704 49.1728 20.421C49.0234 20.2715 48.8207 20.1876 48.6094 20.1876ZM3.1875 21.7813H7.17188V34.5313H3.1875V21.7813ZM12.5166 41.1397C12.2438 40.8662 12.0906 40.4957 12.0906 40.1094C12.0906 39.7232 12.2438 39.3526 12.5166 39.0792L16.501 35.0948C16.7743 34.8219 17.1448 34.6687 17.531 34.6689C17.9172 34.669 18.2876 34.8225 18.5607 35.0956C18.8338 35.3687 18.9873 35.7391 18.9874 36.1253C18.9876 36.5115 18.8344 36.882 18.5615 37.1553L14.5771 41.1397C14.3037 41.4125 13.9332 41.5657 13.5469 41.5657C13.1606 41.5657 12.7901 41.4125 12.5166 41.1397ZM19.3584 42.7334C19.0851 43.0063 18.7146 43.1595 18.3284 43.1594C17.9421 43.1592 17.5718 43.0057 17.2987 42.7326C17.0256 42.4595 16.8721 42.0892 16.8719 41.7029C16.8718 41.3167 17.025 40.9463 17.2979 40.6729L19.6885 38.2823L20.4854 37.4854C20.7587 37.2126 21.1292 37.0594 21.5154 37.0595C21.9016 37.0597 22.272 37.2131 22.5451 37.4862C22.8182 37.7593 22.9717 38.1297 22.9718 38.5159C22.972 38.9021 22.8187 39.2726 22.5459 39.5459L19.3584 42.7334ZM24.9365 43.5303C24.8012 43.6658 24.6406 43.7732 24.4638 43.8466C24.287 43.92 24.0974 43.9578 23.906 43.9578C23.7146 43.9579 23.525 43.9203 23.3482 43.847C23.1713 43.7738 23.0106 43.6665 22.8752 43.5311C22.7399 43.3957 22.6325 43.235 22.5593 43.0582C22.4861 42.8813 22.4484 42.6917 22.4485 42.5003C22.4486 42.3089 22.4863 42.1193 22.5597 41.9425C22.6331 41.7657 22.7405 41.6051 22.876 41.4698L25.2666 39.0792C25.4019 38.9437 25.5625 38.8362 25.7393 38.7629C25.9161 38.6895 26.1057 38.6517 26.2971 38.6517C26.4885 38.6516 26.6781 38.6892 26.855 38.7625C27.0318 38.8357 27.1926 38.943 27.3279 39.0784C27.4633 39.2138 27.5706 39.3745 27.6439 39.5513C27.7171 39.7282 27.7547 39.9178 27.7547 40.1092C27.7546 40.3006 27.7168 40.4902 27.6434 40.667C27.5701 40.8438 27.4626 41.0044 27.3271 41.1397L24.9365 43.5303ZM31.3115 43.5303L30.5146 44.3272C30.2413 44.6001 29.8708 44.7533 29.4846 44.7531C29.0984 44.753 28.728 44.5995 28.4549 44.3264C28.1818 44.0533 28.0283 43.6829 28.0282 43.2967C28.028 42.9105 28.1813 42.54 28.4541 42.2667L29.251 41.4698C29.5243 41.1969 29.8948 41.0437 30.281 41.0439C30.6672 41.044 31.0376 41.1975 31.3107 41.4706C31.5838 41.7437 31.7373 42.1141 31.7374 42.5003C31.7376 42.8865 31.5844 43.257 31.3115 43.5303ZM34.4065 41.0819L33.1633 41.4963C32.8981 40.7374 32.3445 40.1136 31.6225 39.7602C30.9004 39.4068 30.0682 39.3523 29.3062 39.6085C29.22 39.0899 29.0011 38.6024 28.6709 38.1933C28.3408 37.7841 27.9104 37.4673 27.4217 37.2735C26.933 37.0797 26.4025 37.0154 25.8817 37.087C25.3609 37.1586 24.8674 37.3636 24.4491 37.6821C24.3366 37.2847 24.1445 36.9143 23.8844 36.5934C23.6243 36.2725 23.3017 36.0078 22.9362 35.8155C22.5706 35.6231 22.1698 35.5071 21.758 35.4745C21.3462 35.4419 20.9321 35.4934 20.5409 35.6258C20.4491 35.0726 20.2067 34.5554 19.8402 34.131C19.4737 33.7066 18.9973 33.3915 18.4634 33.2201C17.9294 33.0488 17.3586 33.0279 16.8136 33.1598C16.2686 33.2917 15.7705 33.5713 15.374 33.9678L11.8939 37.4479L8.76562 34.9452V21.7813H15.8809C19.0035 21.7726 22.02 22.9136 24.3552 24.9866L20.7476 28.5941C20.2839 29.0578 20.0004 29.6714 19.9477 30.325C19.895 30.9787 20.0766 31.6298 20.4601 32.1617C20.8435 32.6937 21.4037 33.0719 22.0405 33.2286C22.6773 33.3853 23.349 33.3103 23.9355 33.017L28.8756 30.5469H29.9783L35.552 35.5013C35.9834 35.8848 36.3063 36.3751 36.4884 36.9228C36.6704 37.4706 36.7051 38.0566 36.589 38.6221C36.473 39.1875 36.2102 39.7124 35.8271 40.1442C35.444 40.576 34.9541 40.8993 34.4065 41.0819ZM42.2344 34.9181L38.2448 37.7677C38.2189 37.1111 38.0608 36.4665 37.7801 35.8724C37.4993 35.2783 37.1016 34.747 36.6107 34.3101L32.2589 30.4418C34.1394 30.1545 35.8782 29.2716 37.2198 27.9229L36.0927 26.7959C35.4104 27.482 34.5988 28.0259 33.7048 28.3962C32.8109 28.7665 31.8524 28.9558 30.8847 28.9532H28.6875C28.5638 28.9532 28.4417 28.982 28.3311 29.0373L23.2227 31.5916C22.9747 31.7155 22.6906 31.7472 22.4214 31.6809C22.1521 31.6147 21.9152 31.4547 21.7531 31.2298C21.591 31.0048 21.5142 30.7295 21.5364 30.4531C21.5587 30.1767 21.6786 29.9173 21.8747 29.7212L26.0635 25.5323C27.2499 24.3394 28.6612 23.3936 30.2156 22.7497C31.77 22.1059 33.4366 21.7767 35.1191 21.7813H42.2344V34.9181ZM47.8125 34.5313H43.8281V21.7813H47.8125V34.5313Z" fill="#084635"/>
<path d="M49.9375 5.3125H1.0625V7.0125H49.9375V5.3125Z" fill="#084635"/>
<path d="M49.9375 5.3125H1.0625V7.0125H49.9375V5.3125Z" stroke="#084635"/>
</svg>
