<svg width="100" height="100" viewBox="0 0 100 100" fill="none" xmlns="http://www.w3.org/2000/svg">
<path d="M65.625 62.5V93.75L93.75 78.125L65.625 62.5Z" fill="white"/>
<path d="M43.75 50C47.2018 50 50 47.2018 50 43.75C50 40.2982 47.2018 37.5 43.75 37.5C40.2982 37.5 37.5 40.2982 37.5 43.75C37.5 47.2018 40.2982 50 43.75 50Z" fill="white"/>
<path d="M43.75 62.5C40.0416 62.5 36.4165 61.4003 33.3331 59.3401C30.2496 57.2798 27.8464 54.3514 26.4273 50.9253C25.0081 47.4992 24.6368 43.7292 25.3603 40.0921C26.0838 36.4549 27.8695 33.114 30.4918 30.4917C33.114 27.8695 36.4549 26.0837 40.0921 25.3603C43.7292 24.6368 47.4992 25.0081 50.9253 26.4273C54.3514 27.8464 57.2798 30.2496 59.3401 33.3331C61.4003 36.4165 62.5 40.0416 62.5 43.75C62.4942 48.721 60.5169 53.4868 57.0019 57.0019C53.4868 60.5169 48.721 62.4942 43.75 62.5ZM43.75 31.25C41.2777 31.25 38.861 31.9831 36.8054 33.3566C34.7498 34.7301 33.1476 36.6824 32.2015 38.9665C31.2554 41.2505 31.0079 43.7639 31.4902 46.1886C31.9725 48.6134 33.163 50.8407 34.9112 52.5888C36.6593 54.337 38.8866 55.5275 41.3114 56.0098C43.7361 56.4921 46.2495 56.2446 48.5336 55.2985C50.8176 54.3524 52.7699 52.7502 54.1434 50.6946C55.5169 48.639 56.25 46.2223 56.25 43.75C56.2459 40.4361 54.9276 37.259 52.5843 34.9157C50.241 32.5724 47.0639 31.2541 43.75 31.25Z" fill="white"/>
<path d="M81.097 40.3437H81.0782C80.4118 32.6515 77.397 25.35 72.4421 19.4285C67.4872 13.507 60.8319 9.25174 53.3777 7.23922C45.9235 5.2267 38.0309 5.55422 30.7691 8.17739C23.5073 10.8006 17.2273 15.5926 12.7801 21.9043C8.33284 28.2159 5.93327 35.7421 5.90648 43.4631C5.87968 51.1841 8.22695 58.7268 12.6303 65.0691C17.0336 71.4115 23.2801 76.247 30.5235 78.9205C37.767 81.5941 45.6571 81.9763 53.1251 80.0156V73.5594C46.5021 75.6325 39.3768 75.4376 32.8769 73.0055C26.3771 70.5734 20.8741 66.043 17.2388 60.1314C13.6034 54.2198 12.0435 47.2646 12.8058 40.3667C13.5682 33.4687 16.6093 27.0221 21.4478 22.047C26.2862 17.0719 32.6458 13.8525 39.5198 12.8984C46.3939 11.9444 53.3898 13.3101 59.4003 16.7795C65.4108 20.2488 70.0926 25.6236 72.7047 32.0532C75.3168 38.4828 75.7099 45.5999 73.822 52.2781L79.8376 53.9781C80.7765 50.6499 81.2518 47.2081 81.2501 43.75C81.2501 42.6042 81.1991 41.4687 81.097 40.3437Z" fill="white"/>
</svg>
