<svg width="31" height="24" viewBox="0 0 31 24" fill="#000" xmlns="http://www.w3.org/2000/svg">
<path d="M11 12C14.2812 12 17 9.32812 17 6C17 2.71875 14.2812 0 11 0C7.67188 0 5 2.71875 5 6C5 9.32812 7.67188 12 11 12ZM11 0.75C13.8594 0.75 16.25 3.14062 16.25 6C16.25 8.90625 13.8594 11.25 11 11.25C8.09375 11.25 5.75 8.90625 5.75 6C5.75 3.14062 8.09375 0.75 11 0.75ZM26.375 16.875H24.125V13.875C24.125 13.6875 23.9375 13.5469 23.75 13.5469C23.5156 13.5469 23.375 13.6875 23.375 13.875V17.25C23.375 17.4844 23.5156 17.625 23.75 17.625H26.375C26.5625 17.625 26.75 17.4844 26.75 17.2969C26.75 17.1562 26.5625 16.875 26.375 16.875ZM23.75 10.5C20 10.5 17 13.5469 17 17.25C17 21 20 24 23.75 24C27.4531 24 30.5 21 30.5 17.25C30.5 13.5469 27.4531 10.5 23.75 10.5ZM23.75 23.25C20.4219 23.25 17.75 20.5781 17.75 17.25C17.75 13.9688 20.4219 11.25 23.75 11.25C27.0312 11.25 29.75 13.9688 29.75 17.25C29.75 20.5781 27.0312 23.25 23.75 23.25ZM18.125 23.25H2.42188C1.76562 23.25 1.25 22.7812 1.25 22.125C1.25 18.2344 4.57812 15 8.70312 15H13.25C14 15 14.7031 15.1406 15.3594 15.3281C15.5938 15.375 15.7812 15.2344 15.8281 15.0469C15.875 14.8594 15.7812 14.625 15.5938 14.5781C14.8438 14.3906 14.0469 14.25 13.25 14.25H8.70312C4.15625 14.25 0.5 17.8125 0.5 22.125C0.5 23.2031 1.34375 24 2.42188 24H18.125C18.3125 24 18.5 23.8594 18.5 23.625C18.5 23.4375 18.3125 23.25 18.125 23.25Z" fill="#035745"/>
</svg>
