<svg width="40" height="41" viewBox="0 0 40 41" fill="none" xmlns="http://www.w3.org/2000/svg">
<path fill-rule="evenodd" clip-rule="evenodd" d="M19.2165 0.19943C18.6881 0.332562 17.936 0.778844 17.5709 1.17598C17.3835 1.37994 17.1111 1.7986 16.9658 2.10614C16.7268 2.61195 16.7015 2.74157 16.7015 3.46089C16.7015 4.18022 16.7268 4.30984 16.9658 4.81565C17.3235 5.57282 17.8059 6.07529 18.5179 6.43248C18.8402 6.59408 19.1552 6.72638 19.2179 6.72638C19.3106 6.72638 19.3319 7.04799 19.3319 8.44285V10.1593H18.8689C18.4885 10.1593 18.3691 10.1961 18.2008 10.3649C18.0224 10.5437 17.9958 10.646 17.9958 11.1544V11.7383L17.5157 11.8742C17.2516 11.9489 16.6698 12.1838 16.2229 12.3962L15.4104 12.7823L14.9445 12.3405C14.5285 11.9461 14.4502 11.9044 14.2139 11.9518C14.0683 11.981 13.8159 12.1354 13.6529 12.2949L13.3566 12.5851L12.1658 11.389L10.9751 10.193L11.2018 9.69637C11.6753 8.65929 11.5217 7.25413 10.8362 6.35336C10.162 5.46716 9.28292 5.02531 8.18372 5.02004C7.04818 5.01451 6.15983 5.46029 5.46881 6.3825C4.61979 7.51537 4.63374 9.20915 5.50138 10.3497C6.4233 11.5618 8.15833 12.0092 9.51741 11.3853L10.0127 11.158L11.2055 12.3519L12.3984 13.5458L12.1091 13.8429C11.95 14.0063 11.7959 14.2594 11.7668 14.4054C11.7196 14.6423 11.7612 14.7209 12.1545 15.1379L12.5952 15.6051L12.21 16.4198C11.9982 16.8679 11.7639 17.4512 11.6894 17.716L11.5539 18.1974H10.9715C10.4645 18.1974 10.3625 18.2241 10.1841 18.403C10.0158 18.5717 9.97912 18.6914 9.97912 19.0728V19.5371H8.26722C6.87608 19.5371 6.55532 19.5157 6.55532 19.4227C6.55532 19.3599 6.42338 19.044 6.26221 18.7209C5.90597 18.007 5.40484 17.5233 4.64969 17.1646C4.14455 16.9246 4.01653 16.8996 3.2942 16.8996C2.54138 16.8996 2.46113 16.9172 1.86555 17.2123C1.10547 17.589 0.632067 18.0738 0.264301 18.8522C0.0249688 19.3587 0 19.487 0 20.2113C0 20.9661 0.0175366 21.0466 0.3119 21.6438C0.687516 22.4059 1.17102 22.8806 1.94739 23.2493C2.45186 23.4889 2.58113 23.5143 3.29854 23.5143C4.01595 23.5143 4.14522 23.4889 4.64969 23.2493C5.40484 22.8906 5.90597 22.4069 6.26221 21.693C6.42338 21.3699 6.55532 21.0541 6.55532 20.9912C6.55532 20.8982 6.87608 20.8768 8.26722 20.8768H9.97912V21.3411C9.97912 21.7225 10.0158 21.8422 10.1841 22.0109C10.3625 22.1899 10.4645 22.2165 10.9715 22.2165H11.5539L11.6894 22.6979C11.7639 22.9627 11.9982 23.546 12.21 23.9942L12.5952 24.8089L12.1545 25.276C11.7612 25.6931 11.7196 25.7716 11.7668 26.0086C11.7959 26.1545 11.95 26.4076 12.1091 26.5711L12.3984 26.8681L11.2055 28.062L10.0127 29.2559L9.51741 29.0286C8.15833 28.4047 6.4233 28.8521 5.50138 30.0642C4.87457 30.8882 4.66555 32.1812 5 33.1652C5.30171 34.0528 6.19048 34.944 7.07624 35.2473C8.04718 35.5797 9.35482 35.367 10.169 34.7443C11.3779 33.8199 11.824 32.0803 11.2018 30.7175L10.9751 30.2209L12.1658 29.0249L13.3566 27.8288L13.6529 28.119C13.8159 28.2785 14.0683 28.433 14.2139 28.4621C14.4502 28.5095 14.5285 28.4678 14.9445 28.0734L15.4104 27.6316L16.2229 28.0177C16.6698 28.2301 17.2516 28.465 17.5157 28.5397L17.9958 28.6756V29.2595C17.9958 29.768 18.0224 29.8702 18.2008 30.049C18.3691 30.2178 18.4885 30.2546 18.8689 30.2546H19.3319V31.9711C19.3319 33.3659 19.3106 33.6875 19.2179 33.6875C19.1552 33.6875 18.8402 33.8198 18.5179 33.9814C17.8059 34.3386 17.3235 34.8411 16.9658 35.5983C16.7264 36.1048 16.7015 36.2331 16.7015 36.9574C16.7015 37.7122 16.719 37.7927 17.0134 38.3898C17.389 39.152 17.8725 39.6266 18.6489 39.9954C19.1533 40.235 19.2826 40.2604 20 40.2604C20.7174 40.2604 20.8467 40.235 21.3511 39.9954C22.1275 39.6266 22.611 39.152 22.9866 38.3898C23.281 37.7927 23.2985 37.7122 23.2985 36.9574C23.2985 36.2331 23.2736 36.1048 23.0342 35.5983C22.6765 34.8411 22.1941 34.3386 21.4821 33.9814C21.1598 33.8198 20.8448 33.6875 20.7821 33.6875C20.6894 33.6875 20.6681 33.3659 20.6681 31.9711V30.2546H21.1311C21.5115 30.2546 21.6309 30.2178 21.7992 30.049C21.9776 29.8702 22.0042 29.768 22.0042 29.2595V28.6756L22.4843 28.5397C22.7485 28.465 23.3302 28.2301 23.7771 28.0177L24.5896 27.6316L25.0555 28.0734C25.4715 28.4678 25.5498 28.5095 25.7861 28.4621C25.9317 28.433 26.1841 28.2785 26.3471 28.119L26.6434 27.8288L27.8342 29.0249L29.0249 30.2209L28.7982 30.7175C28.1759 32.0803 28.6221 33.8199 29.831 34.7443C30.6452 35.367 31.9528 35.5797 32.9238 35.2473C33.8094 34.9441 34.6979 34.0532 35.0002 33.1652C35.3318 32.1917 35.1197 30.8806 34.4986 30.0642C33.5765 28.8519 31.8417 28.4047 30.4822 29.0289L29.9864 29.2564L28.774 28.0409L27.5618 26.8253L27.8727 26.5059C28.3315 26.0348 28.3086 25.7245 27.7759 25.1985L27.3682 24.7959L27.7375 24.0714C27.9407 23.6729 28.1842 23.0925 28.2787 22.7817L28.4505 22.2165H29.0307C29.5354 22.2165 29.6376 22.1897 29.8159 22.0109C29.9842 21.8422 30.0209 21.7225 30.0209 21.3411V20.8768H31.7328C33.1239 20.8768 33.4447 20.8982 33.4447 20.9912C33.4447 21.0541 33.5766 21.3699 33.7378 21.693C34.094 22.4069 34.5952 22.8906 35.3503 23.2493C35.8548 23.4889 35.9841 23.5143 36.7015 23.5143C37.4189 23.5143 37.5481 23.4889 38.0526 23.2493C38.829 22.8806 39.3125 22.4059 39.6881 21.6438C39.9828 21.0459 40 20.9668 40 20.207C40 19.4471 39.9828 19.368 39.6881 18.7701C39.3125 18.008 38.829 17.5334 38.0526 17.1646C37.5481 16.925 37.4189 16.8996 36.7015 16.8996C35.9841 16.8996 35.8548 16.925 35.3503 17.1646C34.5952 17.5233 34.094 18.007 33.7378 18.7209C33.5766 19.044 33.4447 19.3599 33.4447 19.4227C33.4447 19.5157 33.1239 19.5371 31.7328 19.5371H30.0209V19.0728C30.0209 18.6914 29.9842 18.5717 29.8159 18.403C29.6375 18.2241 29.5355 18.1974 29.0285 18.1974H28.4461L28.3106 17.716C28.2361 17.4512 28.0018 16.8679 27.79 16.4198L27.4048 15.6051L27.8455 15.1379C28.2388 14.7209 28.2804 14.6423 28.2332 14.4054C28.2041 14.2594 28.05 14.0063 27.8909 13.8429L27.6016 13.5458L28.7945 12.3519L29.9873 11.158L30.4826 11.3853C31.5169 11.8601 32.9183 11.706 33.8167 11.0187C34.6973 10.3451 35.1343 9.46972 35.1442 8.35912C35.1545 7.22399 34.7098 6.33167 33.7876 5.63696C32.6578 4.78568 30.9685 4.79966 29.831 5.66962C28.622 6.59417 28.1759 8.33366 28.7984 9.69679L29.0253 10.1939L27.8169 11.4056L26.6084 12.6173L26.2685 12.3093C25.7739 11.8613 25.5091 11.8849 24.9633 12.4254L24.535 12.8495L24.1255 12.6085C23.6837 12.3485 22.6063 11.8885 22.2338 11.8009C22.0102 11.7484 22.0042 11.7316 22.0042 11.1586C22.0042 10.6457 21.978 10.5441 21.7992 10.3649C21.6309 10.1961 21.5115 10.1593 21.1311 10.1593H20.6681V8.44285C20.6681 7.04799 20.6894 6.72638 20.7821 6.72638C20.8448 6.72638 21.1598 6.59408 21.4821 6.43248C22.1941 6.07529 22.6765 5.57282 23.0342 4.81565C23.2736 4.30917 23.2985 4.18081 23.2985 3.45654C23.2985 2.70171 23.281 2.62125 22.9866 2.02408C22.4224 0.879237 21.4199 0.207468 20.1878 0.14869C19.8319 0.131692 19.3948 0.154551 19.2165 0.19943ZM20.6166 1.55318C21.3343 1.76577 22.0042 2.68681 22.0042 3.46089C22.0042 4.4984 21.0347 5.47042 20 5.47042C18.9653 5.47042 17.9958 4.4984 17.9958 3.46089C17.9958 2.93465 18.1869 2.51005 18.6193 2.07558C19.2051 1.48695 19.8361 1.32192 20.6166 1.55318ZM32.5364 6.43675C33.0195 6.6074 33.573 7.16119 33.734 7.63502C33.9864 8.37762 33.853 9.03491 33.3289 9.63207C32.8975 10.1235 32.4605 10.3231 31.8163 10.3231C30.6856 10.3231 29.848 9.51292 29.8428 8.41413C29.8398 7.76287 30.0442 7.29859 30.5248 6.86529C31.1326 6.31735 31.7973 6.17577 32.5364 6.43675ZM9.01879 6.55054C10.535 7.25597 10.535 9.47206 9.01879 10.1695C8.60426 10.3601 7.8304 10.3733 7.4086 10.1969C6.68693 9.89515 6.22622 9.18797 6.22313 8.37737C6.21871 7.21796 7.03265 6.39514 8.18372 6.39514C8.49612 6.39514 8.81052 6.45367 9.01879 6.55054ZM20.6681 12.0433C20.6681 12.7418 20.7786 12.8561 21.6385 13.0463C22.4503 13.2259 23.1255 13.495 23.8546 13.9293C24.5881 14.3663 24.821 14.3635 25.3095 13.912L25.6882 13.562L26.1396 14.0167L26.591 14.4714L26.2183 14.9193C26.0133 15.1656 25.8455 15.4315 25.8455 15.5099C25.8455 15.5885 25.9588 15.8319 26.0973 16.0508C26.6426 16.9129 27.0868 17.9975 27.2316 18.8206C27.324 19.3455 27.5778 19.5371 28.18 19.5371H28.6848V20.207V20.8768H28.195C27.4911 20.8768 27.3207 21.0356 27.1393 21.86C26.9623 22.6641 26.6926 23.3432 26.261 24.0719C25.8251 24.8074 25.8279 25.0408 26.2782 25.5306L26.6273 25.9103L26.1542 26.3848L25.6811 26.8591L25.3249 26.5145C24.8108 26.017 24.6696 25.9972 24.1061 26.3434C23.1718 26.9172 22.2072 27.312 21.3826 27.4579C20.8592 27.5505 20.6681 27.805 20.6681 28.4088V28.9149H20H19.3319V28.4238C19.3319 27.724 19.1714 27.547 18.3753 27.3694C17.5694 27.1897 16.8503 26.9045 16.1486 26.4865C15.4116 26.0476 15.1795 26.05 14.6905 26.5019L14.3118 26.852L13.8387 26.3776L13.3656 25.9032L13.7322 25.5287C14.182 25.0691 14.2023 24.8227 13.8373 24.2524C13.4224 23.6041 13.0188 22.6526 12.8315 21.8816C12.6175 21.001 12.4909 20.8768 11.807 20.8768H11.3152V20.207V19.5371H11.805C12.5089 19.5371 12.6793 19.3784 12.8607 18.554C13.0377 17.7498 13.3074 17.0707 13.739 16.3421C14.1749 15.6066 14.1721 15.3731 13.7218 14.8833L13.3727 14.5036L13.829 14.046L14.2853 13.5885L14.7278 13.9671C14.9711 14.1754 15.227 14.3458 15.2963 14.3458C15.3657 14.3458 15.777 14.1427 16.2104 13.8944C16.6438 13.6462 17.3262 13.3429 17.7268 13.2205C18.1273 13.0982 18.6045 12.9527 18.7871 12.8974C19.1929 12.7745 19.329 12.5343 19.3307 11.9386L19.3319 11.499H20H20.6681V12.0433ZM18.8309 14.9777C17.3576 15.2932 15.9033 16.4369 15.2472 17.796C14.4629 19.4208 14.4629 20.9931 15.2472 22.6179C16.0944 24.3727 18.0149 25.5628 20 25.5628C21.977 25.5628 23.8532 24.4037 24.742 22.633C25.5405 21.0424 25.5409 19.3773 24.743 17.7788C23.6678 15.6247 21.2217 14.4658 18.8309 14.9777ZM20.9568 16.3161C22.3972 16.6923 23.5066 17.8083 23.8838 19.2602C24.4246 21.3423 23.0954 23.5393 20.9568 24.0978C18.8672 24.6436 16.6782 23.317 16.1195 21.1663C15.3752 18.3013 18.0994 15.5698 20.9568 16.3161ZM3.91516 18.2992C4.63282 18.5118 5.30271 19.4329 5.30271 20.207C5.30271 21.2445 4.33328 22.2165 3.29854 22.2165C2.77328 22.2165 2.35031 22.025 1.91783 21.5914C1.07299 20.7443 1.07299 19.6706 1.91783 18.8216C2.50363 18.233 3.13461 18.068 3.91516 18.2992ZM37.3181 18.2992C38.0357 18.5118 38.7056 19.4329 38.7056 20.207C38.7056 21.2445 37.7362 22.2165 36.7015 22.2165C36.1762 22.2165 35.7532 22.025 35.3208 21.5914C34.4759 20.7443 34.4759 19.6706 35.3208 18.8216C35.9066 18.233 36.5375 18.068 37.3181 18.2992ZM9.06163 30.2579C9.73077 30.5939 10.1488 31.2708 10.1573 32.0321C10.164 32.6295 9.94856 33.1242 9.51516 33.5067C8.22029 34.6496 6.22129 33.7762 6.22129 32.0675C6.22129 31.4957 6.38514 31.0657 6.74747 30.6871C7.3742 30.0319 8.27766 29.8644 9.06163 30.2579ZM32.3887 30.0939C32.7943 30.2069 33.4228 30.7792 33.6225 31.2175C33.8243 31.6605 33.8237 32.4498 33.6212 32.8968C33.4318 33.3149 32.8866 33.7955 32.4544 33.9253C31.67 34.161 30.9884 33.9868 30.3838 33.3962C28.8718 31.9192 30.3283 29.5203 32.3887 30.0939ZM20.6166 35.0453C21.3343 35.2579 22.0042 36.1789 22.0042 36.953C22.0042 37.9905 21.0347 38.9626 20 38.9626C18.9653 38.9626 17.9958 37.9905 17.9958 36.953C17.9958 36.4268 18.1869 36.0022 18.6193 35.5677C19.2051 34.9791 19.8361 34.8141 20.6166 35.0453Z" fill="#084635"/>
</svg>
