<svg width="100" height="100" viewBox="0 0 100 100" fill="none" xmlns="http://www.w3.org/2000/svg">
<path fill-rule="evenodd" clip-rule="evenodd" d="M81.0097 82.7253C74.0537 82.9781 69.743 79.0781 69.2446 72.4765C68.8872 67.7483 68.6366 67.0061 66.3508 63.9084C71.611 62.788 76.3242 65.7767 77.4035 70.9488C77.6649 72.2001 77.9201 73.4666 78.0025 74.7381C78.1888 77.6065 78.7707 80.3114 81.0097 82.7253Z" fill="white"/>
<path fill-rule="evenodd" clip-rule="evenodd" d="M35.1721 35.7939C28.4058 36.217 24.7568 33.212 24.0099 26.4604C23.3968 20.9192 23.1948 20.264 21.1038 17.0361C26.5373 16.0786 31.6303 19.9938 32.3145 25.6356C32.533 27.4314 32.6261 29.2698 33.1048 30.9988C33.5564 32.6305 34.4405 34.143 35.1721 35.7939Z" fill="white"/>
<path fill-rule="evenodd" clip-rule="evenodd" d="M17.9088 79.0133C17.701 72.8675 21.2564 68.8984 27.7004 68.2033C30.8809 67.86 34.2516 67.8319 36.6615 65.0905C37.8143 69.3125 35.4783 74.284 31.5125 75.6409C29.4323 76.3529 27.1499 76.4545 24.9964 76.9832C22.6282 77.5648 20.3029 78.32 17.9088 79.0133Z" fill="white"/>
<path fill-rule="evenodd" clip-rule="evenodd" d="M51.9645 70.6272C56.733 74.9661 57.6888 79.7359 53.9872 84.4787C53.1986 85.489 52.2762 86.42 51.6366 87.5162C50.446 89.5554 49.4174 91.6896 48.3516 93.7267C44.1036 90.4305 43.4437 84.3365 47.1306 79.6865C50.8903 74.9436 50.8903 74.9436 51.9645 70.6272Z" fill="white"/>
<path fill-rule="evenodd" clip-rule="evenodd" d="M72.1401 48.3463C76.7624 43.1984 81.2301 43.4007 85.3731 46.4848C86.4535 47.2888 87.4527 48.2227 88.6043 48.9065C90.6442 50.1174 92.7725 51.1827 94.8309 52.2907C92.3475 55.8322 86.3101 57.1038 82.3495 54.5484C80.9381 53.6381 79.7261 52.4132 78.2889 51.5558C76.3165 50.3792 74.2165 49.4161 72.1401 48.3463Z" fill="white"/>
<path fill-rule="evenodd" clip-rule="evenodd" d="M64.8927 33.863C64.2011 28.0689 67.2541 23.9987 73.3791 23.0592C75.3843 22.7519 77.4351 22.6176 79.3839 22.1017C80.8985 21.7005 82.2866 20.8296 83.7002 20.1813C84.4256 25.3612 80.9481 30.2259 75.7523 31.0885C74.3523 31.3206 72.8857 31.2643 71.532 31.6374C69.2587 32.2628 67.052 33.1258 64.8927 33.863Z" fill="white"/>
<path fill-rule="evenodd" clip-rule="evenodd" d="M53.4471 5.80609C57.6991 9.6235 58.2354 15.3592 54.6196 19.8907C53.6938 21.0504 52.6636 22.1664 51.9568 23.4525C51.022 25.1556 50.3581 27.0058 49.6096 28.7201C45.0747 25.2292 44.2071 20.1947 47.5846 15.3524C48.4331 14.1365 49.4729 13.042 50.2316 11.7766C51.3844 9.85444 52.3677 7.83167 53.4471 5.80609Z" fill="white"/>
<path fill-rule="evenodd" clip-rule="evenodd" d="M29.7173 51.0472C26.1027 55.64 21 56.4109 16.2197 52.9199C14.7508 51.8473 13.4146 50.5657 11.8571 49.6498C10.2702 48.7159 8.48522 48.1142 6.83569 47.3882C9.11578 44.0714 15.7026 41.6598 20.7319 45.8172C21.9766 46.846 23.2011 47.945 24.5909 48.7423C26.1834 49.6559 27.9492 50.2696 29.7173 51.0472Z" fill="white"/>
<path fill-rule="evenodd" clip-rule="evenodd" d="M52.6405 31.03C50.2424 25.7388 55.0567 23.416 56.7773 19.8379C58.866 21.9355 58.9112 24.2498 56.9308 26.521C55.6505 27.9886 54.2471 29.3506 52.6405 31.03Z" fill="white"/>
<path fill-rule="evenodd" clip-rule="evenodd" d="M80.7888 55.9668C78.1592 57.6788 76.2365 57.6299 74.0811 55.7515C72.6225 54.48 71.2585 53.1 69.8591 51.7757C72.3148 49.7754 75.2706 50.8693 80.7888 55.9668Z" fill="white"/>
<path fill-rule="evenodd" clip-rule="evenodd" d="M63.0595 64.5794C66.2925 65.3014 67.3041 67.6012 67.557 74.9545C65.1578 75.1354 63.2926 73.4739 63.0894 70.7252C62.9381 68.6822 63.0595 66.619 63.0595 64.5794Z" fill="white"/>
<path fill-rule="evenodd" clip-rule="evenodd" d="M25.4409 66.422C25.9388 63.4727 27.441 62.068 30.1456 61.9388C31.0901 61.8927 32.039 61.9467 32.984 61.9101C33.9256 61.8736 34.8655 61.7803 35.8111 61.7124C36.3265 64.7061 32.4539 66.5063 25.4409 66.422Z" fill="white"/>
<path fill-rule="evenodd" clip-rule="evenodd" d="M76.3598 33.0026C75.9336 35.9384 74.3664 37.4488 71.519 37.5943C69.5749 37.6932 67.6222 37.6134 65.7107 37.6134C66.4152 34.3961 67.4777 33.9139 76.3598 33.0026Z" fill="white"/>
<path fill-rule="evenodd" clip-rule="evenodd" d="M20.6929 43.7931C23.4387 41.8619 25.5478 41.7967 27.5501 43.7336C28.98 45.1158 30.0814 46.8335 31.298 48.3623C26.7846 50.3486 24.4808 45.5535 20.6929 43.7931Z" fill="white"/>
<path fill-rule="evenodd" clip-rule="evenodd" d="M44.6901 79.6694C42.8893 76.7313 43.0914 74.781 45.3297 72.4504C46.4938 71.2389 47.6584 70.0286 48.8207 68.8195C50.9574 70.9978 50.1716 73.1633 44.6901 79.6694Z" fill="white"/>
<path fill-rule="evenodd" clip-rule="evenodd" d="M38.6217 35.0549C35.0059 34.0711 34.6158 31.0768 34.219 24.464C36.7113 24.5461 38.4377 26.0991 38.5952 28.6484C38.7255 30.7605 38.6217 32.8872 38.6217 35.0549Z" fill="white"/>
</svg>
