<svg width="30" height="24" viewBox="0 0 30 24" fill="none" xmlns="http://www.w3.org/2000/svg">
<path d="M14.1562 6.46875L13.5938 5.95312L18.375 0.703125C18.9375 0.046875 20.0156 0.046875 20.5781 0.703125L26.7188 7.5C26.9062 7.64062 27 7.875 27 8.10938C27 8.625 26.5781 9 26.0625 9H23.625L28.2188 14.625C28.4062 14.8125 28.5 15.0938 28.5 15.375C28.5 15.9844 27.9375 16.5 27.3281 16.5H24.4688L29.7188 22.2656C29.8594 22.4531 30 22.6875 30 22.9688C30 23.5312 29.4844 24 28.9219 24H18.75C18.8906 23.8125 19.0312 23.5312 19.1719 23.25H28.9219C29.1094 23.25 29.25 23.1562 29.25 22.9688C29.25 22.875 29.2031 22.8281 29.1562 22.7812L23.3438 16.4062C23.2031 16.3125 23.2031 16.125 23.25 15.9844C23.2969 15.8438 23.4375 15.75 23.625 15.75H27.3281C27.5625 15.75 27.75 15.5625 27.75 15.375C27.75 15.2812 27.7031 15.1875 27.6562 15.0938L22.5469 8.90625C22.4531 8.76562 22.4531 8.625 22.5 8.48438C22.5938 8.34375 22.6875 8.25 22.875 8.25H26.0625C26.1562 8.25 26.25 8.20312 26.25 8.10938C26.25 8.0625 26.2031 8.01562 26.2031 8.01562L20.0156 1.21875C19.7344 0.890625 19.2188 0.890625 18.9375 1.21875L14.1562 6.46875ZM10.5 12.375C11.1094 12.375 11.625 12.8906 11.625 13.5V16.5C11.625 17.1562 11.1094 17.625 10.5 17.625H7.5C6.84375 17.625 6.375 17.1562 6.375 16.5V13.5C6.375 12.8906 6.84375 12.375 7.5 12.375H10.5ZM10.5 13.125H7.5C7.26562 13.125 7.125 13.3125 7.125 13.5V16.5C7.125 16.7344 7.26562 16.875 7.5 16.875H10.5C10.6875 16.875 10.875 16.7344 10.875 16.5V13.5C10.875 13.3125 10.6875 13.125 10.5 13.125ZM0 21.375V13.1719C0 12.4219 0.28125 11.7188 0.84375 11.25L7.21875 5.39062C8.20312 4.5 9.75 4.5 10.7344 5.39062L17.1094 11.25C17.6719 11.7188 18 12.4219 18 13.1719V21.375C18 22.8281 16.7812 24 15.375 24H2.625C1.17188 24 0 22.8281 0 21.375ZM0.75 13.1719V21.375C0.75 22.4531 1.54688 23.25 2.625 23.25H15.375C16.4062 23.25 17.25 22.4531 17.25 21.375V13.1719C17.25 12.6562 17.0156 12.1406 16.6406 11.8125L10.2656 5.95312C9.51562 5.29688 8.4375 5.29688 7.6875 5.95312L1.3125 11.8125C0.9375 12.1406 0.75 12.6562 0.75 13.1719Z" fill="#035745"/>
</svg>
