<svg width="53" height="53" viewBox="0 0 53 53" fill="none" xmlns="http://www.w3.org/2000/svg">
<g clip-path="url(#clip0_218_2457)">
<path d="M46.3745 45.05H6.625V46.375H46.3745V45.05Z" fill="#084635"/>
<path d="M46.3745 45.05H6.625V46.375H46.3745V45.05Z" stroke="#084635"/>
<path d="M44.9793 12.2918L42.3294 6.9919C42.166 6.66446 41.7682 6.53147 41.4408 6.69486L41.4403 6.6951L36.1404 9.34507C35.8129 9.50862 35.68 9.9067 35.8436 10.2341C36.0071 10.5616 36.4052 10.6945 36.7326 10.5309L40.5711 8.61302L39.5237 11.6035C34.92 24.7149 23.0623 33.9132 9.21802 35.1127L9.33064 36.4377C23.6965 35.1932 36.0004 25.6469 40.7752 12.0407L41.8444 8.98534L43.7935 12.8841C43.957 13.2115 44.3551 13.3444 44.6825 13.1809C45.01 13.0173 45.1429 12.6194 44.9793 12.2918Z" fill="#084635"/>
<path d="M44.9793 12.2918L42.3294 6.9919C42.166 6.66446 41.7682 6.53147 41.4408 6.69486L41.4403 6.6951L36.1404 9.34507C35.8129 9.50862 35.68 9.9067 35.8436 10.2341C36.0071 10.5616 36.4052 10.6945 36.7326 10.5309L40.5711 8.61302L39.5237 11.6035C34.92 24.7149 23.0623 33.9132 9.21802 35.1127L9.33064 36.4377C23.6965 35.1932 36.0004 25.6469 40.7752 12.0407L41.8444 8.98534L43.7935 12.8841C43.957 13.2115 44.3551 13.3444 44.6825 13.1809C45.01 13.0173 45.1429 12.6194 44.9793 12.2918Z" stroke="#387D71"/>
<path d="M14.5748 38.4252H9.93739C9.57153 38.4252 9.2749 38.7218 9.2749 39.0877V43.0626C9.2749 43.4285 9.57153 43.7251 9.93739 43.7251H14.5748C14.9407 43.7251 15.2373 43.4285 15.2373 43.0626V39.0877C15.2373 38.7218 14.9407 38.4252 14.5748 38.4252ZM13.9123 42.4001H10.5999V39.7502H13.9123V42.4001Z" fill="#084635"/>
<path d="M14.5748 38.4252H9.93739C9.57153 38.4252 9.2749 38.7218 9.2749 39.0877V43.0626C9.2749 43.4285 9.57153 43.7251 9.93739 43.7251H14.5748C14.9407 43.7251 15.2373 43.4285 15.2373 43.0626V39.0877C15.2373 38.7218 14.9407 38.4252 14.5748 38.4252ZM13.9123 42.4001H10.5999V39.7502H13.9123V42.4001Z" stroke="#387D71"/>
<path d="M21.862 36.4376H17.2245C16.8586 36.4376 16.562 36.7343 16.562 37.1001V43.0625C16.562 43.4284 16.8586 43.725 17.2245 43.725H21.862C22.2278 43.725 22.5244 43.4284 22.5244 43.0625V37.1001C22.5244 36.7343 22.2278 36.4376 21.862 36.4376ZM21.1995 42.4001H17.887V37.7626H21.1995V42.4001Z" fill="#084635"/>
<path d="M21.862 36.4376H17.2245C16.8586 36.4376 16.562 36.7343 16.562 37.1001V43.0625C16.562 43.4284 16.8586 43.725 17.2245 43.725H21.862C22.2278 43.725 22.5244 43.4284 22.5244 43.0625V37.1001C22.5244 36.7343 22.2278 36.4376 21.862 36.4376ZM21.1995 42.4001H17.887V37.7626H21.1995V42.4001Z" stroke="#387D71"/>
<path d="M29.1495 33.1252H24.5121C24.1462 33.1252 23.8496 33.4219 23.8496 33.7877V43.0626C23.8496 43.4285 24.1462 43.7251 24.5121 43.7251H29.1495C29.5154 43.7251 29.812 43.4285 29.812 43.0626V33.7877C29.812 33.4219 29.5154 33.1252 29.1495 33.1252ZM28.487 42.4001H25.1746V34.4502H28.487V42.4001Z" fill="#084635"/>
<path d="M29.1495 33.1252H24.5121C24.1462 33.1252 23.8496 33.4219 23.8496 33.7877V43.0626C23.8496 43.4285 24.1462 43.7251 24.5121 43.7251H29.1495C29.5154 43.7251 29.812 43.4285 29.812 43.0626V33.7877C29.812 33.4219 29.5154 33.1252 29.1495 33.1252ZM28.487 42.4001H25.1746V34.4502H28.487V42.4001Z" stroke="#387D71"/>
<path d="M36.4369 28.4878H31.7995C31.4336 28.4878 31.137 28.7844 31.137 29.1503V43.0626C31.137 43.4285 31.4336 43.7251 31.7995 43.7251H36.4369C36.8028 43.7251 37.0994 43.4285 37.0994 43.0626V29.1503C37.0994 28.7844 36.8028 28.4878 36.4369 28.4878ZM35.7744 42.4001H32.4619V29.8128H35.7744V42.4001Z" fill="#084635"/>
<path d="M36.4369 28.4878H31.7995C31.4336 28.4878 31.137 28.7844 31.137 29.1503V43.0626C31.137 43.4285 31.4336 43.7251 31.7995 43.7251H36.4369C36.8028 43.7251 37.0994 43.4285 37.0994 43.0626V29.1503C37.0994 28.7844 36.8028 28.4878 36.4369 28.4878ZM35.7744 42.4001H32.4619V29.8128H35.7744V42.4001Z" stroke="#387D71"/>
<path d="M43.7245 19.2128H39.0871C38.7212 19.2128 38.4246 19.5094 38.4246 19.8753V43.0625C38.4246 43.4283 38.7212 43.725 39.0871 43.725H43.7245C44.0903 43.725 44.387 43.4283 44.387 43.0625V19.8753C44.387 19.5094 44.0903 19.2128 43.7245 19.2128ZM43.062 42.4H39.7495V20.5378H43.062V42.4Z" fill="#084635"/>
<path d="M43.7245 19.2128H39.0871C38.7212 19.2128 38.4246 19.5094 38.4246 19.8753V43.0625C38.4246 43.4283 38.7212 43.725 39.0871 43.725H43.7245C44.0903 43.725 44.387 43.4283 44.387 43.0625V19.8753C44.387 19.5094 44.0903 19.2128 43.7245 19.2128ZM43.062 42.4H39.7495V20.5378H43.062V42.4Z" stroke="#387D71"/>
</g>
<defs>
<clipPath id="clip0_218_2457">
<rect width="39.75" height="39.75" fill="white" transform="translate(6.625 6.625)"/>
</clipPath>
</defs>
</svg>
