<svg width="52" height="52" viewBox="0 0 52 52" fill="none" xmlns="http://www.w3.org/2000/svg">
<mask id="path-1-inside-1_218_2486" fill="white">
<path d="M49.426 19.5763C48.9185 18.9718 48.4782 18.4541 47.4136 18.5024C47.0616 18.5184 46.769 18.5259 46.4929 18.5259C46.111 18.5259 45.7672 18.5112 45.4419 18.4808C45.0613 18.4456 44.5592 18.4016 44.0495 18.3735L43.9784 18.3697C43.6467 18.3524 43.3603 18.3375 43.1007 18.1164C42.9463 17.9849 42.8333 17.7909 42.7821 17.5704C42.6918 17.1813 42.8289 17.0189 43.0019 16.8133L43.042 16.7652C43.2327 16.5351 43.3096 16.2979 43.2713 16.0593C43.2268 15.7842 43.0276 15.5289 42.6954 15.3215C42.5018 15.2008 42.2955 15.1239 42.0963 15.0495C41.901 14.9767 41.7162 14.9077 41.5461 14.8014C40.9234 14.4121 40.7401 14.0405 40.4367 13.425L40.3582 13.267C40.0541 12.6558 39.9357 12.0554 39.8106 11.4201C39.7473 11.0981 39.6817 10.7651 39.5896 10.4242C39.3495 9.53611 38.6933 8.67713 38.148 8.02787C37.8062 7.62051 37.5193 7.13955 37.2154 6.63028C36.7864 5.91155 36.35 5.16219 35.7002 4.61741C35.5275 4.47253 35.3405 4.3454 35.1444 4.23449C35 4.15292 34.7802 3.99388 34.6086 3.99697C34.3402 4.0016 34.3065 4.4311 34.2347 4.61689C34.0839 5.00779 33.7566 5.21365 33.5381 5.55385C33.4233 5.7327 33.3371 5.91103 33.2537 6.08345C33.1058 6.38916 32.9663 6.67789 32.6809 6.94706C32.2872 7.31866 31.7856 7.4674 31.255 7.62514C30.5872 7.82329 29.8968 8.02839 29.4068 8.70286C29.1256 9.08989 29.0103 9.50472 28.9084 9.87039C28.7465 10.452 28.607 10.954 27.8654 11.2363C27.5795 11.3449 27.2769 11.3498 26.9562 11.355C26.7318 11.3586 26.4997 11.3624 26.2504 11.3997C26.026 11.4334 25.8839 11.4538 25.7964 11.4538C25.7035 11.4538 25.6927 11.4417 25.5893 11.3238C25.4892 11.2103 25.3381 11.0384 25.0126 10.7896C24.7712 10.6053 24.5164 10.4599 24.2702 10.3194C23.836 10.0716 23.4261 9.83745 23.1201 9.41723C22.8198 9.00446 22.6078 8.51964 22.4562 8.14316C22.43 8.07831 22.4063 7.99133 22.38 7.89663C22.2977 7.6007 22.2043 7.26513 21.9742 7.14058C21.8749 7.08731 21.7274 7.12051 21.5946 7.16091C21.5324 7.17995 21.4691 7.19848 21.4199 7.19925C21.0491 7.14135 20.8646 7.09915 20.7212 6.77208C20.678 6.67352 20.6644 6.56544 20.65 6.45118C20.6286 6.28159 20.6065 6.10661 20.4858 5.95118C20.378 5.8117 20.2333 5.74196 20.106 5.6802C20.0149 5.6362 19.9382 5.56028 19.8551 5.50032C19.764 5.43445 19.6693 5.42467 19.5707 5.38015C19.3782 5.29343 19.2905 5.08035 19.2091 4.8997C19.1121 4.68431 19.002 4.43985 18.7624 4.29471C18.5509 4.1663 18.2362 4.18972 17.9003 4.24582C17.7439 4.27181 17.5823 4.29883 17.4222 4.29883C17.3123 4.29831 17.2122 4.23887 17.1728 4.1506C17.0576 3.89172 16.8051 3.72548 16.5146 3.71622C15.8406 3.69666 15.5277 3.81607 15.0594 4.32019C14.7186 4.6874 14.3427 4.97639 13.8761 5.22987C13.61 5.37449 13.487 5.68689 13.59 5.95684C13.7433 6.35828 14.1368 6.6537 14.5303 6.79858C14.6885 6.857 14.8061 6.99338 14.8198 7.16142C14.8627 7.69205 14.9654 7.98541 15.5123 8.42262C16.1605 8.94064 16.7202 9.38789 17.3538 10.0778C17.4011 10.1293 17.4531 10.1828 17.5071 10.2381C17.7905 10.5281 18.1119 10.8568 18.0329 11.2332C18.0133 11.3264 17.9379 11.4141 17.8584 11.507C17.7709 11.6089 17.6806 11.7145 17.644 11.8485C17.5987 12.015 17.6564 12.1228 17.6988 12.2018C17.7395 12.2778 17.758 12.3122 17.7063 12.4154C17.565 12.6977 17.3324 12.8349 16.995 12.8349C16.3826 12.8349 15.6008 12.381 15.2184 12.1591C14.6875 11.8508 14.1932 11.8112 13.8221 11.8112C13.634 11.8112 13.4446 11.8225 13.2513 11.8341C12.8743 11.8568 12.4616 11.8709 12.1167 11.8256C11.6988 11.7711 11.2251 11.6246 10.6674 11.3781L10.5511 11.3272C10.0349 11.1015 9.87894 11.0333 9.79736 10.5124C9.7706 10.3423 9.76416 10.2016 9.7585 10.0773C9.74126 9.70107 9.72994 9.45222 9.19571 9.13905C8.74512 8.87476 8.32231 8.84748 7.87481 8.81841C7.74022 8.80966 7.60178 8.80091 7.45741 8.78495C7.16019 8.75227 7.00141 8.64213 6.83337 8.52556C6.6625 8.40693 6.48571 8.28418 6.18051 8.24558C6.12905 8.23914 6.07681 8.2358 6.02405 8.2358C5.39075 8.2358 4.7734 8.67327 4.59919 8.80734C3.74689 9.46329 3.2456 10.4826 3.29398 11.3964C3.30788 11.6568 3.49779 11.8753 3.7595 11.9152C3.97412 11.9481 4.19646 11.9823 4.40747 12.0518C4.40799 12.0567 4.40824 12.0683 4.39615 12.0758C3.90953 12.373 3.70984 12.6615 3.54926 12.8933C3.46717 13.0117 3.4579 13.1648 3.52455 13.2927C3.59198 13.4214 3.72373 13.5014 3.87633 13.5014C5.01658 13.4811 5.74896 13.5035 6.83337 14.0745C7.33672 14.3393 8.14141 14.9275 8.27136 15.3496C8.39051 15.7363 8.39385 16.0063 8.28166 16.1746C8.18052 16.3259 7.97903 16.4167 7.62133 16.468C7.47671 16.4885 7.35113 16.5714 7.26184 16.6867C7.21629 16.7456 7.15967 16.8017 7.101 16.8599C6.98108 16.9785 6.84495 17.1131 6.77805 17.3035C6.24459 18.8197 7.86014 20.0833 9.1584 21.0982C9.58583 21.4325 9.98933 21.7477 10.2516 22.0256C10.3172 22.0954 10.3843 22.1646 10.4515 22.2343C11.1427 22.9507 11.7953 23.6273 11.2611 24.5943C10.9857 25.0931 10.4852 25.1113 9.90596 25.1324C9.35886 25.1522 8.79298 25.1726 8.41264 25.6407C8.39051 25.6679 8.38047 25.7029 8.38485 25.7379C8.38922 25.7729 8.40775 25.8043 8.4358 25.8252C8.68747 26.012 8.93168 26.0907 9.16817 26.1672C9.47518 26.2665 9.74023 26.3522 9.99139 26.6605C10.0696 26.7565 10.1399 26.862 10.214 26.9734C10.3272 27.1433 10.4443 27.319 10.5946 27.4644C10.7186 27.5846 10.8499 27.6775 10.9767 27.7678C11.1471 27.8888 11.3082 28.003 11.4415 28.1739C11.5254 28.2814 11.5961 28.3965 11.671 28.5184C11.7822 28.6994 11.897 28.8867 12.0583 29.0473C12.4363 29.424 12.9363 29.7084 13.5449 29.8926C13.7662 29.9598 13.9945 29.9683 14.1685 29.9683C14.2675 29.9683 14.3674 29.9649 14.467 29.9618C14.5635 29.9585 14.66 29.9557 14.7552 29.9557C14.9888 29.9557 15.1577 29.976 15.303 30.0223C15.539 30.0972 15.747 30.1824 15.9479 30.2645C16.0774 30.3175 16.2089 30.3713 16.3481 30.4225C16.6963 30.5504 16.7385 31.0445 16.3993 31.195C16.2331 31.2689 16.0231 31.2982 15.8005 31.3296C15.4014 31.3857 14.9886 31.4433 14.8718 31.8224C14.7374 32.2578 15.2323 32.5293 15.5596 32.7089C15.6384 32.7521 15.7078 32.7897 15.7547 32.8234C16.0025 33.001 16.0673 33.117 16.1571 33.2774C16.212 33.3754 16.2745 33.4866 16.3849 33.6266C16.4762 33.7429 16.6121 33.8327 16.7436 33.9194C17.0208 34.1024 17.1453 34.2084 17.0915 34.3896C17.0238 34.6181 16.7699 34.651 16.4181 34.6729C16.3113 34.6796 16.2104 34.686 16.1229 34.7035C15.686 34.7925 15.503 34.8978 15.4909 35.0669C15.4734 35.3129 15.854 35.4614 16.4765 35.6834C16.5321 35.7033 16.5872 35.7228 16.6399 35.7421C16.8453 35.8167 16.9657 36.0383 16.9019 36.2473C16.8465 36.4287 16.7573 36.6042 16.6651 36.7853C16.4755 37.158 16.2794 37.5432 16.3712 38.0177C16.3782 38.054 16.4003 38.0857 16.4322 38.1042C16.4644 38.123 16.5027 38.1276 16.5375 38.1158C17.2282 37.8906 18.1484 36.833 18.4624 36.3849C18.5352 36.281 18.5954 36.1713 18.6536 36.0656C18.7866 35.8237 18.9122 35.5949 19.1716 35.4668C19.2917 35.4076 19.4235 35.3811 19.5987 35.3811C19.677 35.3811 19.7555 35.386 19.834 35.3906C20.0504 35.404 20.2634 35.4053 20.4341 35.3613C21.0064 35.2133 21.2081 34.8 21.4034 34.4009C21.5468 34.108 21.6819 33.8314 21.9585 33.6384C22.194 33.474 22.4673 33.3432 22.7568 33.2043C23.1407 33.0203 23.5378 32.8301 23.8612 32.5483C24.064 32.3713 24.1847 32.1801 24.3015 31.9953C24.4119 31.8203 24.5162 31.6551 24.6876 31.5005C25.0687 31.1567 25.5422 30.8756 25.9969 30.6237C26.3088 30.4505 26.5779 30.2647 26.8384 30.0851C27.3605 29.7248 27.8116 29.4135 28.4591 29.291C29.6618 29.064 29.9483 29.3674 30.7843 30.1968L31.0597 30.468C31.6011 30.9986 32.4194 31.8 32.756 32.4137C32.8276 32.5439 32.9012 32.7207 32.8471 32.8237C32.7674 32.9758 32.3983 33.0131 32.0728 33.0463C31.7501 33.0789 31.4166 33.1129 31.1958 33.2519C30.9526 33.405 30.7982 33.6425 30.7499 33.939C30.6649 34.4559 30.9055 35.0288 31.1817 35.3674C31.3052 35.519 31.4987 35.677 31.7038 35.8443C32.0502 36.1271 32.481 36.4789 32.44 36.7449C32.4161 36.8999 32.2218 37.0543 31.878 37.1917C31.7241 37.2529 31.465 37.2977 31.1902 37.3451C30.5424 37.4567 29.7365 37.5954 29.4418 38.0803C29.3116 38.2946 29.2941 38.554 29.3888 38.8512C29.5108 39.2323 29.9323 39.3638 30.3044 39.4796C30.4879 39.537 30.6611 39.5911 30.7946 39.6678C31.1166 39.8536 31.4269 40.1474 31.7712 40.5931C31.8404 40.6824 31.8749 40.8096 31.9086 40.9323C31.9416 41.0527 31.9727 41.1665 32.0376 41.2519C32.1812 41.4405 32.2741 41.4863 32.3994 41.535C32.4557 41.5566 32.5139 41.5792 32.5973 41.6341C32.6729 41.684 32.7535 41.7347 32.8366 41.7867C33.141 41.9773 33.4856 42.1935 33.7146 42.4714C33.8479 42.6333 33.9346 42.7622 34.0111 42.8762C34.236 43.2108 34.3608 43.3654 34.9601 43.5239C35.1876 43.5839 35.3554 43.6109 35.5044 43.6109C35.7527 43.6109 35.9336 43.5337 36.184 43.4267C36.2602 43.394 36.3451 43.3577 36.4431 43.3188L36.5157 43.29C37.1428 43.0412 37.2288 42.9779 37.3801 42.1577C37.4604 41.7246 37.6094 40.9192 37.4676 40.395C37.4061 40.1667 37.3026 40.0036 37.2115 39.8592C37.0785 39.6492 36.9735 39.483 36.9959 39.1588C37.0281 38.6986 37.1899 38.597 37.4581 38.4287C37.5921 38.3445 37.7437 38.2493 37.9033 38.0949C38.3961 37.6183 38.2823 36.8044 38.1722 36.0172C38.1302 35.7182 38.0909 35.4356 38.0847 35.1783C38.0829 35.1055 38.1349 35.0442 38.2028 35.0388C38.3876 35.0249 38.5857 35.1042 38.7988 35.1883C39.0173 35.2748 39.2432 35.3641 39.5023 35.3641C40.3099 35.3456 40.5219 34.8157 40.6228 34.3C40.6601 34.1116 40.6498 33.9143 40.6411 33.74C40.6328 33.5743 40.6236 33.3867 40.6732 33.3342C40.699 33.3075 40.7751 33.3069 40.8853 33.3355C41.1084 33.3914 41.3029 33.5213 41.509 33.659L41.5935 33.7151C41.7589 33.8247 41.9898 33.7822 42.1084 33.6271C42.1807 33.5316 42.2039 33.4094 42.1714 33.292C42.0417 32.8234 41.85 32.2861 41.4097 31.8533C40.7334 31.1888 40.6614 30.6103 41.1604 29.8566C41.2237 29.7609 41.348 29.6551 41.4676 29.5527C41.6691 29.3805 41.8778 29.2027 41.9231 28.9847C41.9864 28.6798 41.8536 28.51 41.7471 28.3733C41.6429 28.2398 41.5605 28.1342 41.5968 27.8965C41.6205 27.7413 41.7543 27.6124 41.8958 27.4755C42.0636 27.3136 42.2538 27.1301 42.263 26.8707C42.2715 26.6265 42.1429 26.4786 42.0492 26.3707C41.929 26.2328 41.8742 26.1698 42.0327 25.9405C42.0708 25.8851 42.1346 25.8656 42.2352 25.8383C42.3788 25.7992 42.5752 25.7457 42.6593 25.4912C42.7522 25.2104 42.6411 25.0398 42.5515 24.9026C42.5142 24.8452 42.4792 24.7915 42.4553 24.7294C42.428 24.6587 42.3999 24.5913 42.3734 24.5269C42.2036 24.1172 42.1009 23.8702 42.4491 23.4564C43.006 22.7943 44.1663 22.1556 45.0088 21.8427C45.7255 21.5763 46.9594 21.3066 47.9308 21.3066C48.1308 21.3066 48.3115 21.3182 48.4679 21.3414C48.8621 21.399 49.7816 21.8442 50.06 22.4546C50.1143 22.574 50.2309 22.6481 50.3642 22.6481C50.5305 22.6481 50.6707 22.5372 50.7065 22.3789C50.873 21.6342 50.5716 20.8275 49.8338 20.0457C49.6856 19.8859 49.5536 19.7284 49.426 19.5763Z"/>
</mask>
<path d="M49.426 19.5763C48.9185 18.9718 48.4782 18.4541 47.4136 18.5024C47.0616 18.5184 46.769 18.5259 46.4929 18.5259C46.111 18.5259 45.7672 18.5112 45.4419 18.4808C45.0613 18.4456 44.5592 18.4016 44.0495 18.3735L43.9784 18.3697C43.6467 18.3524 43.3603 18.3375 43.1007 18.1164C42.9463 17.9849 42.8333 17.7909 42.7821 17.5704C42.6918 17.1813 42.8289 17.0189 43.0019 16.8133L43.042 16.7652C43.2327 16.5351 43.3096 16.2979 43.2713 16.0593C43.2268 15.7842 43.0276 15.5289 42.6954 15.3215C42.5018 15.2008 42.2955 15.1239 42.0963 15.0495C41.901 14.9767 41.7162 14.9077 41.5461 14.8014C40.9234 14.4121 40.7401 14.0405 40.4367 13.425L40.3582 13.267C40.0541 12.6558 39.9357 12.0554 39.8106 11.4201C39.7473 11.0981 39.6817 10.7651 39.5896 10.4242C39.3495 9.53611 38.6933 8.67713 38.148 8.02787C37.8062 7.62051 37.5193 7.13955 37.2154 6.63028C36.7864 5.91155 36.35 5.16219 35.7002 4.61741C35.5275 4.47253 35.3405 4.3454 35.1444 4.23449C35 4.15292 34.7802 3.99388 34.6086 3.99697C34.3402 4.0016 34.3065 4.4311 34.2347 4.61689C34.0839 5.00779 33.7566 5.21365 33.5381 5.55385C33.4233 5.7327 33.3371 5.91103 33.2537 6.08345C33.1058 6.38916 32.9663 6.67789 32.6809 6.94706C32.2872 7.31866 31.7856 7.4674 31.255 7.62514C30.5872 7.82329 29.8968 8.02839 29.4068 8.70286C29.1256 9.08989 29.0103 9.50472 28.9084 9.87039C28.7465 10.452 28.607 10.954 27.8654 11.2363C27.5795 11.3449 27.2769 11.3498 26.9562 11.355C26.7318 11.3586 26.4997 11.3624 26.2504 11.3997C26.026 11.4334 25.8839 11.4538 25.7964 11.4538C25.7035 11.4538 25.6927 11.4417 25.5893 11.3238C25.4892 11.2103 25.3381 11.0384 25.0126 10.7896C24.7712 10.6053 24.5164 10.4599 24.2702 10.3194C23.836 10.0716 23.4261 9.83745 23.1201 9.41723C22.8198 9.00446 22.6078 8.51964 22.4562 8.14316C22.43 8.07831 22.4063 7.99133 22.38 7.89663C22.2977 7.6007 22.2043 7.26513 21.9742 7.14058C21.8749 7.08731 21.7274 7.12051 21.5946 7.16091C21.5324 7.17995 21.4691 7.19848 21.4199 7.19925C21.0491 7.14135 20.8646 7.09915 20.7212 6.77208C20.678 6.67352 20.6644 6.56544 20.65 6.45118C20.6286 6.28159 20.6065 6.10661 20.4858 5.95118C20.378 5.8117 20.2333 5.74196 20.106 5.6802C20.0149 5.6362 19.9382 5.56028 19.8551 5.50032C19.764 5.43445 19.6693 5.42467 19.5707 5.38015C19.3782 5.29343 19.2905 5.08035 19.2091 4.8997C19.1121 4.68431 19.002 4.43985 18.7624 4.29471C18.5509 4.1663 18.2362 4.18972 17.9003 4.24582C17.7439 4.27181 17.5823 4.29883 17.4222 4.29883C17.3123 4.29831 17.2122 4.23887 17.1728 4.1506C17.0576 3.89172 16.8051 3.72548 16.5146 3.71622C15.8406 3.69666 15.5277 3.81607 15.0594 4.32019C14.7186 4.6874 14.3427 4.97639 13.8761 5.22987C13.61 5.37449 13.487 5.68689 13.59 5.95684C13.7433 6.35828 14.1368 6.6537 14.5303 6.79858C14.6885 6.857 14.8061 6.99338 14.8198 7.16142C14.8627 7.69205 14.9654 7.98541 15.5123 8.42262C16.1605 8.94064 16.7202 9.38789 17.3538 10.0778C17.4011 10.1293 17.4531 10.1828 17.5071 10.2381C17.7905 10.5281 18.1119 10.8568 18.0329 11.2332C18.0133 11.3264 17.9379 11.4141 17.8584 11.507C17.7709 11.6089 17.6806 11.7145 17.644 11.8485C17.5987 12.015 17.6564 12.1228 17.6988 12.2018C17.7395 12.2778 17.758 12.3122 17.7063 12.4154C17.565 12.6977 17.3324 12.8349 16.995 12.8349C16.3826 12.8349 15.6008 12.381 15.2184 12.1591C14.6875 11.8508 14.1932 11.8112 13.8221 11.8112C13.634 11.8112 13.4446 11.8225 13.2513 11.8341C12.8743 11.8568 12.4616 11.8709 12.1167 11.8256C11.6988 11.7711 11.2251 11.6246 10.6674 11.3781L10.5511 11.3272C10.0349 11.1015 9.87894 11.0333 9.79736 10.5124C9.7706 10.3423 9.76416 10.2016 9.7585 10.0773C9.74126 9.70107 9.72994 9.45222 9.19571 9.13905C8.74512 8.87476 8.32231 8.84748 7.87481 8.81841C7.74022 8.80966 7.60178 8.80091 7.45741 8.78495C7.16019 8.75227 7.00141 8.64213 6.83337 8.52556C6.6625 8.40693 6.48571 8.28418 6.18051 8.24558C6.12905 8.23914 6.07681 8.2358 6.02405 8.2358C5.39075 8.2358 4.7734 8.67327 4.59919 8.80734C3.74689 9.46329 3.2456 10.4826 3.29398 11.3964C3.30788 11.6568 3.49779 11.8753 3.7595 11.9152C3.97412 11.9481 4.19646 11.9823 4.40747 12.0518C4.40799 12.0567 4.40824 12.0683 4.39615 12.0758C3.90953 12.373 3.70984 12.6615 3.54926 12.8933C3.46717 13.0117 3.4579 13.1648 3.52455 13.2927C3.59198 13.4214 3.72373 13.5014 3.87633 13.5014C5.01658 13.4811 5.74896 13.5035 6.83337 14.0745C7.33672 14.3393 8.14141 14.9275 8.27136 15.3496C8.39051 15.7363 8.39385 16.0063 8.28166 16.1746C8.18052 16.3259 7.97903 16.4167 7.62133 16.468C7.47671 16.4885 7.35113 16.5714 7.26184 16.6867C7.21629 16.7456 7.15967 16.8017 7.101 16.8599C6.98108 16.9785 6.84495 17.1131 6.77805 17.3035C6.24459 18.8197 7.86014 20.0833 9.1584 21.0982C9.58583 21.4325 9.98933 21.7477 10.2516 22.0256C10.3172 22.0954 10.3843 22.1646 10.4515 22.2343C11.1427 22.9507 11.7953 23.6273 11.2611 24.5943C10.9857 25.0931 10.4852 25.1113 9.90596 25.1324C9.35886 25.1522 8.79298 25.1726 8.41264 25.6407C8.39051 25.6679 8.38047 25.7029 8.38485 25.7379C8.38922 25.7729 8.40775 25.8043 8.4358 25.8252C8.68747 26.012 8.93168 26.0907 9.16817 26.1672C9.47518 26.2665 9.74023 26.3522 9.99139 26.6605C10.0696 26.7565 10.1399 26.862 10.214 26.9734C10.3272 27.1433 10.4443 27.319 10.5946 27.4644C10.7186 27.5846 10.8499 27.6775 10.9767 27.7678C11.1471 27.8888 11.3082 28.003 11.4415 28.1739C11.5254 28.2814 11.5961 28.3965 11.671 28.5184C11.7822 28.6994 11.897 28.8867 12.0583 29.0473C12.4363 29.424 12.9363 29.7084 13.5449 29.8926C13.7662 29.9598 13.9945 29.9683 14.1685 29.9683C14.2675 29.9683 14.3674 29.9649 14.467 29.9618C14.5635 29.9585 14.66 29.9557 14.7552 29.9557C14.9888 29.9557 15.1577 29.976 15.303 30.0223C15.539 30.0972 15.747 30.1824 15.9479 30.2645C16.0774 30.3175 16.2089 30.3713 16.3481 30.4225C16.6963 30.5504 16.7385 31.0445 16.3993 31.195C16.2331 31.2689 16.0231 31.2982 15.8005 31.3296C15.4014 31.3857 14.9886 31.4433 14.8718 31.8224C14.7374 32.2578 15.2323 32.5293 15.5596 32.7089C15.6384 32.7521 15.7078 32.7897 15.7547 32.8234C16.0025 33.001 16.0673 33.117 16.1571 33.2774C16.212 33.3754 16.2745 33.4866 16.3849 33.6266C16.4762 33.7429 16.6121 33.8327 16.7436 33.9194C17.0208 34.1024 17.1453 34.2084 17.0915 34.3896C17.0238 34.6181 16.7699 34.651 16.4181 34.6729C16.3113 34.6796 16.2104 34.686 16.1229 34.7035C15.686 34.7925 15.503 34.8978 15.4909 35.0669C15.4734 35.3129 15.854 35.4614 16.4765 35.6834C16.5321 35.7033 16.5872 35.7228 16.6399 35.7421C16.8453 35.8167 16.9657 36.0383 16.9019 36.2473C16.8465 36.4287 16.7573 36.6042 16.6651 36.7853C16.4755 37.158 16.2794 37.5432 16.3712 38.0177C16.3782 38.054 16.4003 38.0857 16.4322 38.1042C16.4644 38.123 16.5027 38.1276 16.5375 38.1158C17.2282 37.8906 18.1484 36.833 18.4624 36.3849C18.5352 36.281 18.5954 36.1713 18.6536 36.0656C18.7866 35.8237 18.9122 35.5949 19.1716 35.4668C19.2917 35.4076 19.4235 35.3811 19.5987 35.3811C19.677 35.3811 19.7555 35.386 19.834 35.3906C20.0504 35.404 20.2634 35.4053 20.4341 35.3613C21.0064 35.2133 21.2081 34.8 21.4034 34.4009C21.5468 34.108 21.6819 33.8314 21.9585 33.6384C22.194 33.474 22.4673 33.3432 22.7568 33.2043C23.1407 33.0203 23.5378 32.8301 23.8612 32.5483C24.064 32.3713 24.1847 32.1801 24.3015 31.9953C24.4119 31.8203 24.5162 31.6551 24.6876 31.5005C25.0687 31.1567 25.5422 30.8756 25.9969 30.6237C26.3088 30.4505 26.5779 30.2647 26.8384 30.0851C27.3605 29.7248 27.8116 29.4135 28.4591 29.291C29.6618 29.064 29.9483 29.3674 30.7843 30.1968L31.0597 30.468C31.6011 30.9986 32.4194 31.8 32.756 32.4137C32.8276 32.5439 32.9012 32.7207 32.8471 32.8237C32.7674 32.9758 32.3983 33.0131 32.0728 33.0463C31.7501 33.0789 31.4166 33.1129 31.1958 33.2519C30.9526 33.405 30.7982 33.6425 30.7499 33.939C30.6649 34.4559 30.9055 35.0288 31.1817 35.3674C31.3052 35.519 31.4987 35.677 31.7038 35.8443C32.0502 36.1271 32.481 36.4789 32.44 36.7449C32.4161 36.8999 32.2218 37.0543 31.878 37.1917C31.7241 37.2529 31.465 37.2977 31.1902 37.3451C30.5424 37.4567 29.7365 37.5954 29.4418 38.0803C29.3116 38.2946 29.2941 38.554 29.3888 38.8512C29.5108 39.2323 29.9323 39.3638 30.3044 39.4796C30.4879 39.537 30.6611 39.5911 30.7946 39.6678C31.1166 39.8536 31.4269 40.1474 31.7712 40.5931C31.8404 40.6824 31.8749 40.8096 31.9086 40.9323C31.9416 41.0527 31.9727 41.1665 32.0376 41.2519C32.1812 41.4405 32.2741 41.4863 32.3994 41.535C32.4557 41.5566 32.5139 41.5792 32.5973 41.6341C32.6729 41.684 32.7535 41.7347 32.8366 41.7867C33.141 41.9773 33.4856 42.1935 33.7146 42.4714C33.8479 42.6333 33.9346 42.7622 34.0111 42.8762C34.236 43.2108 34.3608 43.3654 34.9601 43.5239C35.1876 43.5839 35.3554 43.6109 35.5044 43.6109C35.7527 43.6109 35.9336 43.5337 36.184 43.4267C36.2602 43.394 36.3451 43.3577 36.4431 43.3188L36.5157 43.29C37.1428 43.0412 37.2288 42.9779 37.3801 42.1577C37.4604 41.7246 37.6094 40.9192 37.4676 40.395C37.4061 40.1667 37.3026 40.0036 37.2115 39.8592C37.0785 39.6492 36.9735 39.483 36.9959 39.1588C37.0281 38.6986 37.1899 38.597 37.4581 38.4287C37.5921 38.3445 37.7437 38.2493 37.9033 38.0949C38.3961 37.6183 38.2823 36.8044 38.1722 36.0172C38.1302 35.7182 38.0909 35.4356 38.0847 35.1783C38.0829 35.1055 38.1349 35.0442 38.2028 35.0388C38.3876 35.0249 38.5857 35.1042 38.7988 35.1883C39.0173 35.2748 39.2432 35.3641 39.5023 35.3641C40.3099 35.3456 40.5219 34.8157 40.6228 34.3C40.6601 34.1116 40.6498 33.9143 40.6411 33.74C40.6328 33.5743 40.6236 33.3867 40.6732 33.3342C40.699 33.3075 40.7751 33.3069 40.8853 33.3355C41.1084 33.3914 41.3029 33.5213 41.509 33.659L41.5935 33.7151C41.7589 33.8247 41.9898 33.7822 42.1084 33.6271C42.1807 33.5316 42.2039 33.4094 42.1714 33.292C42.0417 32.8234 41.85 32.2861 41.4097 31.8533C40.7334 31.1888 40.6614 30.6103 41.1604 29.8566C41.2237 29.7609 41.348 29.6551 41.4676 29.5527C41.6691 29.3805 41.8778 29.2027 41.9231 28.9847C41.9864 28.6798 41.8536 28.51 41.7471 28.3733C41.6429 28.2398 41.5605 28.1342 41.5968 27.8965C41.6205 27.7413 41.7543 27.6124 41.8958 27.4755C42.0636 27.3136 42.2538 27.1301 42.263 26.8707C42.2715 26.6265 42.1429 26.4786 42.0492 26.3707C41.929 26.2328 41.8742 26.1698 42.0327 25.9405C42.0708 25.8851 42.1346 25.8656 42.2352 25.8383C42.3788 25.7992 42.5752 25.7457 42.6593 25.4912C42.7522 25.2104 42.6411 25.0398 42.5515 24.9026C42.5142 24.8452 42.4792 24.7915 42.4553 24.7294C42.428 24.6587 42.3999 24.5913 42.3734 24.5269C42.2036 24.1172 42.1009 23.8702 42.4491 23.4564C43.006 22.7943 44.1663 22.1556 45.0088 21.8427C45.7255 21.5763 46.9594 21.3066 47.9308 21.3066C48.1308 21.3066 48.3115 21.3182 48.4679 21.3414C48.8621 21.399 49.7816 21.8442 50.06 22.4546C50.1143 22.574 50.2309 22.6481 50.3642 22.6481C50.5305 22.6481 50.6707 22.5372 50.7065 22.3789C50.873 21.6342 50.5716 20.8275 49.8338 20.0457C49.6856 19.8859 49.5536 19.7284 49.426 19.5763Z" stroke="#084635" stroke-width="3" mask="url(#path-1-inside-1_218_2486)"/>
<path d="M12.0807 36.7957L12.08 36.7936C12.0526 36.719 12.0284 36.6441 12.0086 36.5829C11.9561 36.4203 11.9277 36.3417 11.8947 36.2841L12.0807 36.7957ZM12.0807 36.7957C12.1435 36.9652 12.2153 37.1356 12.2802 37.2898L12.2804 37.2902C12.3374 37.4258 12.3897 37.5508 12.4354 37.6684C12.3182 37.649 12.2052 37.6324 12.1015 37.6172L12.0912 37.6157L12.091 37.6157C11.7058 37.5594 11.4013 37.5123 11.1272 37.4108L11.1267 37.4106C10.9749 37.3545 10.8211 37.288 10.6459 37.2118L10.6456 37.2117L10.6269 37.2035C10.4624 37.132 10.2741 37.0501 10.0798 36.9791C9.78396 36.8709 9.46865 36.8127 9.23017 36.7687C9.21994 36.7668 9.20986 36.765 9.19993 36.7631L9.19948 36.763C9.0453 36.7346 8.91399 36.7102 8.7889 36.6803L8.78627 36.6797C8.67131 36.6527 8.55295 36.6312 8.45519 36.6135L8.44581 36.6118L8.44483 36.6116C8.1876 36.5654 8.03544 36.5324 7.92771 36.4781C7.8848 36.4564 7.87089 36.4412 7.86803 36.4378L7.86801 36.4378C7.86751 36.4373 7.85871 36.4285 7.85066 36.3929C7.68913 35.6774 7.23107 35.0721 6.60557 34.5756L12.0807 36.7957ZM11.8275 36.1832L11.8272 36.1828C11.8239 36.178 11.8202 36.1729 11.8162 36.1673C11.7551 36.0808 11.6252 35.8972 11.564 35.6523C11.5639 35.6521 11.5639 35.6519 11.5638 35.6517L11.5186 35.4719L11.5184 35.4709L11.5138 35.4528C11.4699 35.2791 11.422 35.0899 11.3808 34.8829L11.8275 36.1832ZM11.8275 36.1832C11.8645 36.236 11.8818 36.2616 11.8946 36.2841L11.8275 36.1832ZM11.3587 33.8806L11.3587 33.8806C11.3604 33.8694 11.3608 33.8622 11.3608 33.8581C11.3547 33.8492 11.3347 33.8239 11.2829 33.7858C11.1301 33.6732 10.8974 33.583 10.5838 33.4698C10.5838 33.4698 10.5838 33.4698 10.5838 33.4698L10.5716 33.4654C10.4413 33.4184 10.2725 33.3575 10.1351 33.2916L10.135 33.2916C10.1328 33.2906 10.1304 33.2894 10.1278 33.2882C10.0365 33.2447 9.69522 33.0824 9.58874 32.6763C9.5419 32.4976 9.56071 32.341 9.57795 32.2479C9.59543 32.1536 9.62376 32.0631 9.64658 31.9943L9.64669 31.994C9.72706 31.752 9.7961 31.5072 9.82018 31.2995C9.83606 31.1624 9.82563 31.0988 9.82219 31.0804C9.73895 30.9779 9.62343 30.8721 9.49831 30.794C9.35965 30.7074 9.25897 30.6852 9.20945 30.6852C9.18862 30.6852 9.17596 30.6888 9.16814 30.692L8.88444 29.9977M11.3587 33.8806L4.81232 32.9234C4.66182 32.5719 4.43522 32.293 4.13354 32.0607L4.13355 32.0607L4.12864 32.057L3.98145 31.9456L3.98145 31.9456L3.979 31.9437C3.74923 31.7713 3.59833 31.6534 3.47803 31.5019L3.47795 31.5018C3.30346 31.282 3.16169 31.0231 3.0298 30.76L2.92251 30.5431C2.92235 30.5428 2.92219 30.5425 2.92203 30.5421C2.91552 30.5289 2.90894 30.5155 2.90229 30.5019C2.70073 30.091 2.43564 29.5506 2.02084 29.1159C2.38896 29.1182 2.76058 29.0487 3.10045 28.9104L3.10154 28.9099C3.14664 28.8915 3.19005 28.8724 3.22467 28.8573C3.31318 28.8186 3.36977 28.7973 3.41394 28.7862C3.41865 28.785 3.42273 28.7841 3.42621 28.7834C3.44165 28.7892 3.46572 28.7997 3.49997 28.8182C3.55996 28.8507 3.62233 28.8913 3.71052 28.9497C3.71058 28.9497 3.71064 28.9498 3.7107 28.9498L3.76533 28.986L3.76533 28.986L3.7687 28.9882C4.01704 29.1507 4.16572 29.3051 4.24732 29.4334L4.24785 29.4342L4.24786 29.4342C4.25123 29.4395 4.25281 29.442 4.2554 29.4555C4.25727 29.4652 4.25948 29.4806 4.26138 29.5064C4.26343 29.534 4.26452 29.5638 4.26608 29.6105L4.26611 29.6113C4.26626 29.6157 4.26641 29.6202 4.26657 29.625C4.26932 29.7074 4.27387 29.8432 4.30223 29.9897L4.30244 29.9908C4.30764 30.0175 4.31269 30.0386 4.31542 30.0499L4.49885 30.8099L5.25052 30.5951C5.25939 30.5926 5.2691 30.5897 5.27946 30.5864C5.31509 30.6203 5.35374 30.6589 5.39982 30.7053L5.40024 30.7057C5.40542 30.7109 5.41072 30.7162 5.41614 30.7217C5.52001 30.8262 5.66711 30.9742 5.8526 31.1035C6.1675 31.323 6.51348 31.4883 6.881 31.5921L6.88171 31.5923C7.22758 31.6897 7.52938 31.6027 7.7339 31.5067C7.9181 31.4202 8.08334 31.297 8.1863 31.2202L8.19515 31.2137L8.19675 31.2125C8.29391 31.1397 8.35037 31.0991 8.39793 31.0723L8.39794 31.0723C8.68713 30.9092 8.93862 30.7861 9.16902 30.6916L8.88444 29.9977M11.3587 33.8806C11.3053 34.2359 11.3108 34.532 11.3807 34.8824L11.3587 33.8806ZM8.88444 29.9977C8.61964 30.1063 8.33992 30.244 8.02957 30.419M8.88444 29.9977C8.98583 29.9563 9.0952 29.9352 9.20945 29.9352C9.6778 29.9352 10.1621 30.2919 10.4344 30.6454C10.7167 31.0116 10.5262 31.7252 10.3585 32.2304C10.2756 32.4803 10.2897 32.534 10.4593 32.6154C10.5597 32.6635 10.695 32.7126 10.8384 32.7644L8.02957 30.419M4.93204 29.1255C4.88785 29.1371 4.85182 29.1484 4.82838 29.1558L4.82835 29.1557L4.81735 29.1594C4.82138 29.158 4.82508 29.1568 4.82839 29.1558C4.83231 29.1546 4.83569 29.1536 4.83844 29.1528L4.9414 29.5132L4.94141 29.5132L4.96257 29.5873L4.96258 29.5873L4.97809 29.6416L5.03693 29.8475L5.04448 29.874L5.05471 29.8715L4.93204 29.1255ZM4.93204 29.1255C4.91754 29.0941 4.90039 29.0625 4.88004 29.0307L4.93204 29.1255ZM8.02957 30.419C7.93281 30.4736 7.83837 30.5438 7.74702 30.6123C7.52185 30.78 7.308 30.9332 7.08489 30.8704L8.02957 30.419ZM5.029 33.8408L5.02908 33.8413C5.04021 33.9235 5.04471 33.9993 5.04736 34.048C5.11256 34.0689 5.19995 34.0822 5.36134 34.1008C5.36161 34.1008 5.36188 34.1008 5.36215 34.1009L5.27634 34.8459C5.34016 34.8531 5.40578 34.8609 5.47397 34.8709L5.029 33.8408ZM5.029 33.8408C5.01132 33.7109 4.97026 33.5972 4.9546 33.5539C4.95341 33.5506 4.95237 33.5477 4.9515 33.5452L4.24506 33.7967L4.95185 33.5462C4.94623 33.5304 4.94278 33.5206 4.93972 33.5114C4.9372 33.5039 4.93571 33.4991 4.93482 33.496L4.929 33.4366M5.029 33.8408L4.929 33.4366M4.929 33.4366C4.92852 33.4315 4.92804 33.4261 4.92752 33.4204C4.91828 33.3185 4.9013 33.1311 4.81245 32.9237L4.929 33.4366ZM11.3604 33.8533C11.3605 33.8532 11.3606 33.8539 11.3607 33.8556L11.3604 33.8533Z" stroke="#084635" stroke-width="1.5"/>
</svg>
