<svg width="51" height="51" viewBox="0 0 51 51" fill="none" xmlns="http://www.w3.org/2000/svg">
<path d="M13.0408 32.2469V39.1061C13.0408 39.5797 13.4231 39.9635 13.8946 39.9635H20.725C21.1965 39.9635 21.5788 39.5797 21.5788 39.1061V32.2469C21.5788 31.7734 21.1965 31.3895 20.725 31.3895H13.8946C13.4231 31.3895 13.0408 31.7734 13.0408 32.2469ZM18.1635 33.1043H19.8712V34.8191H18.1635V33.1043ZM18.1635 36.5339H19.8712V38.2488H18.1635V36.5339ZM14.7484 33.1043H16.4559V34.8191H14.7484V33.1043ZM14.7484 36.5339H16.4559V38.2488H14.7484V36.5339Z" fill="#084635"/>
<path d="M13.0408 32.2469V39.1061C13.0408 39.5797 13.4231 39.9635 13.8946 39.9635H20.725C21.1965 39.9635 21.5788 39.5797 21.5788 39.1061V32.2469C21.5788 31.7734 21.1965 31.3895 20.725 31.3895H13.8946C13.4231 31.3895 13.0408 31.7734 13.0408 32.2469ZM18.1635 33.1043H19.8712V34.8191H18.1635V33.1043ZM18.1635 36.5339H19.8712V38.2488H18.1635V36.5339ZM14.7484 33.1043H16.4559V34.8191H14.7484V33.1043ZM14.7484 36.5339H16.4559V38.2488H14.7484V36.5339Z" stroke="white"/>
<path d="M46.8607 22.3863H34.9007V14.7246L35.4259 15.0292C35.8345 15.2659 36.3564 15.1255 36.5922 14.7154C36.828 14.3053 36.6881 13.7809 36.2797 13.5442L23.4659 6.11488C23.2017 5.96166 22.8763 5.96175 22.6121 6.11488L9.798 13.5442C9.38963 13.7809 9.24969 14.3053 9.48551 14.7154C9.64372 14.9904 9.9306 15.1443 10.2258 15.1442C10.3706 15.1442 10.5174 15.1071 10.6518 15.0292L11.1778 14.7242V26.0166L4.42729 29.9306C4.01892 30.1673 3.87898 30.6918 4.1148 31.1018C4.35062 31.5119 4.8728 31.6525 5.28109 31.4156L5.80685 31.1107V43.3926C5.80685 43.8661 6.18918 44.25 6.66065 44.25H28.6759H45.0546C45.5261 44.25 45.9084 43.8661 45.9084 43.3926V31.5306H46.8607C47.3322 31.5306 47.7145 31.1467 47.7145 30.6732V23.2437C47.7145 22.7702 47.3322 22.3863 46.8607 22.3863ZM37.4692 24.1011H40.8844V29.8158H37.4692V24.1011ZM35.7616 24.1011V29.8158H32.3465V24.1011H35.7616ZM12.8854 20.1893H15.5351C16.0065 20.1893 16.3889 19.8055 16.3889 19.3319C16.3889 18.8584 16.0065 18.4745 15.5351 18.4745H12.8854V13.7342L23.039 7.84741L33.1931 13.7346V22.3863H17.668C17.6335 22.3863 17.5997 22.389 17.5663 22.393C17.5577 22.394 17.5493 22.3956 17.5407 22.3969C17.5143 22.4008 17.4886 22.4059 17.463 22.4122C17.4547 22.4143 17.4465 22.4163 17.4382 22.4186C17.4073 22.4273 17.3769 22.4373 17.3474 22.4493L17.3418 22.4514C17.3093 22.4649 17.2781 22.4805 17.2478 22.4979C17.2468 22.4984 17.2458 22.4989 17.2447 22.4993C17.2435 22.4999 17.2423 22.5004 17.2411 22.5011L12.8854 25.0266V20.1893ZM25.5164 24.1011V26.804L20.8544 24.1011H25.5164ZM27.8221 42.5354H7.51444V30.1208L17.668 24.2337L27.8221 30.121V42.5354ZM27.224 27.7941V24.1011H30.639V29.7741L27.224 27.7941ZM44.2008 42.5354H29.5297V40.8483H44.2008V42.5354ZM44.2008 39.1335H29.5297V31.111L30.0552 31.4157C30.0559 31.4161 30.0567 31.4165 30.0574 31.4168C30.0589 31.4175 30.0604 31.4181 30.0618 31.4189C30.0921 31.4363 30.1235 31.452 30.156 31.4655C30.1582 31.4665 30.1606 31.4673 30.1629 31.468C30.1644 31.4686 30.166 31.4691 30.1676 31.4697C30.1947 31.4806 30.2226 31.4899 30.251 31.4979C30.2612 31.5008 30.2715 31.5034 30.2818 31.5059C30.3044 31.5114 30.3272 31.5157 30.3504 31.5193C30.3614 31.5211 30.3724 31.5231 30.3835 31.5244C30.4116 31.5277 30.4402 31.5295 30.4691 31.5299C30.4711 31.5299 30.473 31.5301 30.4749 31.5303C30.4771 31.5305 30.4792 31.5307 30.4813 31.5307L30.4832 31.5306H44.2008V33.1578H40.6972C40.2257 33.1578 39.8434 33.5417 39.8434 34.0152C39.8434 34.4888 40.2257 34.8726 40.6972 34.8726H44.2008V39.1335ZM46.0069 29.8158H42.592V24.1011H46.0069V29.8158Z" fill="#084635"/>
<path d="M46.8607 22.3863H34.9007V14.7246L35.4259 15.0292C35.8345 15.2659 36.3564 15.1255 36.5922 14.7154C36.828 14.3053 36.6881 13.7809 36.2797 13.5442L23.4659 6.11488C23.2017 5.96166 22.8763 5.96175 22.6121 6.11488L9.798 13.5442C9.38963 13.7809 9.24969 14.3053 9.48551 14.7154C9.64372 14.9904 9.9306 15.1443 10.2258 15.1442C10.3706 15.1442 10.5174 15.1071 10.6518 15.0292L11.1778 14.7242V26.0166L4.42729 29.9306C4.01892 30.1673 3.87898 30.6918 4.1148 31.1018C4.35062 31.5119 4.8728 31.6525 5.28109 31.4156L5.80685 31.1107V43.3926C5.80685 43.8661 6.18918 44.25 6.66065 44.25H28.6759H45.0546C45.5261 44.25 45.9084 43.8661 45.9084 43.3926V31.5306H46.8607C47.3322 31.5306 47.7145 31.1467 47.7145 30.6732V23.2437C47.7145 22.7702 47.3322 22.3863 46.8607 22.3863ZM37.4692 24.1011H40.8844V29.8158H37.4692V24.1011ZM35.7616 24.1011V29.8158H32.3465V24.1011H35.7616ZM12.8854 20.1893H15.5351C16.0065 20.1893 16.3889 19.8055 16.3889 19.3319C16.3889 18.8584 16.0065 18.4745 15.5351 18.4745H12.8854V13.7342L23.039 7.84741L33.1931 13.7346V22.3863H17.668C17.6335 22.3863 17.5997 22.389 17.5663 22.393C17.5577 22.394 17.5493 22.3956 17.5407 22.3969C17.5143 22.4008 17.4886 22.4059 17.463 22.4122C17.4547 22.4143 17.4465 22.4163 17.4382 22.4186C17.4073 22.4273 17.3769 22.4373 17.3474 22.4493L17.3418 22.4514C17.3093 22.4649 17.2781 22.4805 17.2478 22.4979C17.2468 22.4984 17.2458 22.4989 17.2447 22.4993C17.2435 22.4999 17.2423 22.5004 17.2411 22.5011L12.8854 25.0266V20.1893ZM25.5164 24.1011V26.804L20.8544 24.1011H25.5164ZM27.8221 42.5354H7.51444V30.1208L17.668 24.2337L27.8221 30.121V42.5354ZM27.224 27.7941V24.1011H30.639V29.7741L27.224 27.7941ZM44.2008 42.5354H29.5297V40.8483H44.2008V42.5354ZM44.2008 39.1335H29.5297V31.111L30.0552 31.4157C30.0559 31.4161 30.0567 31.4165 30.0574 31.4168C30.0589 31.4175 30.0604 31.4181 30.0618 31.4189C30.0921 31.4363 30.1235 31.452 30.156 31.4655C30.1582 31.4665 30.1606 31.4673 30.1629 31.468C30.1644 31.4686 30.166 31.4691 30.1676 31.4697C30.1947 31.4806 30.2226 31.4899 30.251 31.4979C30.2612 31.5008 30.2715 31.5034 30.2818 31.5059C30.3044 31.5114 30.3272 31.5157 30.3504 31.5193C30.3614 31.5211 30.3724 31.5231 30.3835 31.5244C30.4116 31.5277 30.4402 31.5295 30.4691 31.5299C30.4711 31.5299 30.473 31.5301 30.4749 31.5303C30.4771 31.5305 30.4792 31.5307 30.4813 31.5307L30.4832 31.5306H44.2008V33.1578H40.6972C40.2257 33.1578 39.8434 33.5417 39.8434 34.0152C39.8434 34.4888 40.2257 34.8726 40.6972 34.8726H44.2008V39.1335ZM46.0069 29.8158H42.592V24.1011H46.0069V29.8158Z" stroke="#084635"/>
<path d="M20.7605 20.5642H24.6026C25.0741 20.5642 25.4564 20.1804 25.4564 19.7068V14.75C25.4564 14.2764 25.0741 13.8926 24.6026 13.8926H20.7605C20.2891 13.8926 19.9067 14.2764 19.9067 14.75V19.7068C19.9067 20.1804 20.2891 20.5642 20.7605 20.5642ZM21.6143 15.6074H23.7488V18.8495H21.6143V15.6074Z" fill="#084635"/>
<path d="M20.7605 20.5642H24.6026C25.0741 20.5642 25.4564 20.1804 25.4564 19.7068V14.75C25.4564 14.2764 25.0741 13.8926 24.6026 13.8926H20.7605C20.2891 13.8926 19.9067 14.2764 19.9067 14.75V19.7068C19.9067 20.1804 20.2891 20.5642 20.7605 20.5642ZM21.6143 15.6074H23.7488V18.8495H21.6143V15.6074Z" stroke="white"/>
<path d="M37.8881 33.533H37.868C37.3965 33.533 37.0142 33.9168 37.0142 34.3903C37.0142 34.8639 37.3965 35.2477 37.868 35.2477H37.8881C38.3596 35.2477 38.7419 34.8639 38.7419 34.3903C38.7419 33.9168 38.3596 33.533 37.8881 33.533Z" fill="#084635"/>
<path d="M37.8881 33.533H37.868C37.3965 33.533 37.0142 33.9168 37.0142 34.3903C37.0142 34.8639 37.3965 35.2477 37.868 35.2477H37.8881C38.3596 35.2477 38.7419 34.8639 38.7419 34.3903C38.7419 33.9168 38.3596 33.533 37.8881 33.533Z" stroke="white"/>
</svg>
