<svg width="24" height="22" viewBox="0 0 24 22" fill="none" xmlns="http://www.w3.org/2000/svg">
<path d="M6.75 13.25C7.35938 13.25 7.875 13.7656 7.875 14.375V15.875C7.875 16.5312 7.35938 17 6.75 17H5.25C4.59375 17 4.125 16.5312 4.125 15.875V14.375C4.125 13.7656 4.59375 13.25 5.25 13.25H6.75ZM4.875 15.875C4.875 16.1094 5.01562 16.25 5.25 16.25H6.75C6.9375 16.25 7.125 16.1094 7.125 15.875V14.375C7.125 14.1875 6.9375 14 6.75 14H5.25C5.01562 14 4.875 14.1875 4.875 14.375V15.875ZM10.125 14.375C10.125 13.7656 10.5938 13.25 11.25 13.25H12.75C13.3594 13.25 13.875 13.7656 13.875 14.375V15.875C13.875 16.5312 13.3594 17 12.75 17H11.25C10.5938 17 10.125 16.5312 10.125 15.875V14.375ZM11.25 14C11.0156 14 10.875 14.1875 10.875 14.375V15.875C10.875 16.1094 11.0156 16.25 11.25 16.25H12.75C12.9375 16.25 13.125 16.1094 13.125 15.875V14.375C13.125 14.1875 12.9375 14 12.75 14H11.25ZM18.75 13.25C19.3594 13.25 19.875 13.7656 19.875 14.375V15.875C19.875 16.5312 19.3594 17 18.75 17H17.25C16.5938 17 16.125 16.5312 16.125 15.875V14.375C16.125 13.7656 16.5938 13.25 17.25 13.25H18.75ZM16.875 15.875C16.875 16.1094 17.0156 16.25 17.25 16.25H18.75C18.9375 16.25 19.125 16.1094 19.125 15.875V14.375C19.125 14.1875 18.9375 14 18.75 14H17.25C17.0156 14 16.875 14.1875 16.875 14.375V15.875ZM4.875 0.5C5.90625 0.5 6.75 1.34375 6.75 2.375V8.32812L13.5469 4.8125C14.5312 4.25 15.75 5 15.75 6.125V8.23438L21.75 4.85938C22.7344 4.34375 24 5.04688 24 6.17188V18.875C24 20.3281 22.7812 21.5 21.375 21.5H2.625C1.17188 21.5 0 20.3281 0 18.875V2.375C0 1.34375 0.796875 0.5 1.875 0.5H4.875ZM0.75 18.875C0.75 19.9531 1.54688 20.75 2.625 20.75H21.375C22.4062 20.75 23.25 19.9531 23.25 18.875V6.17188C23.25 5.60938 22.5938 5.23438 22.125 5.51562L15.5156 9.21875C15.4219 9.26562 15.2812 9.26562 15.1406 9.21875C15.0469 9.125 15 9.03125 15 8.89062V6.125C15 5.5625 14.3906 5.1875 13.875 5.46875L6.51562 9.26562C6.42188 9.3125 6.28125 9.3125 6.14062 9.26562C6.04688 9.17188 6 9.07812 6 8.9375V2.375C6 1.76562 5.48438 1.25 4.875 1.25H1.875C1.21875 1.25 0.75 1.76562 0.75 2.375V18.875Z" fill="#035745"/>
</svg>
