<svg width="100" height="100" viewBox="0 0 100 100" fill="none" xmlns="http://www.w3.org/2000/svg">
<path d="M64.4459 51.8664H38.7454C38.3801 51.8664 38.085 52.1631 38.0945 52.5231C38.1721 55.4935 38.3762 58.331 38.6867 61.014C38.7313 61.4 39.1094 61.6608 39.4913 61.565C43.4205 60.5779 47.4697 60.0796 51.5956 60.0796C55.7215 60.0796 59.7707 60.5779 63.6999 61.565C64.0817 61.6608 64.4599 61.4 64.5045 61.014C64.815 58.3309 65.0191 55.4933 65.0968 52.5231C65.1062 52.1631 64.811 51.8664 64.4459 51.8664Z" fill="white"/>
<path d="M8.93019 46.9438L16.9232 55.3879H14.0287H12.3938L12.6661 56.986C15.8469 75.6581 30.8648 88.7969 50.6055 88.7969C72.5372 88.7969 90.5106 72.6309 90.5106 50.7495C90.5106 29.4156 73.3693 10.3266 51.918 9.61857V7.66502C75.2552 8.45511 94.1664 27.4369 94.1664 50.7495C94.1664 74.5537 74.6246 93.9222 50.6055 93.9222C28.6943 93.9222 10.1921 77.7913 7.15839 56.9175L6.98768 55.7428H5.79061H2.38013L8.93019 46.9438Z" fill="white"/>
<path d="M64.5045 38.612C64.4599 38.226 64.0818 37.9653 63.6999 38.0611C59.7707 39.0483 55.7215 39.5466 51.5956 39.5466C47.4697 39.5466 43.4205 39.0482 39.4913 38.0613C39.1095 37.9654 38.7313 38.2262 38.6867 38.6122C38.3762 41.2954 38.1721 44.1329 38.0945 47.1031C38.085 47.4632 38.38 47.7598 38.7454 47.7598H64.4457C64.811 47.7598 65.106 47.4631 65.0966 47.1031C65.0191 44.1328 64.8148 41.2952 64.5045 38.612Z" fill="white"/>
<path d="M63.7003 33.1967C62.534 26.8347 60.7465 21.6172 58.6835 17.9299C58.5917 17.7656 58.4305 17.6497 58.244 17.6127C56.0788 17.1825 53.8549 16.9602 51.5958 16.9602C49.3368 16.9602 47.1128 17.1825 44.9476 17.6128C44.7611 17.6499 44.5999 17.7658 44.5081 17.93C42.4451 21.6172 40.6576 26.8347 39.4913 33.1969C39.4316 33.5226 39.6348 33.8416 39.9589 33.9278C43.671 34.9136 47.5723 35.44 51.5958 35.44C55.6194 35.44 59.5206 34.9136 63.2327 33.9276C63.5568 33.8416 63.76 33.5224 63.7003 33.1967Z" fill="white"/>
<path d="M65.4457 19.916C64.9155 19.677 64.363 20.1991 64.5727 20.7354C64.5763 20.745 64.5801 20.7544 64.5837 20.764C65.8505 24.0112 66.8795 27.6978 67.6495 31.6847C67.7264 32.0832 68.1567 32.3103 68.5373 32.1562C71.0991 31.1197 73.5422 29.8549 75.8414 28.3889C76.1819 28.1719 76.243 27.7039 75.9669 27.4113C75.7025 27.1311 75.4327 26.8548 75.1565 26.5827C72.2996 23.7654 69.014 21.5246 65.4457 19.916Z" fill="white"/>
<path d="M69.9131 47.7598H84.1499C84.5319 47.7598 84.8308 47.4375 84.7994 47.0625C84.3389 41.5547 82.5008 36.3253 79.4484 31.7658C79.2483 31.4675 78.8427 31.3868 78.5407 31.5838C76.0538 33.2036 73.4173 34.598 70.6457 35.7537C70.0772 35.9909 69.5053 36.2166 68.9302 36.4316C68.648 36.5371 68.4755 36.8169 68.5132 37.1122C68.9229 40.3333 69.1767 43.6932 69.2634 47.1326C69.2721 47.4812 69.5595 47.7598 69.9131 47.7598Z" fill="white"/>
<path d="M39.4913 66.4295C40.6576 72.7915 42.4451 78.009 44.5081 81.6966C44.5999 81.8607 44.7611 81.9764 44.9476 82.0139C47.1128 82.4437 49.3368 82.6656 51.5958 82.6656C53.8549 82.6656 56.0788 82.4437 58.244 82.0131C58.4305 81.9764 58.5917 81.8607 58.6835 81.6959C60.7465 78.009 62.534 72.7915 63.7003 66.4293C63.76 66.1036 63.5568 65.7846 63.2327 65.6984C59.5206 64.7126 55.6194 64.1862 51.5958 64.1862C47.5723 64.1862 43.671 64.7126 39.9589 65.6986C39.6348 65.7846 39.4316 66.1038 39.4913 66.4295Z" fill="white"/>
<path d="M32.5454 63.8724C33.1139 63.6353 33.6859 63.4096 34.261 63.1946C34.5431 63.0891 34.7156 62.8092 34.6779 62.5139C34.2682 59.2929 34.0144 55.933 33.9277 52.4935C33.9188 52.1451 33.6316 51.8665 33.2781 51.8665H19.0412C18.6595 51.8665 18.3605 52.1888 18.3919 52.5638C18.852 58.0716 20.6905 63.301 23.743 67.8605C23.9426 68.1588 24.3482 68.2396 24.6507 68.0426C27.1376 66.4225 29.7738 65.0282 32.5454 63.8724Z" fill="white"/>
<path d="M75.8415 71.2374C73.5425 69.7713 71.0993 68.5065 68.5375 67.4701C68.1569 67.3161 67.7266 67.5431 67.6497 67.9416C66.8797 71.9284 65.8508 75.615 64.584 78.8624C64.5803 78.8718 64.5766 78.8814 64.5729 78.8908C64.3633 79.4273 64.9158 79.9493 65.446 79.7102C69.0143 78.1017 72.2999 75.8609 75.1574 73.0437C75.4327 72.7716 75.7026 72.4952 75.967 72.215C76.2431 71.9224 76.1819 71.4544 75.8415 71.2374Z" fill="white"/>
<path d="M69.2634 52.4934C69.1767 55.9328 68.9228 59.2929 68.5132 62.5138C68.4755 62.8091 68.648 63.089 68.9302 63.1945C69.5053 63.4094 70.0772 63.6351 70.6457 63.8723C73.4173 65.0282 76.0538 66.4225 78.5407 68.0423C78.8427 68.2393 79.2483 68.1585 79.4484 67.8602C82.5008 63.3008 84.3389 58.0715 84.7994 52.5635C84.8308 52.1885 84.5319 51.8662 84.1499 51.8662H69.9131C69.5595 51.8664 69.2721 52.1449 69.2634 52.4934Z" fill="white"/>
<path d="M27.3498 28.3888C29.649 29.8548 32.0923 31.1196 34.654 32.1561C35.0346 32.31 35.4649 32.083 35.5418 31.6846C36.3119 27.6977 37.3407 24.0111 38.6075 20.7638C38.6112 20.7543 38.615 20.7448 38.6186 20.7353C38.8283 20.1989 38.2758 19.6768 37.7455 19.9159C34.1774 21.5246 30.8917 23.7654 28.0344 26.5825C27.7584 26.8546 27.4887 27.131 27.2242 27.4112C26.9481 27.7037 27.0094 28.1718 27.3498 28.3888Z" fill="white"/>
<path d="M33.9138 47.7598C33.9842 44.1017 34.2435 40.5287 34.6779 37.1123C34.7156 36.817 34.5431 36.5371 34.261 36.4316C33.6859 36.2166 33.1139 35.9909 32.5454 35.7538C29.7738 34.5979 27.1376 33.2035 24.6507 31.5837C24.3482 31.3867 23.9428 31.4676 23.743 31.7659C20.6905 36.3253 18.852 41.5547 18.3919 47.0626C18.3605 47.4376 18.6595 47.7598 19.0412 47.7598H33.9138Z" fill="white"/>
<path d="M37.7455 79.7101C38.2758 79.9491 38.8283 79.4271 38.6186 78.8907C38.615 78.8812 38.6112 78.8717 38.6075 78.8622C37.3409 75.6149 36.3119 71.9283 35.5418 67.9414C35.4649 67.543 35.0344 67.316 34.6539 67.47C32.0923 68.5065 29.649 69.7712 27.3498 71.2372C27.0093 71.4542 26.9481 71.9223 27.2243 72.2149C27.4888 72.495 27.7586 72.7715 28.0346 73.0436C30.8917 75.8608 34.1772 78.1016 37.7455 79.7101Z" fill="white"/>
</svg>
