<svg width="46" height="46" viewBox="0 0 46 46" fill="none" xmlns="http://www.w3.org/2000/svg">
<path d="M43.5375 18.3575L34.8575 9.6775L32.8475 7.6675L26.9575 1.7775C24.5875 -0.5925 20.7475 -0.5925 18.3775 1.7775L12.9075 7.2475C14.3775 6.7175 15.8675 6.8375 17.3375 7.3575L20.6475 4.0475C21.7575 2.9375 23.5675 2.9375 24.6775 4.0475L28.2975 7.6675L28.7975 8.1675C27.8775 8.4475 27.0075 8.9475 26.2775 9.6775L22.6575 13.2975L24.9275 15.5675L28.5475 11.9475C29.6575 10.8375 31.4675 10.8375 32.5775 11.9475L41.2575 20.6275C42.3675 21.7375 42.3675 23.5475 41.2575 24.6575L33.5775 32.3375L32.5775 33.3375C31.4675 34.4475 29.6575 34.4475 28.5475 33.3375L25.9275 30.7175L23.6575 32.9975L26.2775 35.6175C28.6375 37.9775 32.4875 37.9775 34.8575 35.6175L35.1175 35.3575L35.8575 34.6175L43.5375 26.9375C45.8975 24.5675 45.8975 20.7275 43.5375 18.3575Z" fill="#014834"/>
<path d="M25.4475 20.6275C26.5575 21.7375 26.5575 23.5475 25.4475 24.6575L22.6575 27.4475L24.9275 29.7175L27.7175 26.9275C30.0775 24.5675 30.0775 20.7175 27.7175 18.3475L24.9275 15.5575L22.6575 13.2875L20.3875 15.5575L22.6575 17.8275L25.4475 20.6275Z" fill="#8B7836"/>
<path d="M28.0275 37.8875L24.6675 41.2475C23.5575 42.3575 21.7475 42.3575 20.6375 41.2475L17.0175 37.6275L16.5175 37.1275C17.4375 36.8475 18.3075 36.3475 19.0375 35.6175L22.6575 31.9975L20.3875 29.7275L16.7675 33.3475C15.6575 34.4575 13.8475 34.4575 12.7375 33.3475L4.0575 24.6675C2.9475 23.5575 2.9475 21.7475 4.0575 20.6375L12.7375 11.9575C13.8475 10.8475 15.6575 10.8475 16.7675 11.9575L19.3975 14.5875L21.6675 12.3175L21.3575 11.9975L19.0375 9.6775C16.7475 7.3875 13.0775 7.3175 10.6975 9.4575L10.6875 9.4475L10.4575 9.6775L10.1975 9.9375L1.7775 18.3575C-0.5925 20.7175 -0.5925 24.5675 1.7775 26.9375L10.4575 35.6175L12.4675 37.6275L18.3575 43.5175C20.7175 45.8775 24.5675 45.8775 26.9375 43.5175L32.4075 38.0475C30.9475 38.5775 29.4975 38.4175 28.0275 37.8875Z" fill="#8B7836"/>
<path d="M20.3875 15.5675L17.5975 18.3575C15.2375 20.7175 15.2375 24.5675 17.5975 26.9375L22.6575 31.9975L24.9275 29.7275L19.8675 24.6675C18.7575 23.5575 18.7575 21.7475 19.8675 20.6375L22.6575 17.8475L20.3875 15.5675Z" fill="#014834"/>
</svg>
