<svg width="183" height="53" viewBox="0 0 183 53" fill="none" xmlns="http://www.w3.org/2000/svg">
<g clip-path="url(#clip0_454_33869)">
<path d="M66.9918 26.0774H65.2185V16.5894H66.9918V26.0774ZM66.9802 15.6683H65.2646V13.9641H66.9802V15.6683Z" fill="white"/>
<path d="M75.3054 25.8471H75.6162V27.2059H75.1326C74.1309 27.2059 73.5091 26.8144 73.3018 26.0429C72.8873 26.158 72.4267 26.2156 71.9201 26.2156C70.8838 26.2156 70.0893 25.9853 69.5366 25.5132C68.9839 25.0411 68.7075 24.3733 68.7075 23.5212V19.1572C68.7075 18.3051 68.9839 17.6373 69.5366 17.1652C70.0893 16.6931 70.8838 16.4628 71.9201 16.4628C72.9564 16.4628 73.7509 16.6931 74.3036 17.1652C74.8563 17.6373 75.1326 18.3051 75.1326 19.1572V23.5212C75.1326 24.3502 74.8793 24.9951 74.3727 25.4441C74.5108 25.709 74.8333 25.8471 75.3054 25.8471ZM73.3594 23.5788V19.0766C73.3594 18.662 73.2327 18.3396 72.9794 18.1209C72.7261 17.9021 72.3691 17.7985 71.9086 17.7985C71.4365 17.7985 71.0795 17.9136 70.8377 18.1209C70.5844 18.3396 70.4692 18.6505 70.4692 19.0766V23.5788C70.4692 23.9933 70.5959 24.3157 70.8377 24.523C71.091 24.7417 71.448 24.8454 71.9086 24.8454C72.3691 24.8454 72.7376 24.7417 72.9794 24.523C73.2327 24.3042 73.3594 23.9933 73.3594 23.5788Z" fill="white"/>
<path d="M80.3832 26.0775H78.5984V17.9367H76.2034V16.578H82.7552V17.9367H80.3832V26.0775Z" fill="white"/>
<path d="M85.8528 26.0774H84.0796V16.5894H85.8528V26.0774ZM85.8413 15.6683H84.1256V13.9641H85.8413V15.6683Z" fill="white"/>
<path d="M90.4585 26.2041C89.4683 26.2041 88.7083 25.9738 88.1671 25.5247C87.626 25.0757 87.3496 24.4539 87.3496 23.6709V23.2679H89.0192V23.6709C89.0192 24.0393 89.1459 24.3387 89.3992 24.5575C89.6525 24.7763 90.0095 24.8914 90.447 24.8914C90.8961 24.8914 91.2415 24.7763 91.4948 24.5575C91.7482 24.3387 91.8748 24.0393 91.8748 23.6709C91.8748 23.2333 91.7482 22.9109 91.4833 22.6806C91.253 22.4734 90.7119 22.197 89.8598 21.8401C88.9271 21.4486 88.2823 21.0456 87.9138 20.6195C87.5569 20.1935 87.3842 19.6408 87.3842 18.9614C87.3842 18.1899 87.6605 17.5797 88.2132 17.1191C88.7659 16.6585 89.5259 16.4282 90.5161 16.4282C91.4948 16.4282 92.2433 16.6585 92.7845 17.1076C93.3141 17.5566 93.579 18.1784 93.579 18.9729V19.2493H91.8978V19.0075C91.8978 18.616 91.7827 18.3166 91.5409 18.0978C91.2991 17.8791 90.9537 17.7639 90.5161 17.7639C90.1016 17.7639 89.7677 17.8675 89.5259 18.0863C89.2841 18.3051 89.1574 18.593 89.1574 18.9384C89.1574 19.3299 89.284 19.6408 89.5489 19.8596C89.8137 20.0783 90.3664 20.3547 91.1955 20.7001C92.1397 21.0916 92.7845 21.5061 93.1299 21.9322C93.4753 22.3697 93.6481 22.9339 93.6481 23.6248C93.6481 24.4193 93.3717 25.0526 92.8075 25.5132C92.2548 25.9738 91.4718 26.2041 90.4585 26.2041Z" fill="white"/>
<path d="M101.708 26.0775H99.889L99.4514 24.2352H96.5728L96.1352 26.0775H94.4541L96.8607 16.5895H99.2557L101.708 26.0775ZM98.0121 18.19L96.9067 22.8879H99.129L98.0121 18.19Z" fill="white"/>
<path d="M106.222 26.0775H103.021V16.5895H106.222C108.341 16.5895 109.4 17.4761 109.4 19.2378V23.4406C109.4 25.1909 108.341 26.0775 106.222 26.0775ZM104.794 17.9367V24.7188H106.199C106.706 24.7188 107.074 24.6151 107.293 24.4194C107.512 24.2236 107.627 23.9012 107.627 23.4522V19.1918C107.627 18.7542 107.512 18.4318 107.293 18.2245C107.074 18.0288 106.706 17.9252 106.199 17.9252H104.794V17.9367Z" fill="white"/>
<path d="M112.854 26.0774H111.081V16.5894H112.854V26.0774ZM112.843 15.6683H111.127V13.9641H112.843V15.6683Z" fill="white"/>
<path d="M123.356 26.0775H117.103V24.7533L121.398 17.9367H117.288V16.578H123.356V17.8907L119.049 24.7188H123.356V26.0775Z" fill="white"/>
<path d="M124.634 23.5097V19.1457C124.634 18.2936 124.91 17.6258 125.463 17.1537C126.016 16.6816 126.81 16.4513 127.846 16.4513C128.883 16.4513 129.677 16.6816 130.23 17.1537C130.783 17.6258 131.059 18.2936 131.059 19.1457V23.5097C131.059 24.3733 130.783 25.0296 130.23 25.5017C129.677 25.9738 128.883 26.2041 127.846 26.2041C126.81 26.2041 126.016 25.9738 125.463 25.5017C124.91 25.0296 124.634 24.3733 124.634 23.5097ZM129.297 23.5788V19.0766C129.297 18.6621 129.171 18.3397 128.917 18.1209C128.664 17.9021 128.307 17.7985 127.846 17.7985C127.374 17.7985 127.017 17.9136 126.775 18.1209C126.522 18.3397 126.407 18.6506 126.407 19.0766V23.5788C126.407 23.9933 126.534 24.3157 126.775 24.523C127.029 24.7418 127.386 24.8454 127.846 24.8454C128.307 24.8454 128.675 24.7418 128.917 24.523C129.182 24.3042 129.297 23.9933 129.297 23.5788Z" fill="white"/>
<path d="M134.364 26.0775H132.775V16.578H134.997L137.784 22.8304V16.578H139.384V26.0775H137.576L134.364 18.7888V26.0775Z" fill="white"/>
<path d="M147.951 26.0775H146.132L145.694 24.2352H142.815L142.378 26.0775H140.697L143.103 16.5895H145.498L147.951 26.0775ZM144.243 18.19L143.138 22.8879H145.36L144.243 18.19Z" fill="white"/>
<path d="M154.836 26.0775H149.252V16.578H151.025V24.7188H154.836V26.0775Z" fill="white"/>
<path d="M162.897 26.0775H161.077L160.64 24.2352H157.761L157.324 26.0775H155.643L158.049 16.5895H160.444L162.897 26.0775ZM159.201 18.19L158.095 22.8879H160.318L159.201 18.19Z" fill="white"/>
<path d="M165.983 26.0775H164.209V16.5895H167.307C168.378 16.5895 169.172 16.7852 169.69 17.1767C170.209 17.5682 170.474 18.167 170.474 18.9845V19.2954C170.474 20.3663 169.955 21.0456 168.931 21.3335V21.3795C169.472 21.4947 169.863 21.725 170.117 22.0819C170.37 22.4389 170.485 22.957 170.485 23.6364V24.7763C170.485 25.329 170.554 25.7666 170.704 26.089H168.896C168.769 25.8011 168.712 25.3636 168.712 24.7763V23.5097C168.712 22.9916 168.585 22.6346 168.343 22.4158C168.09 22.2086 167.664 22.0934 167.054 22.0934H165.994V26.0775H165.983ZM165.983 17.9367V20.7578H167.054C167.618 20.7578 168.044 20.6541 168.297 20.4469C168.562 20.2396 168.689 19.9172 168.689 19.4681V19.1572C168.689 18.7312 168.574 18.4203 168.355 18.2245C168.136 18.0288 167.779 17.9367 167.284 17.9367H165.983Z" fill="white"/>
<path d="M173.974 16.578H172.2V26.066H173.974V16.578Z" fill="white"/>
<path d="M177.428 26.0775H175.851V16.578H178.073L180.859 22.8304V16.578H182.46V26.0775H180.652L177.428 18.7888V26.0775Z" fill="white"/>
<path d="M66.9918 40.0216H65.2185V30.5336H66.9918V40.0216ZM66.9802 29.624H65.2646V27.9198H66.9802V29.624Z" fill="white"/>
<path d="M70.4462 40.0216H68.8572V30.5221H71.091L73.8776 36.7745V30.5221H75.4781V40.0216H73.6703L70.4462 32.7329V40.0216Z" fill="white"/>
<path d="M84.2637 40.0216H82.3754L80.2797 35.5079L79.1167 36.9818V40.0216H77.3435V30.5221H79.1167V34.817L82.3984 30.5221H84.2177L81.5003 34.0801L84.2637 40.0216Z" fill="white"/>
<path d="M87.338 40.0216H85.5532V30.5336H87.3264V40.0216H87.338ZM87.3149 29.624H85.5993V27.9198H87.3149V29.624Z" fill="white"/>
<path d="M95.1334 37.5806C95.1334 38.3175 94.8801 38.9162 94.385 39.3768C93.8899 39.8374 93.1875 40.0907 92.3009 40.1483V40.6549C93.0954 40.6549 93.4984 40.8967 93.4984 41.3919C93.4984 41.7258 93.3717 41.9561 93.1069 42.0827C92.842 42.2094 92.4275 42.2785 91.8633 42.2785C90.804 42.2785 90.2743 41.9906 90.2743 41.4264V41.2882H91.276V41.4149C91.276 41.6567 91.4718 41.7834 91.8518 41.7834C92.2893 41.7834 92.5081 41.6452 92.5081 41.3804C92.5081 41.104 92.2663 40.9773 91.7942 40.9773H91.6445V40.1713C90.7464 40.1253 90.067 39.8835 89.5719 39.4344C89.0883 38.9853 88.835 38.3981 88.835 37.6496V37.2121H90.5046V37.6151C90.5046 37.9836 90.6312 38.2829 90.8846 38.5017C91.1379 38.7205 91.4948 38.8356 91.9324 38.8356C92.3814 38.8356 92.7269 38.7205 92.9802 38.5017C93.2335 38.2829 93.3602 37.9836 93.3602 37.6151C93.3602 37.1775 93.2335 36.8551 92.9687 36.6248C92.7384 36.4176 92.1972 36.1297 91.3451 35.7843C90.4125 35.3928 89.7676 34.9898 89.3992 34.5637C89.0422 34.1377 88.8695 33.585 88.8695 32.9056C88.8695 32.1342 89.1459 31.5239 89.6986 31.0633C90.2513 30.6027 91.0227 30.3724 92.0015 30.3724C92.9802 30.3724 93.7287 30.6027 94.2698 31.0518C94.7995 31.5009 95.0759 32.1227 95.0759 32.9172V33.1705H93.3832V32.9517C93.3832 32.5602 93.2681 32.2608 93.0263 32.042C92.7845 31.8233 92.439 31.7081 92.0015 31.7081C91.5869 31.7081 91.253 31.8233 91.0112 32.0305C90.7694 32.2493 90.6427 32.5372 90.6427 32.8826C90.6427 33.2741 90.7694 33.585 91.0342 33.8038C91.2991 34.0226 91.8518 34.2989 92.6808 34.6443C93.625 35.0358 94.2698 35.4388 94.6153 35.8764C94.9607 36.314 95.1334 36.8897 95.1334 37.5806Z" fill="white"/>
<path d="M103.194 40.0216H101.374L100.937 38.1792H98.0581L97.6206 40.0216H95.9395L98.346 30.5336H100.741L103.194 40.0216ZM99.4859 32.1456L98.3805 36.8435H100.603L99.4859 32.1456Z" fill="white"/>
<path d="M106.268 40.0216H104.495V30.5221H110.079V31.8808H106.268V34.5982H109.308V35.957H106.268V40.0216Z" fill="white"/>
<path d="M113.177 30.5336H111.404V40.0216H113.177V30.5336Z" fill="white"/>
<path d="M124.576 40.0216H122.757L122.319 38.1792H119.441L119.003 40.0216H117.322L119.729 30.5336H122.124L124.576 40.0216ZM120.869 32.1456L119.763 36.8435H121.985L120.869 32.1456Z" fill="white"/>
<path d="M125.578 37.4883V33.0898C125.578 32.2262 125.854 31.5699 126.407 31.0978C126.96 30.6257 127.731 30.3954 128.744 30.3954C129.746 30.3954 130.529 30.6372 131.082 31.1093C131.635 31.5814 131.911 32.2492 131.911 33.1013V33.6195H130.241V33.0322C130.241 32.6177 130.115 32.2953 129.873 32.088C129.619 31.8692 129.263 31.7656 128.802 31.7656C128.33 31.7656 127.973 31.8692 127.731 32.088C127.478 32.3068 127.363 32.6177 127.363 33.0322V37.5344C127.363 37.9489 127.489 38.2713 127.731 38.4786C127.984 38.6974 128.341 38.801 128.802 38.801C129.263 38.801 129.631 38.6859 129.873 38.4786C130.126 38.2598 130.241 37.9489 130.241 37.5344V36.1181H128.871V34.7133H131.911V37.4883C131.911 38.3404 131.635 38.9968 131.082 39.4573C130.529 39.9179 129.758 40.1597 128.744 40.1597C127.743 40.1597 126.96 39.9294 126.407 39.4573C125.854 38.9852 125.578 38.3404 125.578 37.4883Z" fill="white"/>
<path d="M139.326 40.0216H133.569V30.5221H139.326V31.8808H135.342V34.5292H138.566V35.8879H135.342V38.6629H139.326V40.0216Z" fill="white"/>
<path d="M142.355 40.0216H140.777V30.5221H143L145.786 36.7745V30.5221H147.387V40.0216H145.579L142.355 32.7329V40.0216Z" fill="white"/>
<path d="M152.879 40.0216H151.106V31.8808H148.711V30.5221H155.262V31.8808H152.879V40.0216Z" fill="white"/>
<path d="M162.171 40.0216H156.587V30.5221H158.36V38.6629H162.171V40.0216Z" fill="white"/>
<path d="M165.269 40.0216H163.496V30.5336H165.269V40.0216ZM165.246 29.624H163.53V27.9198H165.246V29.624Z" fill="white"/>
<path d="M171.026 40.0216H169.253V36.003L166.524 30.5221H168.435L170.209 34.2183L172.005 30.5221H173.767L171.026 36.003V40.0216Z" fill="white"/>
<path d="M176.795 40.0216H175.021V30.5336H176.795V40.0216ZM176.783 29.624H175.068V27.9198H176.783V29.624Z" fill="white"/>
<path d="M58.6551 40.2519C58.2867 40.2519 57.9873 39.9525 57.9873 39.5956V14.5399C57.9873 14.1714 58.2867 13.8835 58.6551 13.8835C59.0236 13.8835 59.3115 14.1829 59.3115 14.5399V39.5956C59.323 39.9525 59.0236 40.2519 58.6551 40.2519Z" fill="white"/>
<path d="M50.1229 21.9668L40.1283 11.9722L37.8138 9.65777L31.0317 2.87569C28.3028 0.146742 23.8812 0.146742 21.1522 2.87569L14.8538 9.17415C16.5464 8.56388 18.2621 8.70206 19.9547 9.30081L23.766 5.4895C25.0442 4.21138 27.1283 4.21138 28.4064 5.4895L32.5747 9.65777L33.1504 10.2335C32.0911 10.5559 31.0893 11.1316 30.2488 11.9722L26.0805 16.1405L28.6943 18.7543L32.8626 14.586C34.1407 13.3079 36.2248 13.3079 37.5029 14.586L47.4976 24.5806C48.7757 25.8587 48.7757 27.9429 47.4976 29.221L38.6544 38.0642L37.5029 39.2156C36.2248 40.4937 34.1407 40.4937 32.8626 39.2156L29.8457 36.1988L27.2319 38.8241L30.2488 41.841C32.9662 44.5584 37.3993 44.5584 40.1283 41.841L40.4276 41.5416L41.2797 40.6895L50.1229 31.8463C52.8404 29.1174 52.8404 24.6958 50.1229 21.9668Z" fill="white"/>
<path d="M29.2932 24.5806C30.5713 25.8587 30.5713 27.9428 29.2932 29.221L26.0806 32.4335L28.6944 35.0473L31.907 31.8348C34.6244 29.1173 34.6244 24.6842 31.907 21.9553L28.6944 18.7427L26.0806 16.1289L23.4668 18.7427L26.0806 21.3565L29.2932 24.5806Z" fill="white"/>
<path d="M32.2639 44.4547L28.395 48.3236C27.1169 49.6017 25.0328 49.6017 23.7547 48.3236L19.5864 44.1553L19.0107 43.5796C20.07 43.2572 21.0718 42.6815 21.9123 41.8409L26.0806 37.6726L23.4668 35.0588L19.2985 39.2271C18.0204 40.5052 15.9363 40.5052 14.6581 39.2271L4.6635 29.2324C3.38538 27.9543 3.38538 25.8702 4.6635 24.5921L14.6581 14.5974C15.9363 13.3193 18.0204 13.3193 19.2985 14.5974L22.3269 17.6258L24.9407 15.012L24.5837 14.6435L21.9123 11.9721C19.2755 9.33527 15.0496 9.25467 12.3092 11.7188L12.2977 11.7073L12.0328 11.9721L11.7334 12.2715L2.03817 21.9668C-0.690784 24.6842 -0.690784 29.1173 2.03817 31.8462L12.0328 41.8409L14.3473 44.1553L21.1293 50.9374C23.8468 53.6548 28.2799 53.6548 31.0089 50.9374L37.3073 44.6389C35.6262 45.2492 33.9566 45.065 32.2639 44.4547Z" fill="white"/>
<path d="M23.4667 18.7543L20.2541 21.9668C17.5367 24.6843 17.5367 29.1174 20.2541 31.8463L26.0805 37.6727L28.6943 35.0589L22.868 29.2325C21.5898 27.9544 21.5898 25.8703 22.868 24.5922L26.0805 21.3796L23.4667 18.7543Z" fill="white"/>
</g>
<defs>
<clipPath id="clip0_454_33869">
<rect width="182.46" height="52.161" fill="white" transform="translate(0 0.82605)"/>
</clipPath>
</defs>
</svg>
